<svg width="1266" height="900" viewBox="0 0 1266 900" fill="none" xmlns="http://www.w3.org/2000/svg">
<g opacity="0.1">
<g clip-path="url(#clip0_1_2583)">
<path d="M270.518 437.238C274.456 433.292 270.299 424.741 268.111 420.576C254.326 392.731 213.848 348.005 216.255 315.995C218.662 284.862 248.2 262.718 267.017 241.67C285.834 220.623 275.331 227.639 289.116 221.719C302.9 215.799 317.779 221.28 335.502 224.35C353.225 227.419 355.85 217.334 369.854 213.168C383.857 209.003 398.954 209.88 410.988 217.115C423.023 224.35 419.74 229.173 437.026 228.954C454.311 228.735 448.185 227.858 456.499 229.393C474.879 233.12 499.822 254.167 517.326 247.371C534.83 240.574 534.174 225.446 544.239 218.649C561.305 207.029 566.557 228.516 578.591 235.312C590.625 242.109 600.471 239.259 611.192 248.906C621.913 258.552 624.32 271.049 630.447 284.423C638.98 303.498 659.328 290.124 673.769 297.797C688.21 305.471 683.834 341.866 690.398 346.251C696.962 350.636 703.526 344.059 707.246 341.866C725.407 330.465 723.875 309.637 751.663 318.626C779.451 327.615 788.203 340.112 795.204 364.448C802.206 388.785 800.456 402.159 810.083 405.228C819.71 408.298 837.871 389.443 845.966 383.084C854.062 376.726 875.942 366.202 874.848 351.513C873.754 336.823 863.033 335.289 859.313 329.588C840.059 301.525 847.717 271.049 868.065 246.275C876.38 236.189 887.101 228.954 896.291 219.965C905.48 210.976 921.015 194.094 903.73 185.105C886.445 176.116 877.255 191.463 865.877 196.725C854.5 201.987 819.71 214.922 802.862 218.869C757.133 229.393 751.006 160.768 763.259 130.732C771.793 109.903 786.89 106.176 802.425 93.0211C826.931 72.4119 863.908 7.07643 893.884 3.78773C923.86 0.499027 911.826 6.19945 912.263 -1.03569C912.92 -12.2173 897.385 -9.80559 889.946 -11.3403C875.942 -13.9713 876.161 -16.8215 866.971 -25.1528C857.782 -33.4842 843.997 -31.0725 835.683 -20.9872C812.271 6.63793 805.926 41.2789 763.697 46.7601C721.468 52.2412 710.309 19.135 680.99 -4.76291C651.67 -28.6608 605.503 9.04963 580.56 -27.1261C568.307 -44.885 573.777 -60.89 574.433 -79.9645C575.527 -109.344 553.866 -108.686 542.707 -128.199C524.765 -159.77 536.581 -183.449 567.432 -197.481C598.283 -211.513 609.879 -209.32 605.503 -226.86C601.784 -241.111 563.274 -267.859 548.834 -267.859C534.393 -267.859 530.017 -247.03 523.89 -238.041C503.979 -208.224 467.877 -197.042 442.277 -227.298C416.677 -257.554 442.277 -278.602 460.438 -303.596C470.94 -318.066 482.099 -338.237 452.342 -332.756C422.585 -327.275 398.736 -313.681 389.546 -306.227C374.011 -293.292 380.575 -278.164 371.604 -263.255C359.789 -243.961 334.845 -243.523 315.153 -238.261C324.781 -228.833 341.628 -231.025 354.1 -228.395C375.543 -223.79 405.081 -200.112 414.052 -180.16C423.898 -158.236 420.397 -147.273 421.272 -125.349C422.147 -103.424 454.311 -95.9695 462.188 -71.6331C466.345 -58.6976 467.22 -34.7997 452.342 -28.6608C437.463 -22.5219 432.431 -25.1528 424.773 -25.8106C411.645 -26.9068 410.113 -32.8265 396.985 -23.1796C383.857 -13.5328 381.669 -3.00894 358.476 -4.76291C325.437 -7.39387 306.401 -50.3662 273.143 -39.8424C239.885 -29.3185 266.142 1.59527 265.485 19.7927C264.829 37.9902 259.578 40.8404 254.764 49.1718C230.477 92.1441 180.59 104.641 158.054 150.025C135.517 195.409 132.673 219.088 98.5395 231.366C64.4064 243.644 66.5944 224.569 53.4663 207.249C40.3382 189.928 46.9022 201.548 44.7142 198.26C28.7417 175.677 35.3057 129.416 16.27 110.999C-2.76579 92.5826 -23.7708 93.8981 -45.4321 100.914C-67.0935 107.93 -69.9379 115.165 -79.1276 113.192C-88.3173 111.219 -84.3788 106.395 -90.5053 107.053C-96.6318 107.711 -108.228 125.25 -116.543 116.919C-124.857 108.588 -119.387 109.026 -121.794 106.614C-125.951 102.01 -133.609 104.86 -138.642 106.834C-139.517 99.5985 -131.859 97.8446 -125.732 98.7215C-119.606 99.5985 -117.418 102.449 -115.23 106.176C-113.042 109.903 -113.479 113.411 -110.635 113.192C-102.321 107.711 -97.0694 99.8178 -85.9105 102.01C-74.7516 104.203 -79.1276 110.561 -66.4371 104.86C-43.0253 94.5558 -24.8648 84.2512 1.82905 94.9943C44.7142 112.096 30.9297 155.287 46.9022 189.928C62.8747 224.569 58.4987 203.302 63.5312 210.099C68.5636 216.895 68.7824 222.596 76.6593 226.323C98.1019 236.628 122.826 207.029 132.891 191.024C146.019 169.977 149.739 146.079 166.149 126.347C194.156 92.8019 235.291 80.0856 254.108 37.771C272.924 -4.54364 251.701 2.47224 253.232 -22.0834C254.545 -45.3235 279.27 -50.8047 298.087 -44.0081C322.155 -35.2382 333.97 -11.5595 360.664 -10.0248C386.701 -8.70934 389.765 -36.5537 412.082 -34.3612C434.4 -32.1687 431.993 -29.5378 445.997 -33.0457C460 -36.5537 460.219 -67.9059 451.029 -79.7453C441.839 -91.5846 435.057 -90.9268 428.493 -97.0657C407.925 -116.14 420.178 -136.53 414.27 -160.867C407.706 -188.492 381.669 -215.459 354.319 -222.694C326.969 -229.929 317.779 -223.79 309.902 -234.972C302.025 -246.153 307.495 -241.111 311.871 -243.303C328.719 -252.292 350.38 -244.838 365.478 -265.447C380.575 -286.056 368.76 -293.949 381.669 -307.762C394.578 -321.574 443.152 -338.456 457.593 -339.553C472.034 -340.649 481.005 -334.51 475.535 -319.382C465.032 -290.441 418.428 -267.201 444.246 -233.876C463.282 -209.539 492.601 -209.539 512.512 -232.779C520.389 -241.988 530.017 -266.105 538.331 -270.928C551.022 -278.383 571.151 -266.324 581.873 -259.089C592.594 -251.854 622.351 -228.395 605.941 -210.416C589.531 -192.438 533.736 -195.288 540.957 -148.589C544.676 -125.349 560.649 -121.183 572.683 -105.836C584.717 -90.4883 574.871 -66.8097 578.809 -46.639C582.748 -26.4683 583.842 -29.757 590.187 -24.2759C616.881 -1.69345 655.171 -33.0457 685.585 -8.4901C703.089 5.76093 723 41.7174 748.162 42.5944C773.324 43.4714 790.828 32.7283 806.801 11.8998C820.367 -5.63989 834.808 -45.762 863.033 -34.7997C891.258 -23.8374 874.629 -23.1796 881.631 -19.8909C893.665 -14.1905 918.827 -19.8909 918.39 -1.25495C917.952 17.381 899.354 7.5149 889.289 10.5844C868.284 16.9425 832.62 70.0002 815.553 88.1977C793.892 111.219 769.386 112.096 764.135 149.148C758.883 186.201 765.885 213.826 793.016 214.265C801.112 214.265 837.871 201.548 847.717 198.04C857.563 194.532 870.035 186.42 881.412 181.378C892.79 176.335 907.231 174.362 914.67 186.859C926.923 207.906 895.416 226.762 882.944 238.601C861.939 258.772 847.717 283.546 857.782 313.364C867.847 343.182 873.754 333.315 879.005 344.716C888.414 365.545 859.97 379.576 846.842 389.662C833.713 399.747 809.645 428.03 797.392 396.897C789.078 376.069 792.798 357.652 775.731 338.577C758.664 319.503 747.943 320.161 738.754 321.476C729.564 322.792 720.593 340.331 710.966 346.251C670.706 371.245 687.773 319.941 675.301 305.471C662.829 291.001 636.792 311.391 625.633 286.835C614.474 262.28 618.85 262.937 607.035 252.852C595.22 242.767 581.216 246.055 568.745 234.435C556.273 222.815 558.242 219.088 551.897 220.623C545.552 222.157 535.049 240.136 528.266 246.494C504.417 268.199 477.285 237.505 453.436 234.216C429.587 230.927 438.557 235.093 431.775 234.874C415.802 234.435 409.457 216.676 389.546 216.019C369.854 215.361 366.572 223.473 351.912 228.954C337.252 234.435 317.341 219.965 297.212 224.569C277.082 229.173 273.362 242.109 261.984 254.387C246.887 270.392 224.351 289.247 221.944 313.364C219.537 337.481 240.104 366.202 251.263 384.838C262.422 403.474 277.301 421.014 277.519 431.1C277.738 441.185 273.581 441.404 268.33 443.158C255.202 447.105 244.918 433.73 234.853 427.372C224.788 421.014 207.722 412.244 199.845 410.71C191.968 409.175 185.404 413.121 182.122 419.918C176.652 431.1 176.652 460.479 177.527 473.195C179.277 499.066 185.623 509.151 176.871 536.557C168.118 563.963 172.276 550.15 165.493 551.466C150.614 554.316 143.394 541.161 133.329 533.268C117.575 520.552 98.9771 512.659 78.8473 520.552C58.7175 528.445 53.9039 545.765 50.1842 554.097C43.839 568.786 49.0902 582.16 48.4338 597.508C47.7774 612.855 45.5894 612.416 46.2458 620.529C47.9962 643.33 62.8748 654.95 60.9055 680.602C59.5927 697.046 48.4338 717.874 51.4971 733.221C54.5603 748.569 58.0611 740.676 51.9347 741.114C45.8082 741.553 44.4954 731.687 44.4954 728.179C44.2766 712.831 54.5603 693.319 55.6543 676.437C56.7483 659.555 47.9962 652.1 43.839 637.849C39.6818 623.598 42.0886 614.609 42.0886 600.796C42.3074 566.375 36.1809 558.482 59.8115 530.199C82.7857 503.012 111.23 508.274 136.83 528.664C162.43 549.054 163.524 560.674 171.838 534.145C180.153 507.617 167.9 470.783 172.276 436.8C176.652 402.817 202.908 402.378 231.571 419.041C260.234 435.704 257.171 438.115 263.954 438.335C270.736 438.554 268.548 437.896 269.424 437.019L270.518 437.238Z" fill="#231710"/>
<path d="M-135.36 445.57C-136.017 444.693 -139.517 435.046 -136.235 436.361C-125.514 445.789 -114.355 457.848 -99.2579 459.382C-84.1606 460.917 -71.6889 458.286 -64.6872 454.34C-57.6856 450.393 -61.624 452.586 -60.53 451.051C-51.7779 440.527 -44.9951 426.276 -35.3678 415.314C-16.5508 393.608 2.04733 378.042 16.7071 351.951C31.3668 325.861 26.9907 310.075 13.8626 284.862C0.734511 259.649 -13.7064 243.205 -13.9252 226.323C-13.9252 214.484 -4.51673 186.859 10.5806 198.698C25.6779 210.537 31.3668 227.639 40.7753 237.285C62.4366 259.21 73.5955 259.868 102.04 250.659C148.426 235.531 165.055 196.725 195.249 161.865C225.444 127.004 237.697 116.919 265.266 99.3792C292.835 81.8395 292.835 85.3474 300.274 76.5776C314.934 59.2571 324.124 30.0973 353.662 34.9207C383.2 39.7441 374.667 47.1985 386.263 46.1023C397.86 45.0061 397.203 39.3056 402.236 35.7977C428.055 18.2579 459.562 14.5307 483.411 37.1132C487.131 40.6211 492.82 50.0487 497.852 51.1449C507.698 53.3374 521.702 39.9634 531.767 38.2094C541.831 36.4554 554.084 40.1826 564.368 43.4713C574.652 46.76 616.443 62.3265 603.315 81.401C589.53 101.352 553.866 89.2939 537.018 116.919C535.267 119.769 532.423 123.277 533.736 126.785C535.049 130.293 550.802 145.202 554.084 147.613C578.153 164.495 595 135.993 614.036 137.967C633.072 139.94 638.323 170.415 640.73 183.789C648.388 223.473 642.699 235.312 676.176 264.033C687.991 274.119 703.964 276.531 711.622 260.526C729.782 222.596 684.709 171.511 706.37 137.528C714.029 125.47 726.938 120.427 737.222 111.438C747.505 102.449 754.069 95.652 740.285 86.4437C717.311 71.3156 691.711 72.4119 680.552 39.9634C676.395 27.9048 680.552 7.73411 666.767 2.25295C652.983 -3.22822 630.884 7.07635 618.193 11.242C605.503 15.4077 599.814 21.9851 585.592 14.0923C571.37 6.19937 561.086 -3.22823 555.178 -13.3136C543.582 -33.7035 555.397 -49.4893 546.645 -70.9755C537.893 -92.4617 523.452 -97.7236 519.732 -112.413C513.168 -138.503 533.955 -166.129 530.891 -192C527.828 -217.871 508.574 -190.903 501.134 -188.053C486.256 -182.572 482.099 -190.246 470.283 -195.508C458.468 -200.77 449.935 -201.208 442.714 -190.903C432.212 -176.214 444.246 -142.669 452.779 -128.418C461.312 -114.167 482.536 -99.916 492.163 -82.8148C504.416 -61.3286 510.762 -24.4951 493.476 -4.32445C476.191 16.0655 454.748 1.81445 435.275 -2.78973C415.802 -7.39391 407.487 7.07636 392.171 14.0923C376.855 21.1081 363.727 24.6161 349.505 19.1349C335.283 13.6538 315.153 -1.03577 298.743 -7.83241C279.488 -15.7253 290.647 15.8462 291.303 25.7123C294.585 74.6043 231.352 105.08 199.407 133.582C167.461 162.084 159.585 195.19 135.735 221.28C124.358 233.997 90.6621 253.29 73.5955 251.098C56.529 248.905 38.806 223.473 29.3975 209.222C21.3019 196.944 2.26613 159.234 -7.57995 152.656C-17.426 146.079 -30.3353 145.202 -32.0858 156.164C-34.9302 174.362 -25.9593 193.655 -24.8653 211.853C-23.7713 228.954 -29.0225 250.659 -23.5525 266.226C-15.6756 288.808 11.0182 294.728 5.32935 325.203C-0.359502 355.679 -10.862 339.235 -17.426 350.855C-27.0533 368.395 -27.9285 384.4 -41.9318 403.036C-51.5591 415.971 -79.347 443.816 -97.0699 436.581C-114.793 429.346 -116.106 403.255 -115.23 391.635C-114.355 380.015 -98.8203 359.187 -99.9143 346.909C-101.008 334.631 -117.418 327.177 -125.077 317.53C-132.735 307.883 -134.923 290.124 -129.234 275.434C-123.545 260.745 -116.981 257.237 -125.077 241.89C-133.172 226.542 -144.112 228.077 -141.268 208.783C-138.423 189.49 -115.449 191.024 -116.324 185.762C-117.2 180.501 -132.078 171.95 -137.111 170.854C-142.143 169.757 -143.018 170.196 -146.082 170.196C-149.145 170.196 -152.864 172.608 -152.646 168.88C-152.427 165.153 -141.268 164.715 -137.548 164.934C-128.577 166.03 -109.104 176.554 -110.854 187.297C-112.824 199.794 -138.642 198.259 -135.579 216.676C-132.516 235.093 -121.795 233.339 -118.075 242.328C-108.885 265.13 -129.234 275.654 -127.265 296.701C-125.077 320.818 -96.8511 324.984 -93.7879 344.278C-90.7246 363.572 -109.104 378.042 -109.542 394.705C-109.979 411.367 -101.884 431.099 -89.8494 431.976C-73.4393 433.073 -46.5267 401.72 -38.8686 388.566C-30.9918 375.192 -28.3661 358.529 -20.9269 346.47C-13.4876 334.412 3.57893 333.315 0.734511 313.803C-2.10991 294.29 -12.8312 293.193 -21.3645 281.135C-38.6498 256.579 -27.4909 232.462 -30.5541 205.056C-33.6174 177.65 -39.3062 174.142 -37.7746 158.795C-35.5866 135.116 -8.89277 139.282 2.92253 153.752C14.7378 168.223 23.2711 187.516 33.1172 202.425C42.5257 216.676 60.2486 246.055 79.0656 245.617C97.8825 245.178 108.385 234.874 114.949 231.146C140.986 217.115 162.429 169.319 180.59 145.421C206.408 111.438 287.146 75.9198 286.49 30.5358C285.833 -14.8483 270.955 -22.3027 299.618 -14.1906C316.684 -7.17466 334.626 5.98013 351.255 12.996C367.884 20.0119 379.043 13.873 391.296 8.1726C403.111 2.47219 410.769 -7.83242 424.991 -9.58639C439.213 -11.3404 469.846 11.8998 488.663 -6.73618C507.48 -25.3722 496.102 -74.2642 478.379 -92.9001C460.656 -111.536 449.935 -117.456 440.526 -141.354C431.118 -165.252 425.866 -211.074 465.251 -204.058C474.44 -202.304 485.162 -192 493.039 -192C500.916 -192 523.89 -216.555 534.392 -200.55C549.271 -177.529 512.074 -133.899 530.235 -104.959C540.3 -89.173 554.303 -80.1838 556.491 -58.6976C558.679 -37.2115 551.021 -31.7303 561.305 -15.0676C571.588 1.59519 589.093 12.3383 598.064 12.3383C619.287 7.73409 658.89 -17.6985 677.27 2.25295C685.584 11.2421 682.74 26.3701 686.678 37.9901C696.962 68.0269 724.531 67.5884 745.317 82.4972C774.637 103.545 724.093 123.277 713.153 138.186C696.743 160.549 715.998 194.752 719.936 219.307C723.656 241.89 722.781 281.135 690.398 277.188C679.239 275.873 663.923 260.526 656.702 251.975C632.415 223.692 642.043 191.682 628.258 159.453C614.036 125.689 596.094 156.603 572.683 158.357C549.271 160.111 540.737 144.763 531.767 133.143C519.514 117.138 545.332 98.0637 559.117 93.0211C572.901 87.9784 576.621 89.9516 584.935 87.3206C593.25 84.6897 606.159 76.1391 597.188 65.8345C588.217 55.5299 551.021 42.8136 540.519 42.5943C524.984 42.3751 513.387 59.4763 496.758 56.1876C480.129 52.8989 479.911 38.2094 470.283 33.1667C451.248 23.3006 433.087 25.4931 414.489 35.14C395.891 44.7868 397.641 49.8295 389.327 50.9257C366.352 53.9952 355.85 27.6855 331.344 46.3215C306.838 64.9575 311.433 78.5508 293.71 89.7324C275.987 100.914 274.893 100.037 265.704 105.957C239.666 122.839 218.005 144.763 197.875 168.442C174.901 195.409 152.583 235.531 119.763 250.221C86.9424 264.911 83.6604 263.376 73.5955 262.499C47.5581 260.526 23.0523 222.377 9.04899 203.083C0.296914 196.067 -6.26715 215.58 -6.70476 222.157C-8.67397 244.74 25.8967 282.669 31.5856 307.883C37.2744 333.096 15.3942 369.93 -2.54752 391.635C-20.4893 413.341 -25.9593 413.779 -36.0242 426.495C-46.0891 439.212 -48.2771 446.008 -54.4035 454.34C-63.5932 466.617 -101.446 467.494 -114.355 460.917C-117.2 459.382 -132.735 447.762 -134.266 445.789L-135.36 445.57Z" fill="#231710"/>
<path d="M651.233 -142.669C641.168 -148.15 631.103 -156.701 621.038 -163.278C604.19 -174.022 583.404 -191.342 563.712 -176.433C544.02 -161.524 549.927 -156.92 561.743 -147.054C581.216 -130.83 604.19 -123.376 613.818 -96.189C623.445 -69.0024 603.534 -55.8476 602.659 -34.1422C601.784 -17.6987 630.228 -30.8535 637.448 -33.0459C658.672 -39.4041 679.896 -42.912 695.431 -23.3991C702.432 -14.6292 705.277 -1.25515 714.904 5.54149C724.531 12.3381 740.285 17.6 744.223 18.2578C754.288 20.4502 761.29 17.3808 769.386 11.8996C800.674 -9.80579 788.859 -35.8961 805.05 -62.6442C821.242 -89.3923 873.973 -118.114 886.226 -76.676C898.479 -35.2384 886.663 -65.056 891.477 -62.8635C901.542 -58.6978 919.046 -66.3714 929.33 -65.056C939.613 -63.7405 960.4 -50.5857 966.526 -40.2811C972.653 -29.9765 971.777 -21.8644 982.499 -13.3137C993.22 -4.76311 1007.88 -4.54387 1009.63 12.9959C1011.38 30.5356 1004.38 60.3531 979.435 63.8611C954.492 67.369 949.022 60.5724 939.614 58.1607C913.576 51.1448 888.195 31.4126 861.72 51.1448C840.059 67.1498 851.655 85.5665 839.402 105.518C828.9 122.838 806.363 129.635 798.486 150.683C790.609 171.73 799.362 176.554 818.179 175.677C836.995 174.8 864.346 168.223 881.85 164.715C904.168 160.11 926.048 152.875 948.147 148.052C970.246 143.228 993.658 137.528 1001.53 145.64C1014.66 159.233 992.126 178.089 982.718 186.639C960.619 207.029 915.545 243.643 914.451 276.092C913.576 298.236 949.897 316.214 964.994 329.588C980.092 343.181 1002.19 368.395 978.998 385.715C949.022 408.298 912.263 387.908 883.819 403.913C870.035 411.586 874.848 433.73 867.846 447.762C856.25 470.783 818.397 470.125 802.862 451.051C785.796 429.565 772.668 392.512 756.476 368.176C753.851 364.229 748.818 356.775 744.223 355.24C731.314 351.074 716.436 365.764 715.123 378.042C713.81 390.1 723.656 421.672 700.026 416.191C686.46 413.121 679.896 387.908 671.8 384.619C663.704 381.33 648.826 391.635 637.448 382.207C626.071 372.78 633.291 365.983 636.135 358.967C638.98 351.951 645.325 343.62 644.231 341.866C636.792 336.165 619.725 344.497 615.13 335.289C610.536 326.08 616.662 316.433 609.442 308.321C602.221 300.209 575.308 283.766 569.401 281.135C563.493 278.504 555.835 277.407 548.615 277.627C532.205 278.284 521.264 284.423 503.76 281.573C486.256 278.723 488.007 275.653 480.13 274.776C464.814 272.803 464.157 275.434 449.497 267.761C432.869 258.991 421.928 251.756 401.799 250.44C381.669 249.125 364.602 259.648 345.129 260.964C325.656 262.279 313.84 258.114 295.242 265.787C276.644 273.461 250.607 288.15 245.137 307.006C240.979 321.257 247.106 355.678 254.107 369.052C269.861 398.651 308.589 422.329 312.09 458.286C314.059 479.991 299.181 496.654 279.051 480.868C258.921 465.083 267.673 468.152 262.203 463.109C253.232 454.778 224.35 434.388 212.754 433.511C201.157 432.634 200.282 435.484 198.313 441.185C192.405 458.724 205.533 485.473 206.846 504.547C208.159 523.621 205.752 547.519 201.157 559.797C184.31 604.743 137.486 547.958 113.855 545.108C90.2249 542.257 65.7191 577.556 67.2507 605.4C68.5635 627.764 73.1583 649.469 73.5959 672.709C74.0335 695.949 70.5327 714.805 70.5327 735.852C70.5327 743.307 70.5327 750.98 70.5327 758.435C67.2507 757.119 64.8439 755.146 64.4062 751.638C61.5618 733.221 67.4695 712.831 68.5635 694.853C70.7515 660.87 59.8114 622.282 62.2182 589.615C64.6251 556.947 83.2232 536.995 109.917 538.749C136.611 540.503 160.023 573.39 182.34 571.198C191.53 570.321 196.781 555.851 198.532 548.396C205.315 516.825 198.532 496.873 192.843 467.275C187.154 437.677 188.905 426.714 212.973 428.03C237.041 429.345 253.889 448.201 263.953 456.97C274.018 465.74 293.273 496.435 303.994 472.975C314.716 449.516 307.276 460.917 305.745 454.997C296.336 414.217 250.388 393.827 242.073 352.609C234.196 314.022 235.072 292.974 270.736 271.488C306.401 250.002 298.524 256.579 307.495 255.702C316.466 254.825 330.25 256.36 340.972 255.702C368.103 253.948 383.201 241.232 412.082 246.494C435.275 250.659 438.339 256.798 456.937 265.568C475.535 274.338 466.345 267.98 475.097 268.199C483.849 268.418 496.321 275.215 506.824 276.311C526.953 278.723 545.989 267.761 566.994 273.899C587.999 280.038 610.098 299.771 614.912 305.909C622.132 315.118 617.975 330.904 621.038 333.315C624.101 335.727 645.106 329.588 649.482 338.358C653.858 347.128 631.103 367.299 640.949 377.384C650.795 387.469 657.797 377.603 665.236 377.384C685.366 376.507 686.46 406.105 701.338 410.709C716.217 415.314 708.996 392.293 708.778 386.373C707.902 370.368 717.967 353.705 733.721 349.32C749.475 344.935 749.256 349.978 756.039 357.871C776.387 381.769 787.546 421.233 805.926 445.57C824.305 469.906 831.744 461.794 848.154 457.628C873.098 451.27 861.501 415.752 876.161 402.597C899.792 381.33 943.333 401.939 973.528 382.427C994.533 368.833 975.497 346.47 962.806 334.631C935.675 309.637 893.446 298.894 915.764 252.632C938.082 206.371 962.15 198.917 987.094 174.581C1012.04 150.244 1006.13 158.356 995.846 148.929C985.562 139.501 991.688 146.517 988.625 146.736C956.461 147.394 915.764 162.961 883.381 169.538C850.999 176.115 838.965 179.185 821.898 180.5C804.832 181.816 790.391 179.404 790.828 159.891C791.266 140.378 815.553 123.277 829.119 109.903C849.905 89.5129 832.619 63.2033 860.188 45.2251C887.757 27.2469 935.019 57.503 974.184 58.1607C998.471 58.5992 1007.44 34.2628 1005.04 13.4344C1003.28 -1.03593 990.813 -1.03591 980.967 -8.70954C963.9 -21.8643 967.401 -39.8426 946.615 -53.2166C925.829 -66.5907 909.2 -51.2434 890.821 -58.4786C872.441 -65.7137 886.663 -83.9111 870.035 -90.2693C847.279 -99.0392 816.647 -73.8258 807.238 -54.0936C797.83 -34.3614 801.112 -18.1372 791.485 -2.57066C781.857 12.9959 764.791 24.6159 751.225 24.6159C737.659 24.6159 718.624 13.6536 713.591 10.5841C697.181 0.71804 697.181 -25.3723 675.957 -31.7304C654.734 -38.0886 631.978 -19.0141 607.254 -21.8643C585.373 -24.4953 606.816 -61.7672 609.442 -73.3873C615.568 -101.232 595.219 -117.894 575.09 -132.803C554.96 -147.712 557.367 -142.012 551.678 -150.343C538.112 -170.075 565.244 -190.684 584.061 -189.15C605.941 -187.396 638.323 -155.166 659.328 -145.519C680.333 -135.873 682.959 -136.969 680.115 -150.562C675.082 -174.679 653.858 -189.807 644.45 -211.513C637.229 -228.614 641.605 -227.518 624.758 -239.138C607.91 -250.758 598.501 -252.073 591.5 -265.886C581.654 -285.18 585.155 -300.308 564.587 -315.874C544.02 -331.441 524.546 -334.51 520.608 -347.446C516.67 -360.381 523.671 -349.2 525.203 -348.761C527.828 -347.884 532.642 -341.307 535.487 -339.114C545.77 -331.441 559.774 -327.494 570.714 -318.505C589.093 -303.158 587.561 -290.442 595.876 -271.148C604.19 -251.854 626.289 -248.565 639.855 -235.411C646.638 -228.833 647.732 -217.871 651.67 -209.539C659.766 -192.657 674.207 -181.695 681.865 -162.84C694.118 -131.926 673.113 -131.268 651.233 -143.327V-142.669Z" fill="#231710"/>
<path d="M67.032 488.981C72.7208 487.007 78.1909 484.376 84.3173 483.719C93.0694 482.842 115.825 487.446 122.17 483.719C128.515 479.992 125.671 479.992 126.765 478.676C141.206 459.821 135.736 419.918 137.486 396.897C139.237 373.876 163.742 350.855 191.968 351.951C194.812 350.197 194.593 319.064 195.469 312.706C200.72 273.68 247.981 194.752 288.241 184.885C328.5 175.019 314.059 186.859 328.5 182.254C342.941 177.65 363.071 165.592 382.544 166.03C402.018 166.469 399.173 169.538 406.612 169.319C414.052 169.1 420.178 166.03 426.523 166.03C432.869 166.03 438.339 168.88 442.277 168.223C449.06 167.126 450.373 153.095 466.564 157.699C482.755 162.303 495.884 186.639 497.415 201.548C498.947 216.457 494.133 210.757 489.101 212.949C464.595 224.35 411.207 191.682 382.107 188.393C353.006 185.105 350.818 207.249 334.845 212.072C318.873 216.895 310.996 212.291 298.306 213.387C260.89 216.457 230.039 266.226 214.723 296.92C199.407 327.615 218.005 352.828 225.882 382.865C233.759 412.902 227.195 410.052 205.971 402.817C184.747 395.582 175.995 382.427 167.462 407.202C156.96 437.677 166.806 472.976 156.303 503.232C145.801 533.488 132.454 515.51 112.762 508.932C95.0386 503.012 81.0353 500.162 65.0628 511.563C56.0919 517.921 26.5536 560.894 25.2408 571.637C23.928 582.38 31.3673 604.743 34.2117 618.117C39.0253 640.261 41.8698 660.212 40.7758 683.014C39.6818 705.816 35.3057 715.243 37.7125 727.083C40.1194 738.922 40.1194 729.714 39.6818 731.906C38.3689 730.371 33.5553 727.521 32.6801 726.425C29.3981 721.821 34.2117 694.634 34.4305 687.399C36.3997 645.961 27.6477 626.01 20.2084 588.08C12.7691 550.15 30.4921 545.108 44.0578 526.691C64.4064 498.847 81.0353 492.708 114.731 503.889C148.426 515.071 135.517 514.194 139.893 514.413C149.301 515.071 153.896 491.392 154.99 484.376C158.272 459.163 152.365 419.26 165.493 397.116C178.621 374.972 197.657 397.116 213.629 399.528C229.602 401.94 223.256 397.993 221.725 389.223C215.817 355.24 190.217 332.877 209.472 294.947C228.727 257.018 257.171 212.291 294.367 208.564C331.563 204.837 320.842 210.537 333.314 206.591C352.787 200.452 360.008 180.5 384.076 183.351C410.113 186.42 463.501 215.799 483.849 209.003C504.198 202.206 489.538 195.19 485.819 186.42C482.099 177.65 477.504 169.319 467.877 164.495C458.25 159.672 457.156 164.495 449.498 170.196C441.84 175.896 440.964 173.046 431.775 172.388C422.585 171.731 416.677 174.142 408.582 174.581C400.486 175.019 386.92 171.292 374.886 172.388C355.85 174.142 338.346 187.736 322.155 189.928C305.964 192.121 299.4 186.201 282.989 192.778C249.513 206.591 206.846 273.9 201.376 308.76C195.906 343.62 201.376 335.727 198.969 347.347C196.563 358.967 188.248 356.994 176.652 358.748C165.055 360.502 144.925 376.726 143.394 392.731C140.768 418.602 146.457 458.505 132.235 480.43C128.953 485.253 124.577 490.296 118.45 490.735C104.447 492.05 89.7874 486.35 75.1276 491.612C56.0919 498.408 23.928 532.392 15.3948 550.589C4.01706 574.925 2.92305 611.978 4.67346 638.726C6.42388 665.474 8.8307 660.432 9.92471 671.394C11.0187 681.698 10.3623 693.099 11.0187 703.404C1.39144 696.607 5.54867 685.864 4.67346 675.56C3.79826 665.255 0.516226 654.293 -0.577783 643.988C-4.07861 610.005 -1.89059 558.701 19.9896 531.076C21.9588 528.664 41.2134 510.905 39.2441 508.932C37.2749 508.494 36.8373 510.028 35.5245 511.125C28.0853 517.263 21.3024 525.814 13.4255 532.172C5.54867 538.53 -5.82903 543.792 -12.1743 553.878C-24.646 574.268 -17.4255 593.123 -16.5503 614.609C-15.6751 636.095 -17.8631 648.592 -15.4563 667.228C-13.0495 685.864 -13.0495 673.148 -11.2991 677.314L-19.8323 669.421C-24.8648 649.908 -22.2392 629.299 -22.8956 609.347C-23.552 589.396 -29.022 573.61 -19.3947 554.097C-9.76746 534.584 -1.45299 536.557 9.4871 527.349C27.8664 512.002 44.7142 494.681 65.0628 480.869C85.4113 467.056 86.5053 472.318 95.695 463.11C104.885 453.901 110.574 441.185 111.449 434.607C112.324 428.03 108.823 417.068 109.48 408.517C112.105 371.464 163.742 339.016 170.088 305.252C176.433 271.488 169.65 285.52 173.807 274.119C180.153 255.702 213.848 227.639 229.164 213.826C258.921 187.297 284.74 160.33 326.312 155.506C363.727 151.121 403.112 167.126 413.614 116.919C424.117 66.7114 416.458 91.4863 406.175 86.0052C363.946 63.2035 317.122 106.176 285.615 128.758C258.484 148.052 237.26 160.33 213.848 185.105C189.342 210.757 172.276 232.023 145.144 256.141C118.013 280.258 133.767 268.857 127.859 273.461C112.98 285.3 85.1925 288.589 67.4696 281.354C49.7466 274.119 39.463 262.718 39.463 273.68C47.9962 305.91 53.4663 345.813 30.2733 373.438C7.08028 401.063 -6.48543 409.175 -21.5828 427.592C-29.6784 437.458 -33.3981 449.736 -40.1809 460.698C-48.7142 474.73 -65.5619 497.531 -83.9413 496.435C-102.321 495.339 -107.791 489.419 -116.105 483.28C-124.42 477.141 -129.233 472.318 -129.89 464.864C-128.577 463.548 -113.917 477.58 -111.948 478.895C-90.7241 494.023 -75.1892 494.9 -57.4663 474.73C-43.4629 458.944 -38.4305 438.335 -25.9588 423.207C-9.76746 403.474 28.0853 374.972 36.1809 352.828C44.2766 330.684 41.8698 311.61 38.8065 295.167C35.7433 278.723 28.0853 267.103 40.7758 264.91C53.4663 262.718 62.4371 273.023 73.8148 276.969C85.1925 280.915 101.603 279.819 112.98 275.215C124.358 270.611 128.078 263.376 136.83 255.921C145.582 248.467 155.209 241.451 163.742 233.339C185.623 212.291 203.564 185.105 226.101 164.495C242.292 149.587 262.203 138.624 279.926 125.908C314.278 101.352 347.755 68.0269 394.359 75.9198C440.964 83.8127 419.084 82.7165 420.397 99.16C423.023 132.047 405.956 159.014 371.604 160.768C337.252 162.522 319.748 156.383 291.304 171.731C268.33 184.008 208.597 237.724 191.093 258.552C177.089 274.996 178.84 280.039 176.871 300.209C173.151 336.604 131.579 364.01 118.669 397.555C105.76 431.099 122.826 429.784 111.23 452.366C99.6334 474.949 86.9429 472.756 69.0012 485.911C51.0595 499.066 66.1568 487.007 66.5944 489.2L67.032 488.981ZM60.6867 493.146L56.5295 495.777L56.9671 496.216C58.9363 496.216 60.2491 494.023 61.7807 493.146C63.3123 492.269 67.4696 490.954 65.5004 488.981L60.6867 493.146ZM47.121 502.793C44.933 504.328 42.0886 505.424 40.7758 508.055C43.839 508.055 45.8082 505.424 48.215 503.889C50.6218 502.355 53.9039 500.162 55.6543 497.531C52.3722 497.97 49.7466 500.82 47.3398 502.793H47.121Z" fill="#231710"/>
<path d="M1094.74 178.747C1096.06 181.158 1093.65 183.132 1091.24 182.912C1088.84 182.693 1080.3 177.87 1076.15 176.993C1055.8 172.169 1024.29 180.72 1011.38 197.821C998.471 214.922 1001.1 223.254 993.439 230.489C982.061 241.451 960.618 244.301 950.991 258.552C941.364 272.803 950.116 284.643 957.774 297.798C972.215 322.134 987.093 337.701 1011.6 352.171C1036.11 366.641 1038.07 359.187 1048.36 372.122C1064.77 392.512 1044.42 401.94 1026.48 405.886C1008.54 409.833 991.688 402.597 980.748 410.49C969.808 418.383 966.307 433.292 959.743 448.42C953.179 463.548 940.926 461.575 926.485 465.521C912.045 469.468 893.228 479.553 891.04 497.531C890.164 504.766 892.134 510.905 892.134 517.483C891.915 533.926 863.689 533.049 853.187 526.91C842.684 520.771 829.994 505.424 812.49 498.189C792.141 489.858 779.888 498.189 762.822 478.676C758.664 473.853 756.039 468.152 751.882 463.329C738.097 447.543 700.244 441.623 680.333 430.88C666.768 423.645 628.259 397.774 619.725 386.373C611.63 375.63 607.472 364.887 597.626 353.925C587.78 342.962 564.368 317.53 554.085 313.364C543.801 309.198 543.582 310.075 539.863 309.856C520.389 308.541 498.947 305.91 479.473 301.963C448.185 295.386 436.588 279.819 399.173 280.258C361.758 280.696 354.537 280.477 332.001 280.258C309.464 280.039 260.234 290.782 262.203 329.369C264.172 367.957 268.767 374.972 283.208 394.485C297.649 413.998 333.533 412.244 334.627 444.912C335.064 457.848 321.061 497.751 310.34 504.766C299.618 511.782 288.459 512.221 280.582 506.52C260.453 491.612 257.389 465.521 228.945 458.286C200.501 451.051 213.192 454.997 214.067 464.644C214.942 474.291 220.85 485.473 222.819 494.9C227.632 519.017 230.477 549.054 222.381 572.294C214.286 595.535 208.159 604.962 185.185 602.112C172.713 600.577 154.334 584.572 143.613 577.556C132.891 570.54 105.322 554.755 94.8197 563.305C77.0968 577.776 91.1001 623.379 92.1941 643.769C92.8505 656.485 92.1941 672.052 91.1001 684.768C88.4745 712.612 77.0968 738.045 78.4096 766.328C77.5344 765.451 73.596 763.258 73.3772 763.039C72.7208 761.724 72.9396 747.692 73.3772 745.061C74.69 731.687 79.9412 718.751 82.348 705.596C86.0677 684.987 87.3805 657.362 85.8489 636.534C84.0985 613.294 71.1891 581.064 89.5685 561.332C107.948 541.6 127.421 560.455 139.674 567.91C154.99 577.337 190.874 611.32 207.721 590.273C226.757 566.375 222.6 527.349 218.005 499.066C213.41 470.783 207.065 468.371 209.034 458.944C212.316 444.912 239.448 454.778 247.543 459.821C261.109 468.591 277.082 501.478 289.335 504.328C301.587 507.178 311.871 497.093 317.122 486.35C322.374 475.607 332.438 449.297 326.968 435.046C321.28 420.795 304.213 418.383 292.835 411.367C281.458 404.352 263.516 375.63 260.453 359.625C254.107 326.957 251.263 302.84 283.646 284.643C316.028 266.445 334.408 276.311 361.539 276.531C388.671 276.75 414.052 271.926 439.214 280.696C451.904 285.081 463.501 292.536 476.629 295.824C489.757 299.113 496.321 298.455 506.167 299.99C516.013 301.525 517.545 303.279 521.483 303.717C525.422 304.156 524.328 302.621 530.892 303.717C548.833 306.787 558.461 306.348 572.683 319.722C586.905 333.096 605.284 352.39 614.693 366.203C624.101 380.015 620.819 377.603 624.32 382.865C633.51 396.02 673.551 421.233 689.085 428.469C706.152 436.361 741.817 444.474 753.851 456.094C765.885 467.714 763.04 469.906 768.073 475.607C783.17 493.146 800.018 485.911 818.616 494.243C837.214 502.574 853.624 528.445 875.942 525.814C891.696 524.06 884.913 513.975 884.913 503.232C884.913 486.13 898.479 471.222 913.576 464.644C928.673 458.067 947.49 457.628 952.085 452.586C956.68 447.543 959.962 430.003 963.463 422.987C978.998 392.512 1001.1 405.667 1026.92 400.186C1043.33 396.678 1059.08 389.662 1042.01 373.218C1033.26 364.887 1022.54 364.449 1012.69 359.625C991.907 349.101 972.215 330.246 959.306 311.172C946.396 292.097 931.737 273.242 949.241 252.852C966.745 232.462 972.215 239.04 983.593 231.585C998.034 221.938 997.596 207.468 1007.66 194.752C1017.73 182.035 1045.73 170.415 1062.14 170.415C1078.55 170.415 1092.99 176.335 1095.18 180.062L1094.74 178.747Z" fill="#231710"/>
<path d="M901.323 590.711C925.173 567.471 925.391 531.953 933.706 502.793C937.425 490.077 941.801 488.104 954.711 489.2C967.62 490.296 967.401 494.681 968.933 485.473C972.215 464.644 964.119 450.393 983.593 432.853C1010.51 408.736 1046.61 414.437 1077.9 424.741C1078.55 424.961 1089.27 425.838 1083.37 429.784C1077.46 433.73 1067.61 426.276 1062.8 425.18C1027.79 415.971 977.904 422.768 974.184 466.617C973.528 473.633 975.935 488.104 971.558 493.366C964.557 501.478 950.554 490.077 943.114 496.435C938.082 500.82 934.8 528.445 932.831 536.557C926.048 565.059 914.67 596.411 885.132 607.593C855.594 618.775 842.903 605.181 833.057 584.791C823.211 564.401 823.648 549.054 810.958 537.434C798.267 525.814 788.64 525.376 776.387 519.456C751.663 506.959 730.877 481.307 708.559 464.425C686.241 447.543 660.86 436.361 637.01 420.576C613.161 404.79 607.035 398.87 594.125 387.469C583.623 378.261 564.15 354.363 551.24 352.39C538.331 350.417 533.517 352.828 520.17 343.62C502.01 331.123 495.665 323.449 472.472 317.749C449.279 312.048 447.966 314.679 447.091 311.61C446.215 308.541 449.06 307.883 449.06 307.444C449.06 303.717 413.614 295.824 408.581 295.386C390.202 293.851 372.26 299.551 354.1 300.648C335.939 301.744 288.459 293.193 288.459 328.492C288.459 356.336 313.403 384.619 332.001 402.817C350.599 421.014 346.879 412.463 349.942 423.864C358.913 456.971 327.625 469.906 329.594 494.681C330.469 506.301 337.69 517.044 332.438 529.322C327.187 541.6 309.683 531.953 299.18 527.568C286.928 522.306 264.391 517.702 256.733 508.055C249.075 498.408 249.95 493.585 248.856 492.927C246.449 491.392 243.167 494.9 242.073 496.654C237.26 505.424 243.824 519.894 244.699 529.76C246.668 553.658 237.041 604.524 218.005 620.748C205.314 631.491 181.903 618.994 170.306 610.663C158.71 602.331 159.804 599.7 153.24 595.096C146.676 590.492 121.732 578.652 113.855 577.775C102.696 576.46 100.727 587.422 100.727 596.192C100.727 617.898 109.26 635.657 108.166 659.335C106.416 696.388 92.1939 727.083 87.3803 763.697C86.9427 766.328 87.3803 768.959 87.3803 771.37C86.7239 772.247 81.6915 769.397 81.4727 767.862C83.8795 756.023 84.3171 743.088 86.7239 731.467C89.1307 720.067 94.8196 709.324 97.4452 698.142C101.384 681.479 103.353 654.293 102.04 637.411C100.727 620.529 93.5068 608.689 95.9136 588.08C98.3204 567.471 129.171 575.802 143.394 583.257C164.399 594.219 171.4 610.882 195.906 617.898C220.412 624.914 209.034 622.283 215.817 614.828C232.884 596.411 240.323 552.343 238.354 528.006C237.478 517.044 229.383 499.066 239.448 490.296C254.326 477.141 256.077 502.355 264.61 509.151C270.736 514.194 296.117 520.991 305.526 524.937C314.934 528.883 323.467 539.407 328.062 525.376C332.657 511.344 324.78 505.424 324.343 496.435C323.249 468.371 349.724 457.848 345.129 428.249C343.378 416.41 333.97 413.121 326.531 405.886C305.745 385.935 270.736 342.085 287.146 311.829C298.524 290.782 329.813 296.482 349.067 296.043C384.294 295.166 413.833 282.45 449.06 301.086C484.287 319.722 458.906 310.295 459.562 310.514C464.157 312.049 473.784 312.487 479.911 314.46C499.165 320.161 505.729 326.738 521.046 337.481C536.362 348.224 537.674 344.936 554.741 347.786C571.808 350.636 583.185 370.587 593.25 379.576C619.288 402.817 642.043 416.41 671.581 433.511C703.307 451.928 724.531 472.099 751.663 495.339C778.794 518.579 785.358 514.194 804.832 526.253C824.305 538.311 827.149 564.182 840.715 587.203C855.156 611.539 882.725 609.566 901.323 591.369V590.711Z" fill="#231710"/>
<path d="M303.338 677.313C309.245 683.452 325.655 689.81 333.751 694.853C341.847 699.896 367.884 721.163 372.917 729.275C377.949 737.387 381.45 756.023 382.982 764.573C386.92 788.033 386.045 816.754 391.952 839.775C397.86 862.796 421.709 864.769 441.183 860.384C460.437 855.999 466.345 850.738 487.35 856.876C508.355 863.015 519.951 866.085 517.326 885.159C514.7 904.234 514.481 898.095 514.044 898.533C513.169 899.63 509.23 900.068 508.355 899.41C505.729 897.875 512.293 886.475 512.512 883.186C512.95 874.855 509.23 872.004 502.666 868.716C472.909 854.245 468.095 860.384 439.214 866.523C418.865 870.908 393.046 865.427 386.701 842.845C380.356 820.262 381.231 797.899 379.043 777.948C376.855 757.996 373.792 742.649 368.103 733.002C362.414 723.355 343.597 708.446 338.565 704.719C312.965 685.864 267.017 677.313 257.608 642.672C250.825 617.24 262.422 567.69 291.522 560.893C302.9 558.262 342.066 561.99 355.194 563.744C368.322 565.498 371.166 570.54 378.387 565.717C385.607 560.893 389.764 551.466 392.39 543.792C395.016 536.118 396.328 532.611 391.077 525.814C385.826 519.017 381.012 520.771 375.542 518.359C355.631 508.932 344.472 485.692 359.57 466.837C374.667 447.981 384.294 445.789 383.2 433.73C382.106 421.672 364.383 397.774 359.132 389.442C352.787 379.357 342.503 371.026 343.378 358.09C344.254 345.155 377.293 331.123 391.296 329.15C433.087 323.011 464.813 349.101 500.259 364.887C513.169 370.806 528.047 373.657 540.081 380.673C571.808 399.309 589.53 417.287 613.817 443.596C638.104 469.906 644.012 463.767 660.422 476.703C676.832 489.638 674.863 493.146 681.646 497.531C688.429 501.916 698.494 504.547 705.714 508.274C761.509 536.995 766.76 594.877 744.661 649.031C722.562 703.184 718.186 677.313 700.025 696.826C670.05 728.836 692.149 782.113 684.49 821.358C681.427 837.363 673.769 857.096 663.048 869.373C652.327 881.651 654.952 877.486 647.951 877.924L666.986 853.368C693.243 807.107 669.174 765.231 680.771 719.847C692.367 674.463 723.437 681.479 737.659 650.565C751.881 619.651 757.57 561.99 727.594 530.199C697.619 498.408 693.243 512.001 679.02 502.135C664.798 492.269 662.173 484.815 654.077 478.676C645.981 472.537 632.416 467.275 622.132 459.163C607.691 447.762 599.158 431.757 585.811 419.698C572.464 407.64 539.644 385.277 525.859 379.796C512.075 374.314 516.888 377.384 512.95 375.849C467.22 357.213 423.897 319.064 371.604 339.893C319.31 360.721 342.941 353.925 353.224 370.807C362.852 386.812 381.669 408.298 387.358 426.057C396.985 456.532 353.224 462.89 359.132 492.05C362.195 507.616 377.949 510.686 389.327 516.386C409.457 526.691 396.766 560.236 381.887 570.102C367.009 579.968 361.101 569.882 351.036 568.567C340.972 567.251 307.714 563.963 295.461 565.498C269.642 568.348 257.608 616.801 262.859 638.068C268.548 660.87 284.083 668.105 303.338 677.094C303.338 677.094 303.338 675.559 302.681 675.121C289.334 662.185 283.864 659.335 282.333 638.726C277.957 579.968 331.125 566.813 378.387 580.406C387.139 582.818 404.643 594.877 407.268 578.652C409.894 562.428 404.643 560.893 408.581 548.396C412.52 535.899 422.147 530.857 423.679 520.552C425.21 510.247 422.366 510.467 413.395 508.055C404.424 505.643 392.828 505.862 383.638 501.039C374.448 496.216 370.072 486.13 374.448 473.195C378.824 460.259 397.641 450.612 407.706 441.185C417.771 431.757 417.552 431.319 411.863 421.233C402.455 404.57 378.605 382.427 381.012 360.721C383.419 339.016 390.858 349.978 400.267 350.636C434.181 353.047 469.846 386.373 504.635 395.362C510.324 396.897 516.451 396.897 522.358 398.651C538.987 403.913 563.931 433.073 578.809 445.131C598.501 461.136 627.164 481.526 649.701 493.146C672.238 504.766 715.779 517.921 725.844 552.562C729.782 565.936 732.408 590.272 733.721 604.743C735.471 626.229 733.721 642.672 719.499 659.993C694.993 690.03 664.579 671.613 657.578 638.945C654.296 624.475 656.046 608.689 653.421 594.657C649.482 572.294 630.446 585.668 619.287 594.219C608.129 602.769 598.72 614.39 594.782 627.544C589.749 644.646 592.594 677.533 570.057 681.479C547.52 685.425 543.144 678.848 543.801 692.88C544.457 707.789 571.589 724.451 580.997 735.633C594.563 752.076 603.971 776.632 591.281 796.145C578.59 815.658 557.804 817.412 541.394 813.027C524.984 808.642 514.919 794.391 505.511 794.391C496.102 794.391 484.287 805.792 475.316 809.081C458.249 815.439 439.87 810.835 425.429 800.749C396.766 781.017 402.674 757.119 391.515 728.398C380.356 699.676 365.696 706.692 339.002 694.853C312.308 683.014 315.153 681.918 303.338 676.436V677.313ZM390.202 356.775C386.482 357.871 387.139 363.352 387.358 366.641C387.795 375.63 395.016 388.346 400.048 396.02C409.457 410.709 431.118 426.276 414.708 443.377C398.298 460.478 387.139 463.329 383.638 469.248C380.137 475.168 382.325 474.072 381.45 476.483C378.387 483.719 373.792 487.446 382.544 494.462C399.173 507.397 442.058 494.023 426.961 529.541C423.022 538.749 414.489 543.573 412.739 555.193C410.988 566.813 417.99 579.31 407.268 589.615C396.547 599.919 383.857 588.08 373.573 585.449C327.406 573.171 280.363 588.518 288.678 644.207C292.179 667.447 316.903 679.287 336.377 687.837C366.571 701.211 384.294 692.003 397.641 728.398C410.988 764.793 402.017 781.894 433.744 799.653C465.47 817.412 461.094 810.396 476.629 803.38C492.164 796.364 497.196 785.183 515.575 792.199C533.955 799.215 542.488 818.289 572.902 805.134C603.315 791.979 592.812 759.969 577.059 741.114C561.305 722.259 528.922 704.5 539.862 684.987C550.803 665.474 572.464 685.645 580.778 667.009C589.093 648.373 583.185 626.667 602.44 603.427C621.694 580.187 647.513 562.647 657.14 587.422C666.768 612.197 659.766 620.967 662.61 635.437C667.862 661.089 689.523 684.329 712.935 659.554C729.782 641.795 729.564 622.282 727.157 599.261C724.75 576.241 724.094 570.979 721.687 559.359C714.466 522.744 672.675 512.659 644.669 497.75C603.534 475.826 574.871 447.543 540.3 418.164C522.358 402.816 520.827 406.544 499.822 400.843C478.817 395.143 452.779 377.165 430.243 366.202C407.706 355.24 398.735 354.144 389.546 356.775H390.202Z" fill="#231710"/>
<path d="M852.53 771.809C851.873 771.37 849.248 762.6 844.653 758.215C836.557 750.98 827.805 747.253 817.084 751.638C806.363 756.023 793.891 775.974 778.356 766.547C762.821 757.119 765.884 736.51 768.729 723.136C771.573 709.762 777.918 705.596 766.541 703.623C755.163 701.65 747.724 704.061 744.223 700.773C736.565 693.538 753.413 670.736 756.913 663.062C760.414 655.389 772.23 631.052 773.324 623.598C774.418 616.143 771.354 601.015 773.761 588.299C776.168 575.583 784.701 567.032 785.139 561.77C786.014 548.177 767.416 544.888 759.758 537.653C752.1 530.418 754.725 530.637 751.881 527.568C729.563 503.889 707.245 487.226 680.989 468.152C660.641 453.462 637.666 445.789 619.068 429.126C609.441 420.356 602.877 410.052 591.718 402.816C580.559 395.581 575.964 395.801 568.306 391.416C551.021 381.55 535.048 368.614 516.888 358.748C484.943 341.647 445.996 331.342 411.207 322.572C401.798 320.16 393.484 315.337 383.419 314.679C367.446 313.583 332.438 320.38 323.029 334.192C313.621 348.005 319.966 363.352 324.342 370.806C328.718 378.261 341.628 384.4 347.754 389.442C353.88 394.485 370.728 416.41 372.26 423.864C376.636 445.131 349.067 461.136 347.316 482.622C345.566 504.108 354.099 510.467 361.101 528.664C372.26 557.824 343.378 561.332 321.935 555.193C305.744 550.589 288.678 529.76 271.611 523.621C254.544 517.482 259.358 525.375 257.389 530.418C251.262 546.423 254.982 567.909 253.669 584.572C252.356 601.235 245.136 622.502 238.353 630.395C231.57 638.287 202.907 637.41 191.748 633.025C172.056 625.133 153.896 601.673 136.391 593.78C126.764 589.395 122.169 590.492 118.887 601.235C113.417 619.871 124.139 635.437 125.451 653.196C127.202 677.533 115.387 696.169 108.385 718.093C101.383 740.018 98.32 759.092 99.1952 779.921C93.7251 781.236 92.8499 771.589 92.8499 767.862C92.6311 734.975 108.385 709.981 116.481 681.041C122.169 661.089 118.231 650.565 114.292 631.71C110.354 612.855 107.072 588.518 127.202 585.668C132.891 584.791 138.142 588.518 142.956 591.588C163.523 604.743 184.09 629.298 210.128 631.71C236.165 634.122 237.697 626.448 243.604 605.62C249.512 584.791 245.792 566.813 248.418 546.423C256.732 482.622 302.681 547.3 330.031 551.685C338.346 553 356.068 553.658 358.257 542.915C360.445 532.172 347.973 518.579 344.91 509.59C341.846 500.601 339.877 487.446 342.065 477.141C346.222 456.97 375.104 441.623 363.727 419.26C352.349 396.897 341.628 395.143 327.843 382.646C314.059 370.149 312.308 355.898 314.715 340.112C317.122 324.326 344.91 314.679 359.788 311.61C385.826 306.129 392.827 312.048 416.239 318.187C462.406 330.027 500.259 341.208 541.394 366.422C582.528 391.635 570.932 384.838 589.092 394.266C609.879 405.228 623.007 427.811 646.856 441.623C686.678 464.863 724.75 489.2 756.257 523.402C787.764 557.605 761.508 531.514 765.228 534.584C772.011 540.065 781.857 541.161 787.108 549.493C797.392 565.498 780.982 576.898 779.231 592.684C777.481 608.47 780.106 606.716 779.888 613.513C779.45 638.945 758.883 666.57 749.693 689.372C740.503 712.174 745.536 696.388 750.131 697.046C754.725 697.703 762.602 697.046 768.51 698.58C787.546 703.623 773.761 720.505 772.667 734.537C771.792 747.911 777.043 770.274 794.547 760.846C812.051 751.419 812.708 741.991 831.744 744.622C840.277 745.718 858.656 760.189 858.656 769.397C858.656 778.605 854.061 772.905 852.53 771.809Z" fill="#231710"/>
<path d="M334.845 -347.226C324.999 -337.799 315.371 -329.906 310.558 -316.313C305.744 -302.719 309.683 -284.522 300.055 -271.148C290.428 -257.774 274.018 -256.458 266.141 -247.25C258.264 -238.041 266.141 -222.694 258.702 -209.539C251.263 -196.385 241.198 -195.288 233.54 -188.492C225.882 -181.695 231.57 -186.957 232.008 -185.422C242.073 -182.791 251.481 -182.791 261.327 -185.861C271.173 -188.93 281.676 -198.139 291.741 -202.743C316.028 -213.267 357.163 -211.732 377.292 -192.877C389.983 -180.818 402.236 -159.113 398.297 -141.354C394.359 -123.595 384.075 -112.632 387.795 -103.643C391.514 -94.6542 422.147 -89.173 430.242 -81.0609C438.338 -72.9487 431.555 -56.286 421.709 -49.7086C404.643 -38.3078 368.321 -26.6877 347.754 -29.0994C327.187 -31.5111 336.376 -38.3078 331.563 -42.2542C321.717 -50.3663 308.807 -62.8634 297.211 -66.5906C285.614 -70.3178 243.604 -79.7454 228.288 -78.4299C212.972 -77.1144 205.314 -70.3178 206.627 -52.7781C208.596 -25.3722 240.322 -2.13208 240.104 26.1507C239.885 51.1449 197.875 75.7005 181.027 89.7323C164.179 103.764 151.051 121.962 142.299 136.213C133.547 150.464 113.417 197.821 98.5389 209.222C83.6604 220.623 78.4091 214.484 68.563 205.714C51.4965 190.147 58.4981 180.281 56.3101 160.11C52.5905 123.277 18.895 61.011 -18.9577 50.2679C-56.8104 39.5248 -66.0001 58.38 -84.3794 35.7976C-102.759 13.2152 -87.8803 25.9315 -96.1947 23.5198C-104.509 21.1081 -106.26 24.616 -111.73 26.8085C-111.948 26.5892 -109.979 20.6696 -109.76 20.2311C-107.354 16.5039 -95.5383 17.8194 -91.3811 19.5733C-82.1914 23.5198 -81.3162 32.0704 -73.8769 37.99C-60.9676 48.0754 -48.2771 41.0595 -34.4926 41.498C5.76691 43.0327 26.7719 74.8235 44.4948 106.395C53.9033 123.277 61.1238 147.833 62.6554 167.126C64.187 186.42 58.7169 191.243 75.3459 203.96C91.9748 216.676 94.3816 206.152 102.258 195.409C122.607 167.565 131.797 135.774 156.084 107.272C174.025 86.0051 192.624 76.139 212.316 58.38C232.008 40.621 235.946 35.3591 233.54 21.3273C228.507 -7.17475 200.282 -26.2492 200.063 -56.7245C200.063 -73.6065 208.596 -81.7186 225.006 -83.4726C242.948 -85.4458 286.052 -76.4567 303.994 -70.0985C312.527 -67.0291 327.843 -52.7781 335.72 -46.2007C343.597 -39.6233 344.91 -35.0191 349.942 -34.1421C366.352 -31.5111 411.644 -46.4199 423.459 -58.2592C443.808 -79.0877 404.424 -85.0073 392.171 -92.0232C365.258 -107.59 397.203 -132.803 393.484 -155.385C389.764 -177.968 380.137 -181.476 374.667 -186.957C358.038 -203.839 323.905 -206.689 302.243 -200.55C280.582 -194.411 271.173 -179.503 251.263 -177.968C231.352 -176.433 227.851 -177.749 225.882 -184.326C223.912 -190.903 238.134 -198.139 243.386 -202.743C248.637 -207.347 256.295 -215.24 257.17 -221.598C258.045 -227.956 256.076 -229.929 256.076 -234.314C256.076 -258.87 280.363 -259.089 293.491 -272.682C306.619 -286.276 300.712 -302.719 303.775 -315.874C306.619 -327.494 320.841 -348.98 334.845 -347.446V-347.226Z" fill="#231710"/>
<path d="M187.154 -104.959C177.965 -95.7504 187.811 -72.0717 188.686 -60.4517C189.561 -48.8316 182.122 -30.8533 183.653 -17.4793C185.185 -4.10524 192.843 2.47216 194.156 12.119C199.407 51.3642 158.272 73.9466 137.486 100.475C116.7 127.004 116.919 138.624 106.198 162.741C95.4763 186.859 90.0062 199.136 79.2849 185.105C67.2508 169.538 86.0678 117.577 83.8797 96.3097C82.3481 80.9625 71.6268 78.77 67.2508 67.8077C62.8748 56.8453 66.8132 32.2897 56.3107 28.3433C45.8082 24.3968 47.121 27.6855 42.5262 25.493C37.9314 23.3006 36.8374 21.3274 36.3998 21.1081C26.3349 12.119 28.0853 1.37592 14.082 -4.98224C0.0786434 -11.3404 -44.3381 -22.9605 -60.0919 -23.1797C-75.8456 -23.399 -78.0336 -19.891 -87.4421 -20.9873C-89.1925 -27.7839 -81.972 -25.5914 -78.0336 -26.2492C-51.7774 -30.4148 -8.23583 -21.645 16.27 -10.2442C40.7758 1.15665 30.4921 10.5843 42.3074 18.4772C54.1227 26.37 64.4064 18.4772 69.22 37.7709C74.0337 57.0646 69.22 56.8453 72.5021 65.1767C75.7841 73.5081 81.9105 75.7006 84.9738 81.1817C98.1019 103.545 78.8473 147.613 82.3481 175.458C85.849 203.302 92.6318 177.87 96.3515 170.854C111.011 144.544 112.98 122.839 133.548 96.7482C154.115 70.6579 196.125 46.1022 188.029 10.5843C179.934 -24.9337 181.247 -3.44753 179.496 -10.2442C175.12 -26.9069 184.529 -44.6659 182.778 -63.0826C181.247 -79.9646 168.337 -105.616 192.405 -112.632C216.474 -119.648 216.255 -103.863 233.978 -100.574C251.701 -97.2851 252.357 -98.3813 270.08 -90.4884C287.803 -82.5956 300.712 -92.9002 318.873 -90.927C337.033 -88.9537 328.719 -86.3228 333.97 -85.0073C339.221 -83.6918 343.16 -84.3495 347.098 -83.4726C351.037 -82.5956 371.604 -73.168 369.854 -83.911C368.103 -94.6541 354.538 -96.6274 354.319 -106.274C353.881 -121.621 374.23 -138.284 370.948 -154.289C370.51 -156.701 368.103 -159.77 366.791 -161.744C355.413 -178.845 334.627 -183.888 315.372 -177.968C296.118 -172.048 288.241 -147.273 264.172 -153.632C240.104 -159.99 261.547 -155.824 259.359 -156.262C241.855 -159.551 236.166 -140.915 218.005 -152.755C197.657 -165.909 196.563 -188.492 207.722 -208.224C216.255 -223.571 227.195 -236.288 231.133 -254.266C235.072 -272.244 227.414 -284.741 215.598 -292.415C203.783 -300.088 202.689 -296.8 201.158 -297.896C199.626 -298.992 199.407 -302.062 201.158 -303.158C202.908 -304.254 211.222 -301.185 213.192 -300.308C228.727 -293.949 240.323 -272.682 237.697 -256.02C235.072 -239.357 219.537 -219.186 210.566 -201.208C201.595 -183.23 206.628 -168.54 221.287 -158.016C235.947 -147.493 235.947 -158.455 247.325 -161.086C258.702 -163.717 254.545 -162.401 256.296 -162.401C261.547 -162.401 267.892 -157.578 271.831 -157.578C283.427 -157.578 295.242 -174.46 306.182 -179.941C327.625 -190.903 356.288 -187.176 370.729 -166.786C385.17 -146.396 377.949 -145.958 371.604 -131.488C365.259 -117.017 364.384 -120.306 362.414 -115.263C356.288 -99.9161 367.447 -102.547 372.698 -92.9002C377.949 -83.2533 377.949 -76.0182 370.51 -73.6065C363.071 -71.1947 354.319 -76.6759 346.661 -78.2107C339.003 -79.7454 337.909 -78.2106 332.439 -79.7454C326.969 -81.2801 322.155 -85.4458 318.435 -85.8843C308.589 -86.7613 297.649 -79.5261 286.053 -80.6223C274.456 -81.7186 270.299 -85.4458 260.672 -89.8307C247.106 -95.9696 233.978 -92.4617 221.287 -98.8198C208.597 -105.178 209.691 -107.809 204.877 -108.686C200.064 -109.563 190.655 -106.713 188.248 -104.301L187.154 -104.959Z" fill="#231710"/>
<path d="M580.559 -349.419C580.559 -349.419 580.559 -345.911 581.216 -344.157C582.529 -340.868 589.749 -333.194 592.375 -329.029C600.908 -315.216 605.284 -298.553 614.036 -285.399C622.788 -272.244 639.636 -255.8 651.014 -241.33C666.549 -221.817 680.552 -200.55 696.306 -181.476C707.902 -167.225 732.189 -147.493 728.469 -126.883C725.406 -109.344 698.056 -91.3654 680.989 -92.4616C645.106 -94.8733 628.039 -135.215 596.532 -146.177C598.501 -127.541 616.881 -115.263 628.039 -101.451C639.198 -87.6382 646.2 -70.5369 656.046 -63.3018C665.892 -56.0667 683.834 -54.7512 696.524 -47.0775C709.215 -39.4039 718.405 -22.7411 730.876 -13.0943C743.348 -3.44743 755.163 2.47221 760.633 -4.10519C766.103 -10.6826 768.948 -41.5964 771.136 -50.3662C775.731 -69.8792 781.857 -97.285 793.235 -113.29C804.612 -129.295 855.812 -156.701 879.224 -136.53C902.636 -116.359 893.227 -114.167 901.104 -111.098C919.265 -104.082 937.863 -114.825 953.617 -102.766C960.837 -97.285 964.775 -85.8842 970.683 -78.8683C976.591 -71.8524 987.75 -68.3445 996.939 -61.9863C1006.13 -55.6281 1005.03 -54.0934 1009.63 -51.6817C1014.22 -49.27 1020.79 -49.4893 1019.48 -44.6658C1018.16 -39.8424 1002.63 -49.7085 1000 -51.4625C997.377 -53.2164 994.314 -57.6014 992.344 -58.6976C986.218 -62.4248 978.56 -63.7403 972.215 -68.783C965.869 -73.8256 959.962 -86.3227 953.617 -94.4348C943.552 -107.37 926.923 -101.889 912.701 -102.985C898.478 -104.082 897.603 -105.178 891.696 -110.44C878.13 -131.268 867.627 -144.642 840.496 -137.407C778.137 -120.744 783.17 -61.1093 768.729 -10.4633C754.288 40.1827 762.384 5.32241 749.037 2.9107C724.75 -1.25499 711.841 -30.4148 694.555 -41.3771C677.27 -52.3395 664.142 -49.27 652.326 -58.0399C641.168 -66.152 632.634 -85.665 623.226 -97.285C613.817 -108.905 589.968 -127.76 589.968 -145.739C589.968 -149.246 591.062 -151.22 594.563 -151.439C611.629 -152.974 639.855 -119.21 654.077 -109.124C668.299 -99.039 684.272 -93.7771 702.87 -104.959C721.468 -116.14 722.343 -121.183 722.781 -131.049C723.437 -146.835 697.4 -170.075 687.554 -182.572C673.55 -200.331 660.86 -219.625 646.638 -237.164C632.415 -254.704 622.132 -263.693 612.286 -277.287C601.564 -291.757 597.188 -309.297 588.218 -324.644C579.247 -339.991 571.37 -346.13 574.433 -349.199C575.746 -349.199 580.341 -349.638 580.778 -349.199L580.559 -349.419Z" fill="#231710"/>
<path d="M40.1186 -46.8583C14.9564 -63.9595 -16.1135 -73.8256 -46.0893 -79.7453C-48.4961 -80.1838 -51.1217 -79.9645 -53.7474 -79.9645C-54.4038 -80.403 -52.6534 -84.1302 -51.5593 -84.788C-48.4961 -86.7612 -27.2723 -80.6223 -22.4587 -79.3068C25.2401 -67.6867 64.4056 -44.8851 89.7866 -1.47425C98.1011 12.7768 101.602 28.5626 115.824 38.8672C130.046 49.1717 131.14 49.1717 140.33 43.4713C161.554 30.755 155.865 7.07638 157.178 -13.3136C158.49 -33.7035 167.461 -61.7671 157.178 -83.034C150.176 -97.9428 128.733 -108.247 135.735 -126.226C140.986 -139.6 164.617 -137.407 172.494 -153.412C178.839 -166.348 172.494 -170.513 169.868 -183.01C167.242 -195.508 167.68 -194.192 167.461 -197.481C167.242 -217.432 194.593 -233.437 199.406 -255.8C204.22 -278.164 195.468 -266.324 189.998 -268.517C162.429 -281.014 146.894 -253.169 129.39 -238.261C111.886 -223.352 102.477 -220.063 82.5661 -222.036C62.6552 -224.01 75.7833 -222.694 76.8773 -224.667C79.5029 -229.71 91.7558 -226.86 97.2259 -227.518C131.797 -231.683 147.769 -288.468 188.466 -275.533C214.504 -267.201 204.22 -246.154 192.842 -229.71C180.589 -211.951 169.868 -212.17 174.901 -186.299C177.745 -172.048 185.184 -165.909 177.526 -150.343C169.868 -134.776 159.366 -137.626 147.331 -130.172C127.858 -118.113 152.364 -102.108 159.584 -90.0499C173.588 -67.029 164.836 -42.4734 162.866 -17.6985C161.116 3.56843 166.586 28.3433 147.988 44.3483C134.86 55.5299 124.576 52.6797 111.448 43.2521C98.3199 33.8245 94.6002 20.2312 86.2858 5.32241C77.9713 -9.58637 57.8415 -34.3612 39.2434 -47.0775L40.1186 -46.8583Z" fill="#231710"/>
<path d="M-66.2187 599.481C-68.6256 601.892 -69.5008 594.219 -69.282 592.684C-67.5316 578.433 -40.1813 554.754 -30.5541 543.134C-15.6755 525.375 -2.54742 508.932 16.2695 494.242C35.0865 479.553 34.8677 482.622 42.9634 475.826C56.7479 464.206 69.4384 448.201 83.2229 436.361C95.257 419.26 90.4434 402.378 97.0074 384.838C103.571 367.299 110.573 362.914 116.7 351.951C122.826 340.989 123.482 339.673 123.701 339.016C125.233 330.246 99.8518 321.914 92.8502 321.695C63.9683 321.257 59.1547 349.54 50.1838 369.491C33.7737 406.105 4.45424 435.704 -18.3011 468.152C-39.7437 498.627 -43.901 527.787 -91.1622 514.632C-138.423 501.477 -116.543 499.504 -119.388 495.119C-122.232 490.734 -121.357 487.884 -121.794 485.911C-121.138 485.253 -113.918 491.392 -112.824 492.269C-105.165 499.066 -97.5074 506.959 -87.2237 509.59C-46.089 520.333 -41.9317 491.611 -22.896 464.425C-1.4534 433.73 28.5224 403.036 44.2762 368.614C52.5906 350.417 54.1223 329.588 74.9084 320.38C89.3494 314.022 105.759 315.776 119.106 323.888C132.453 332 127.421 345.155 119.982 358.09C112.542 371.026 107.948 374.972 103.79 383.961C93.2878 407.64 103.79 426.276 80.3785 448.858C65.0623 463.548 49.7462 476.922 32.6797 489.419C5.32944 509.37 -9.54908 527.787 -30.9917 553C-52.4342 578.214 -51.559 571.417 -58.9983 583.914C-66.4376 596.411 -65.5623 598.823 -66.2187 599.262V599.481Z" fill="#231710"/>
<path d="M201.376 706.912L218.88 694.415C227.195 689.591 247.981 679.944 257.171 680.821C273.362 682.137 285.615 695.292 298.305 702.965C325.218 719.409 350.818 717.874 365.04 751.857C372.479 769.835 367.884 784.964 369.416 803.161C370.948 820.701 381.669 829.909 367.228 847.23C359.351 856.657 345.567 857.753 345.348 873.539C345.348 880.336 350.161 886.913 356.288 889.763C362.414 892.614 364.165 890.202 363.946 894.148C356.725 893.052 350.818 894.148 345.348 888.448C339.878 882.747 339.003 868.277 343.16 860.165C347.317 852.053 361.977 848.764 367.009 836.706C372.042 824.647 367.666 824.866 365.696 815.439C359.132 786.717 371.823 764.354 350.599 738.045C329.375 711.735 310.996 717.216 296.774 708.885C282.552 700.553 283.427 698.361 275.112 693.757C262.203 686.96 256.952 684.987 242.511 689.591C217.349 697.703 187.154 724.013 164.399 738.483C141.643 752.953 135.517 755.584 125.014 745.28C114.512 734.975 123.702 702.307 126.984 686.302C130.266 670.297 128.078 655.827 131.578 641.357C135.079 626.887 137.048 628.641 137.486 626.01C137.924 623.379 135.954 622.282 137.048 620.528C138.142 618.774 146.019 615.047 147.989 614.609C163.523 611.32 168.775 625.352 179.277 632.806C189.78 640.261 208.815 643.549 214.942 654.073C221.068 664.597 216.692 675.779 212.535 687.399L201.814 706.692L201.376 706.912ZM146.457 623.379C133.11 636.533 135.736 665.474 133.11 683.014C130.484 700.554 125.89 707.131 124.796 718.97C123.702 730.81 123.264 737.168 131.141 741.991C139.018 746.815 141.424 743.307 146.676 741.991C156.959 738.702 189.561 712.612 196.781 703.842C204.002 695.072 214.723 673.586 211.66 660.651C208.597 647.715 186.935 644.865 177.746 638.945C168.556 633.026 160.023 617.897 150.833 619.871C141.643 621.844 147.989 622.063 146.457 623.379Z" fill="#231710"/>
<path d="M1061.7 130.951C1046.61 123.058 1024.95 112.753 1008.1 108.588C992.782 104.86 985.78 112.096 973.527 118.454C940.926 135.993 890.601 163.838 852.968 160.768C815.334 157.699 831.963 150.902 836.995 136.432C842.027 121.962 860.844 123.496 863.032 107.711C863.47 104.203 861.938 101.791 861.938 99.3792C862.157 93.6788 863.251 83.3742 864.783 78.1123C869.597 61.6688 891.039 59.9148 905.48 61.011C940.926 63.8613 995.189 102.01 1019.69 59.6956C1026.04 48.514 1035.01 21.7659 1045.29 14.75C1055.58 7.73412 1052.95 12.996 1052.08 17.381C1051.2 21.7659 1047.26 21.1082 1045.95 22.8621C1026.26 46.3215 1029.98 80.9625 990.594 85.3474C951.21 89.7324 907.887 55.7491 879.661 69.7809C859.75 79.647 876.379 110.342 861.063 123.935C845.747 137.528 843.559 132.705 842.246 140.817C840.933 148.929 841.371 152.875 846.404 154.41C851.436 155.945 867.846 155.506 874.191 154.629C892.352 152.656 917.514 140.817 934.362 132.924C951.21 125.031 986.874 100.037 1005.47 102.229C1024.07 104.422 1058.42 121.742 1072.86 130.293C1087.3 138.844 1089.05 138.405 1087.96 142.571C1086.87 146.737 1080.3 141.036 1078.77 140.159C1073.3 136.87 1067.61 134.02 1061.92 131.17L1061.7 130.951Z" fill="#231710"/>
<path d="M268.548 849.861C284.521 856 298.743 864.77 305.307 881.432C295.023 880.775 294.586 872.443 288.022 866.743C281.458 861.043 265.266 855.561 263.516 852.93C261.766 850.299 263.078 846.353 263.735 844.818C268.111 834.952 303.119 832.102 313.184 831.225C323.249 830.348 340.315 832.76 348.411 819.166C356.507 805.573 349.724 808.204 347.536 798.996C344.473 785.183 354.1 769.836 345.785 758.654C337.471 747.473 330.688 751.419 323.905 749.007C317.122 746.596 308.37 740.018 303.557 735.195C293.054 724.671 293.273 715.463 277.957 708.666C244.48 693.976 232.446 712.832 206.409 728.617C198.094 733.66 184.747 741.553 176.433 745.719C168.118 749.884 153.459 752.515 142.737 758.216C132.016 763.916 118.888 783.21 101.603 783.868C101.603 782.771 101.384 781.456 101.603 780.36C101.821 779.263 111.011 775.756 113.418 774.221C121.295 769.178 126.327 761.285 134.423 756.243C146.676 748.569 161.336 746.596 174.026 740.238C186.717 733.879 195.469 728.179 204.877 722.698C232.665 706.035 245.137 687.618 281.239 703.404C298.305 710.859 302.9 730.591 319.092 740.238C335.283 749.884 347.317 745.061 353.444 761.505C359.57 777.948 351.912 780.14 352.568 791.761C353.225 803.381 360.008 806.669 354.975 819.166C343.597 847.23 293.929 830.348 271.83 845.257C249.731 860.165 267.673 848.765 268.548 849.861Z" fill="#231710"/>
<path d="M1077.9 450.832C1076.8 451.928 1072.43 452.147 1070.46 453.243C1056.24 460.478 1049.67 477.58 1045.29 492.269C1040.92 506.959 1045.29 532.611 1038.95 549.054C1036.98 554.097 1033.04 554.974 1033.04 549.493C1033.04 544.011 1035.67 537.872 1035.89 532.611C1036.98 519.237 1035.23 508.055 1038.51 494.242C1043.33 474.51 1053.83 448.858 1076.8 446.447C1074.18 445.131 1073.74 441.404 1072.21 439.869C1064.77 431.757 1033.04 439.211 1023.41 442.5C1013.79 445.789 1005.47 448.639 1007.66 463.109C1009.85 477.58 1018.38 485.034 1016.85 501.258C1014.44 524.279 992.345 516.167 979.217 525.595C966.089 535.022 966.308 542.477 965.432 552.781C963.682 574.925 965.214 604.304 967.62 626.229C970.027 648.154 971.121 645.961 972.653 655.827L967.402 662.624C965.651 645.303 961.056 627.983 959.962 610.443C959.306 600.577 959.962 590.053 959.962 579.968C959.743 556.728 954.711 528.883 981.624 517.702C1008.54 506.52 1003.29 514.194 1007.66 508.932C1020.79 493.146 993.658 465.083 1002.63 447.981C1006.79 440.088 1026.26 435.484 1034.57 433.73C1042.89 431.976 1066.3 427.153 1075.49 435.703C1084.68 444.254 1080.74 447.324 1077.24 450.832H1077.9Z" fill="#231710"/>
<path d="M297.43 753.83C310.121 766.327 330.032 773.563 332.657 794.829C335.721 818.508 311.652 814.781 295.68 817.631C279.707 820.481 267.673 823.112 256.733 830.128C245.793 837.144 242.511 841.968 244.699 854.465C246.887 866.962 247.981 859.288 248.637 862.577C235.509 861.7 236.166 845.475 240.979 836.486C252.795 815.219 295.242 813.685 315.81 809.519C336.377 805.353 327.625 805.134 326.093 794.829C323.686 776.194 304.432 769.616 293.054 758.435C281.677 747.253 278.613 733.002 261.766 724.671C238.791 713.489 233.759 726.863 218.005 738.045C202.251 749.226 190.655 755.804 177.746 760.846C164.836 765.889 156.741 766.327 145.801 774.001C134.861 781.675 130.922 784.963 124.796 789.787C118.669 794.61 122.608 794.83 118.888 794.61C115.168 794.391 115.825 790.664 117.575 788.471C131.797 779.482 142.081 767.424 157.835 761.066C181.903 751.419 191.968 748.568 214.067 733.221C231.352 721.382 238.791 708.227 263.297 718.97C287.803 729.713 284.083 741.333 296.993 754.05L297.43 753.83Z" fill="#231710"/>
<path d="M1089.71 409.175C1086.87 409.613 1085.55 407.859 1084.02 406.105C1077.46 399.528 1067.61 385.058 1064.11 376.726C1060.61 368.395 1058.86 355.021 1053.61 348.224C1048.36 341.428 1029.76 335.508 1021.66 330.904C1004.82 321.257 979.216 299.332 979.435 278.285C979.654 257.237 987.312 266.664 995.407 259.429C1003.5 252.194 1002.85 246.932 1006.57 242.109C1018.6 225.665 1074.39 192.121 1094.74 194.532C1115.09 196.944 1099.78 197.821 1096.28 199.356C1092.77 200.89 1090.59 199.575 1087.74 200.233C1067.39 204.179 1024.29 229.173 1011.38 245.836C998.471 262.499 1005.69 256.579 1002.41 260.964C994.095 271.707 980.748 266.445 986.874 287.054C993.001 307.664 1011.82 317.749 1022.98 324.546C1034.14 331.342 1054.7 336.385 1061.27 349.32C1067.83 362.256 1068.71 375.192 1078.77 389.662C1083.15 396.02 1091.24 401.063 1090.15 409.394L1089.71 409.175Z" fill="#231710"/>
<path d="M223.475 852.053C214.504 852.93 218.224 840.652 220.85 835.39C231.79 813.685 260.234 807.984 278.395 794.172C291.96 783.867 288.46 775.536 278.395 763.916C263.954 747.253 244.918 741.552 223.913 747.911C202.908 754.269 205.534 770.055 190.874 776.851C176.214 783.648 142.956 778.824 134.204 804.695C122.827 804.038 135.298 790.883 139.455 787.375C151.927 776.851 168.994 777.947 183.653 773.782C198.094 769.616 197.657 757.777 207.94 749.665C218.005 741.991 237.916 737.825 250.169 739.798C262.422 741.772 288.897 761.065 293.273 775.536C295.899 784.525 290.429 792.418 283.427 797.899C265.267 811.931 225.007 821.797 222.819 848.764C220.631 875.731 223.257 850.957 223.694 852.053H223.475Z" fill="#231710"/>
<path d="M211.003 846.791C202.688 846.791 207.94 833.636 210.347 828.594C221.943 803.6 243.167 802.942 258.921 787.814C274.674 772.686 264.828 781.456 258.264 778.825C237.916 771.151 213.41 786.498 195.468 793.734C177.526 800.969 171.619 800.969 160.679 806.231C149.738 811.493 149.082 813.904 148.426 814.124C146.456 814.562 144.05 810.835 144.925 809.081C145.8 807.327 165.93 798.119 168.993 796.803C174.244 794.83 179.714 793.953 184.966 791.76C207.283 782.771 234.415 765.889 259.358 773.563C284.302 781.237 243.823 802.942 236.384 808.423C223.037 817.851 213.191 830.129 211.003 846.791Z" fill="#231710"/>
<path d="M1096.06 373.218C1090.15 365.764 1090.59 354.582 1084.46 346.47C1073.74 331.781 1038.51 311.829 1034.14 295.824C1029.76 279.819 1033.48 270.611 1038.29 259.21C1050.76 230.927 1075.27 219.746 1099.56 203.741C1100.87 204.837 1101.53 205.275 1101.09 207.249C1099.56 212.73 1076.15 224.569 1070.24 228.954C1052.3 242.547 1031.73 271.269 1040.04 294.947C1042.23 300.867 1054.05 310.952 1059.3 315.776C1076.15 331.123 1102.62 345.813 1096.06 372.999V373.218Z" fill="#231710"/>
<path d="M1099.12 238.601C1100.43 240.355 1092.56 248.686 1091.02 250.879C1073.08 276.969 1075.49 290.124 1089.27 317.53C1103.06 344.936 1100.65 335.289 1100.21 337.043C1099.56 339.893 1095.4 338.797 1093.43 336.604C1087.74 329.588 1075.49 304.375 1073.3 295.605C1070.24 282.889 1073.08 269.734 1079.21 258.333C1085.34 246.932 1092.12 238.163 1095.4 237.943C1098.68 237.724 1097.81 238.82 1098.9 238.82L1099.12 238.601Z" fill="#181717"/>
<path d="M1081.18 109.245C1082.05 110.341 1081.18 114.288 1078.77 114.507C1073.3 114.507 1055.58 100.695 1051.86 96.0904C1040.26 81.4009 1040.48 62.1072 1050.98 46.7599C1051.86 45.4444 1058.2 37.7708 1058.64 37.5515C1060.39 37.113 1062.14 40.621 1062.14 42.1557C1061.92 44.7867 1053.17 52.2411 1051.42 57.503C1043.33 81.8394 1057.33 97.6251 1077.46 108.149C1097.59 118.673 1081.18 108.807 1081.18 109.026V109.245Z" fill="#181717"/>
<path d="M196.124 839.337C188.904 839.995 189.123 829.909 186.278 824.428C183.434 818.947 179.277 816.097 170.743 817.851C162.21 819.605 164.179 823.771 159.366 821.578C154.771 815.22 177.307 808.423 185.841 814.562C194.374 820.701 196.343 832.76 195.906 839.556L196.124 839.337Z" fill="#181717"/>
<path d="M47.1207 502.793C49.5275 501.039 52.3719 497.97 55.4351 497.531C53.6847 500.162 50.6215 502.135 47.9959 503.889L46.9019 502.793H47.1207Z" fill="#181717"/>
<path d="M60.6865 493.146H61.7805C60.2489 494.242 59.1549 496.215 56.9669 496.215L56.5293 495.777L60.6865 493.146Z" fill="#181717"/>
<path d="M442.715 400.843C451.686 399.089 468.096 402.817 477.067 405.886C498.947 413.121 539.425 429.565 556.273 444.254C585.811 470.125 608.348 496.216 644.888 514.413C681.428 532.611 672.894 524.498 687.554 536.776C711.841 556.947 724.094 575.144 716.655 608.031C709.215 640.918 704.402 646.619 685.366 631.491C666.768 616.801 679.021 586.765 664.799 564.84C650.577 542.915 641.825 551.247 625.196 558.701C599.596 570.102 586.905 582.599 581.873 610.882C579.466 623.817 582.31 629.079 572.027 640.041C555.179 658.02 523.453 678.848 533.736 706.912C544.02 734.975 576.84 755.584 531.986 766.108C522.578 768.301 514.482 766.766 505.949 768.301C497.415 769.835 486.256 779.263 476.629 782.99C455.624 791.102 438.339 787.814 422.585 772.028C398.517 747.692 416.677 702.527 380.575 688.933C344.473 675.34 296.118 679.067 296.118 636.972C296.118 628.86 310.777 601.235 317.779 598.823C336.815 592.465 345.348 588.957 366.572 592.684C387.796 596.411 397.423 604.085 408.363 601.235C423.242 597.508 418.866 581.722 419.96 570.759C421.929 549.054 441.402 534.803 450.592 516.167C468.971 478.457 407.488 497.093 399.83 478.457C392.172 459.821 412.083 460.04 419.084 454.12C426.086 448.201 429.587 443.377 431.337 434.827C433.088 426.276 431.337 403.474 442.934 401.282L442.715 400.843ZM701.995 628.641C706.809 624.256 712.279 604.523 712.716 597.946C714.248 581.283 711.404 570.102 700.682 557.385C676.395 528.226 643.794 523.402 613.599 502.574C583.404 481.745 571.37 464.863 549.928 446.447C535.049 433.73 500.041 420.576 481.005 413.56C461.969 406.544 448.841 403.036 442.496 407.201C436.151 411.367 438.12 430.88 436.37 437.896C434.619 444.912 430.024 451.709 424.554 456.751C416.896 463.986 391.296 474.51 413.833 481.307C433.963 487.446 472.691 482.403 456.062 517.921C444.903 541.6 428.055 548.177 424.992 577.337C421.929 606.497 427.618 595.973 415.802 604.085C403.987 612.197 393.703 605.62 381.013 602.55C356.507 596.192 340.753 592.903 317.998 607.374C309.902 612.416 301.369 630.175 301.807 639.822C303.995 675.779 358.476 674.682 382.982 684.768C423.023 701.211 401.58 746.595 428.493 770.712C455.405 794.83 481.443 765.451 512.513 762.381C523.234 761.285 530.017 762.82 540.519 757.996C558.68 749.445 539.863 732.125 533.736 721.163C520.827 697.923 521.702 688.056 538.113 667.447C554.523 646.838 572.683 635.218 574.652 625.133C579.685 597.508 577.934 581.941 604.409 564.401C630.884 546.862 653.202 536.557 669.612 563.086C686.023 589.615 676.614 593.561 680.115 612.636C683.616 631.71 692.149 638.507 701.776 629.737L701.995 628.641Z" fill="#231710"/>
<path d="M159.147 643.769C165.711 642.892 177.308 656.046 180.808 661.528C195.031 683.452 189.561 701.43 168.556 715.243C147.551 729.055 139.893 728.836 134.204 713.489C129.171 699.457 136.392 691.126 139.017 678.19C141.643 665.255 140.33 645.961 159.147 643.549V643.769ZM158.053 650.127C144.05 652.538 146.457 670.517 144.487 680.602C142.518 690.687 136.173 697.265 138.799 709.762C141.862 724.013 160.241 714.585 167.68 709.104C185.403 695.73 187.591 683.014 175.776 664.378C163.961 645.742 165.055 648.811 158.053 649.907V650.127Z" fill="#231710"/>
<path d="M461.094 432.415C463.501 430.003 481.442 429.784 485.162 430.222C493.695 431.538 529.141 445.789 537.237 450.612C556.054 461.575 598.939 499.504 605.284 520.333C611.629 541.161 592.813 551.466 583.185 565.936C573.558 580.406 569.62 604.523 559.555 622.282C546.645 645.303 513.169 672.271 514.263 700.992C515.357 729.713 523.234 736.291 519.514 743.964C515.794 751.638 506.386 748.13 500.259 749.007C489.319 750.542 480.13 766.108 470.284 771.37C447.309 784.086 430.68 758.215 426.523 738.483C422.366 718.751 426.523 692.661 411.426 685.206C396.329 677.752 382.106 678.19 369.197 672.928C353.006 666.351 324.343 646.838 330.469 626.229C336.596 605.62 369.854 608.47 384.732 610.224C399.611 611.978 425.21 623.159 437.026 606.716C446.653 593.122 439.87 577.995 440.964 563.305C442.058 548.615 463.938 534.145 471.378 514.851C478.817 495.558 456.937 476.922 455.843 454.778C455.843 449.954 457.812 435.923 461.313 432.634L461.094 432.415ZM514.263 742.43C516.888 740.018 509.449 711.077 509.011 705.158C506.823 672.709 532.642 651.442 549.49 627.763C564.368 606.935 565.244 581.722 579.684 561.332C594.125 540.942 609.004 536.776 595.657 513.317C584.936 494.462 545.989 460.259 526.297 451.489C516.888 447.323 484.943 435.046 476.191 435.484C467.439 435.923 463.063 436.142 461.969 444.473C458.906 468.371 474.003 477.141 478.379 497.312C482.755 517.482 464.595 532.83 452.561 548.615C440.527 564.401 455.624 589.176 442.496 608.908C429.368 628.64 400.923 617.02 380.575 615.266C360.226 613.512 319.092 617.24 342.285 647.276C358.695 668.763 385.17 670.297 408.363 677.752C432.212 685.425 427.836 706.912 430.68 727.082C432.431 740.895 439.87 768.081 457.374 768.739C474.878 769.397 479.254 751.857 491.507 745.937C503.76 740.018 506.605 741.991 514.482 742.21L514.263 742.43Z" fill="#231710"/>
<path d="M497.196 455.655C510.762 453.244 529.36 465.521 540.519 472.757C551.678 479.992 579.466 502.574 582.966 516.606C586.467 530.638 572.901 553.439 568.307 566.594C561.524 585.449 558.023 600.797 547.52 618.336C531.767 644.646 510.105 665.474 503.541 696.169C501.353 706.035 501.134 727.96 492.82 733.879C481.005 742.649 458.249 746.596 446.872 734.976C426.742 714.147 447.966 683.233 421.928 664.159C412.52 657.143 381.231 647.058 399.392 633.026C417.552 618.994 438.12 643.55 453.654 614.828C459.562 603.866 460 592.027 459.781 579.968C459.562 567.91 457.374 565.936 459.125 558.482C460.875 551.028 471.815 544.45 475.316 538.969C481.442 529.322 487.131 510.467 487.131 499.066C487.131 487.665 475.535 459.383 497.196 455.655ZM499.384 460.917C484.068 463.11 491.726 481.307 492.382 491.612C493.476 508.055 488.882 527.568 480.13 541.6C471.377 555.632 468.095 554.536 464.157 562.428C464.813 585.23 469.189 613.951 448.622 629.956C428.055 645.961 418.646 629.079 404.643 636.534C390.64 643.988 398.079 640.042 400.704 644.207C403.33 648.373 421.709 656.924 426.961 661.089C453.217 681.918 432.212 714.805 451.685 731.906C471.159 749.007 480.348 736.291 488.882 729.275C497.415 722.259 496.54 698.8 498.728 689.592C507.042 656.047 537.674 630.833 550.802 599.7C555.397 588.957 558.461 576.241 562.399 565.059C567.65 551.028 581.872 527.568 575.308 513.317C568.744 499.066 552.772 488.323 545.114 482.623C537.456 476.922 510.543 458.944 499.384 460.479V460.917Z" fill="#231710"/>
<path d="M519.295 494.461C538.769 490.953 556.711 508.712 558.461 527.348C560.868 553.219 547.521 575.144 538.769 598.165C530.017 621.186 531.986 622.282 526.516 633.244C521.046 644.207 506.167 659.115 498.509 673.586C490.851 688.056 488.007 707.131 482.318 714.146C476.629 721.162 456.718 714.146 451.467 706.034C442.934 692.441 449.716 681.479 450.373 668.324C451.029 655.169 445.997 649.907 453.217 635.437C460.438 620.967 465.251 617.02 469.627 600.357C476.629 574.048 485.6 543.353 497.196 518.578C508.793 493.804 509.449 495.996 519.077 494.242L519.295 494.461ZM521.483 499.723C512.731 501.258 506.167 513.536 502.666 520.771C490.414 546.642 482.099 578.433 474.222 605.839C466.345 633.244 463.501 626.886 457.593 639.603C451.686 652.319 456.499 658.239 455.624 670.297C454.968 680.821 450.592 690.906 455.624 701.649C458.25 707.35 469.627 713.489 475.754 711.515C481.88 709.542 485.162 689.152 487.35 684.11C494.133 667.228 501.135 659.773 510.981 645.741C520.827 631.71 525.641 616.362 533.518 595.753C542.27 572.952 558.461 545.765 551.24 520.552C544.02 495.338 533.736 497.092 521.483 499.285V499.723Z" fill="#231710"/>
<path d="M509.887 552.343C519.076 550.15 525.203 555.632 526.734 564.401C529.141 578.872 509.887 630.175 499.165 640.48C488.444 650.785 467.22 654.731 470.284 631.491C473.347 608.251 479.254 612.416 482.318 603.427C485.381 594.438 485.162 583.476 489.319 574.706C493.476 565.936 504.198 555.193 507.042 553.439C509.887 551.685 508.793 552.343 509.887 552.124V552.343ZM512.95 557.605C511.418 557.824 508.136 559.797 506.823 561.113C504.635 563.305 493.695 578.872 492.601 581.722C489.976 588.519 489.976 597.727 487.569 605.181C485.162 612.636 468.314 640.48 478.16 643.769C488.006 647.057 496.102 636.095 500.041 630.175C506.386 620.309 521.046 581.941 521.264 570.54C521.483 559.139 519.076 556.947 512.95 557.824V557.605Z" fill="#231710"/>
</g>
</g>
<defs>
<clipPath id="clip0_1_2583">
<path d="M0 28C0 12.536 12.536 0 28 0H1238C1253.46 0 1266 12.536 1266 28V872C1266 887.464 1253.46 900 1238 900H28C12.536 900 0 887.464 0 872V28Z" fill="white"/>
</clipPath>
</defs>
</svg>
