<svg width="497" height="483" viewBox="0 0 497 483" fill="none" xmlns="http://www.w3.org/2000/svg">
<g opacity="0.3">
<g clip-path="url(#clip0_1_148)">
<path d="M486.421 74.8223C483.552 77.4563 480.602 84.7818 478.308 88.4035C470.44 100.997 460.033 111.533 443.889 109.804C430.613 108.405 415.862 93.2598 417.173 79.514C418.485 65.7682 433.809 55.2326 439.955 44.203C443.151 38.4413 446.347 30.5396 436.268 30.7865C428.073 30.9511 399.718 42.3922 392.671 47.2485C380.132 55.8087 386.033 66.0152 379.313 76.2216C372.593 86.428 364.972 87.0865 355.711 89.3089C354.072 89.7204 344.402 90.9551 343.993 91.6136C342.927 93.1775 346.615 94.4944 347.68 94.8237C358.252 98.4453 368.004 96.4699 378.575 102.067C397.506 112.191 410.126 127.501 411.601 149.56C411.929 154.828 410.535 160.342 411.109 165.363C413.076 185.282 437.251 181.743 438.562 207.177C439.546 226.026 427.991 228.248 411.847 226.849C409.306 226.602 406.684 225.367 404.225 225.285C396.44 224.956 391.687 234.586 385.295 237.961C378.575 241.582 372.101 241.253 364.89 239.195C351.778 235.574 344.894 223.639 331.864 218.782C318.916 213.926 306.378 219.276 307.935 234.668C309.164 247.097 314.819 252.447 309.656 266.111C296.872 299.94 260.404 307.266 244.588 337.556C241.392 343.729 239.507 350.396 236.639 356.652C230.001 371.056 212.054 396.901 193.616 391.798C185.749 389.658 184.765 384.555 180.504 378.958C172.801 368.833 169.932 367.928 166.245 354.512C162.557 341.095 163.049 322.081 153.625 313.521C142.479 303.397 128.138 303.15 114.453 307.924C109.536 309.653 101.423 315.085 97.1615 315.579C92.3265 316.073 91.7528 312.863 88.7207 311.875C82.3287 309.817 78.1492 319.283 72.8225 319.283C67.4958 319.283 68.4792 311.793 65.3652 310.393C62.4969 309.159 58.7273 310.393 55.859 311.052C55.2034 306.936 58.8092 306.443 62.2511 306.443C65.693 306.443 68.7251 308.171 70.6919 311.793C72.6586 315.414 71.6753 315.744 72.9045 315.744C76.0186 315.744 81.0994 307.43 87.5734 308.089C91.2611 308.418 94.0474 312.369 96.7517 312.122C99.4561 311.875 103.717 308.83 106.504 307.595C123.467 300.187 141.414 297.718 156.247 311.134C169.769 323.398 164.36 353.442 175.587 368.257C186.814 383.073 180.34 373.031 182.389 375.748C188.945 384.39 190.584 392.456 204.269 387.929C229.591 379.616 234.345 343.4 248.522 325.209C266.141 302.409 295.397 294.261 306.542 265.041C312.442 249.566 299.084 233.598 307.034 221.663C316.13 208 334.732 214.832 345.55 222.157C354.154 227.919 354.892 233.104 367.02 236.314C382.755 240.512 384.476 233.434 394.637 225.45C403.324 218.618 409.798 224.215 419.55 223.886C421.844 223.803 427.007 223.145 429.138 222.239C437.005 219.029 435.858 205.119 433.563 198.617C428.974 185.118 409.142 185.035 407.667 164.952C406.192 144.868 408.733 156.638 408.733 152.77C408.487 131.122 394.883 114.002 376.199 104.701C357.514 95.3998 355.957 101.738 346.205 98.1161C336.453 94.4944 336.126 91.6136 342.845 88.6504C352.106 84.6172 363.169 86.5927 372.101 79.1848C383.246 70.0484 376.936 58.1134 386.606 47.8247C396.276 37.5359 416.6 32.1858 425.041 29.7988C432.498 27.6587 447.495 24.4486 446.757 36.7951C446.101 48.5655 427.745 62.5582 422.746 73.5054C413.977 92.9305 439.218 113.426 458.312 104.125C473.718 96.6345 473.8 84.5349 483.061 73.8346C490.764 64.7805 503.958 72.6 511.743 77.7032C522.642 84.7818 542.392 100.915 525.183 112.52C510.677 122.315 483.143 122.809 487.158 148.407C489.453 163.306 496.992 164.787 505.515 173.924C519.938 189.48 503.138 209.811 516.496 226.19C528.542 240.924 549.767 229.565 565.338 232.281C580.908 234.998 593.364 261.666 612.458 269.156C631.553 276.646 629.668 270.473 636.634 268.498C651.466 264.382 662.366 239.607 671.626 228.577C680.886 217.548 678.428 221.416 683.345 220.923C697.358 219.523 697.03 230.388 708.995 232.94C716.78 234.586 728.335 232.364 726.778 244.71C725.221 257.057 718.091 249.155 713.83 249.566C698.833 250.883 688.343 268.909 679.493 279.445C670.642 289.981 667.201 294.59 661.218 300.928C649.09 313.768 634.011 315.25 629.832 335.251C626.472 351.384 629.832 385.872 653.679 379.616C664.66 376.735 681.132 371.22 691.376 366.447C700.964 362.002 713.01 351.219 723.008 360.849C731.941 369.492 722.107 380.522 715.633 386.695C698.341 403.074 678.018 418.384 689.491 446.123C694.49 458.222 711.289 463.984 698.833 479.047C695.227 483.491 689.163 486.29 684.656 489.829C680.149 493.368 668.348 505.221 661.382 505.797C648.926 506.785 648.188 486.125 645.812 477.647C641.878 463.408 635.814 455.753 621.801 450.65C617.048 448.921 613.114 447.275 608.607 450.65C603.28 454.683 601.231 461.185 593.774 465.383C571.484 477.894 579.597 450.65 573.942 440.114C568.124 429.331 548.62 442.583 541.408 426.862C537.639 418.631 537.147 411.223 529.444 404.721C524.117 400.276 520.511 400.687 514.529 398.794C508.547 396.901 502.892 389.082 496.336 384.308C490.764 383.402 485.027 394.679 481.831 398.3C466.179 416.573 449.052 395.831 432.17 393.115C415.289 390.399 416.682 395.337 409.552 390.316C400.702 384.225 399.472 380.933 387.098 381.756C374.724 382.579 375.707 386.366 367.84 389.493C354.974 394.597 343.993 381.509 328.258 388.506C312.524 395.502 322.112 392.374 318.916 395.996C307.279 409.495 281.301 430.895 284.907 450.65C288.185 468.758 305.477 489.994 314.901 505.797C317.687 510.489 322.44 517.732 318.998 523.082C312.524 533.124 298.675 519.214 292.283 515.263C285.891 511.312 273.68 504.48 267.78 505.386C260.159 506.62 258.11 515.921 257.29 522.424C255.569 536.664 257.782 547.035 259.175 560.698C259.995 568.764 258.929 585.556 253.93 592.058C245.817 602.511 234.508 587.613 228.198 582.675C218.692 575.185 210.17 571.481 197.877 574.608C188.699 576.913 176.652 592.799 174.604 601.771C173.128 608.273 175.095 616.751 174.931 623.501C174.767 627.863 173.292 632.966 173.374 637.246C173.62 651.321 184.028 660.375 183.044 675.52C182.471 684.575 175.177 702.93 176.57 709.597C177.963 716.264 180.504 713.795 178.291 715.605C176.079 717.416 174.358 713.795 173.784 712.395C170.67 704.329 178.701 686.303 179.52 676.508C180.34 666.713 175.751 660.211 172.391 649.51C169.195 639.386 170.834 634.859 171.408 624.982C172.473 605.804 166.982 602.265 179.848 584.897C192.714 567.53 211.235 565.06 229.346 579.053C233.607 582.346 242.212 592.305 247.456 592.058C250.489 591.893 252.046 589.342 252.947 586.79C260.077 567.036 252.537 551.809 253.275 531.972C253.521 526.128 254.094 518.226 255.979 512.711C264.502 487.278 294.168 513.37 306.46 520.86C311.377 523.823 317.933 524.317 316.704 516.744C315.474 509.172 299.003 487.195 295.151 480.693C288.431 469.334 279.171 454.6 281.957 440.772C285.481 423.405 299.904 412.54 310.967 400.441C318.834 391.88 321.621 384.061 335.388 382.662C349.155 381.262 358.088 390.152 367.758 385.625C377.428 381.098 380.706 376.818 393.654 378.052C403.652 379.04 405.291 383.649 412.338 387.929C417.583 391.139 427.663 388.506 434.792 389.905C446.101 392.127 457.492 402.992 469.047 402.004C479.209 401.181 482.241 388.67 489.125 383.402C498.959 375.912 501.909 385.131 508.137 390.81C515.185 397.23 524.609 395.42 532.066 402.004C540.671 409.742 540.507 417.232 545.096 426.204C550.259 436.328 565.747 427.603 574.516 434.928C583.285 442.254 578.941 462.42 583.121 464.56C587.3 466.7 591.479 462.749 593.692 461.35C603.444 455.094 604.755 442.254 619.178 445.793C635.158 449.744 644.583 459.868 649.09 475.425C653.597 490.982 651.384 489.088 653.597 494.932C654.662 497.649 656.957 501.929 660.235 502.093C666.217 502.505 676.953 491.393 681.87 487.607C687.606 483.08 699.898 477.071 700.144 468.675C700.308 463.572 690.966 455.671 688.18 450.567C676.625 429.414 686.541 408.425 702.439 393.362C709.241 386.859 724.565 377.805 723.008 367.105C721.451 356.405 718.009 360.602 714.649 360.191C709.077 359.532 697.522 367.352 691.949 369.904C686.377 372.455 685.147 372.867 681.87 374.019C673.838 376.818 660.972 381.509 652.941 383.238C629.586 388.341 624.095 356.24 626.062 339.449C629.258 312.616 645.074 313.357 660.153 297.059C666.955 289.734 673.92 280.762 680.476 273.025C689.819 261.995 698.259 247.262 714.321 245.78C717.599 245.451 723.746 247.262 723.991 242.817C724.401 235.738 714.403 237.22 709.814 236.397C701.373 234.833 700.718 232.693 695.227 227.59C689.163 221.91 681.214 223.31 675.887 229.154C664.906 241.171 655.564 266.522 638.272 271.543C619.506 276.976 608.443 274.095 595.085 260.349C588.775 253.929 579.679 240.677 571.73 237.385C568.534 236.068 560.339 234.998 556.733 234.998C549.767 234.998 541.9 237.796 534.853 237.549C518.79 237.055 508.875 225.861 507.645 210.222C506.744 198.452 512.972 187.587 504.367 177.298C499.778 171.866 493.14 168.738 489.289 162.318C481.586 149.56 481.258 134.909 492.895 124.455C504.531 114.002 524.117 112.932 528.051 105.195C530.018 101.408 528.706 98.4453 526.658 95.1529C521.823 87.5804 503.466 74.2462 494.615 73.1761C485.765 72.1061 489.125 72.8469 486.994 74.8223H486.421Z" fill="#662600"/>
<path d="M47.0907 351.795C47.0907 350.808 46.7629 349.161 47.9102 348.832C49.0575 348.503 57.7441 348.668 59.3012 348.997C64.0542 349.984 73.6423 356.816 73.3145 362.249C72.9867 367.681 58.1539 369.821 57.2524 378.711C56.351 387.6 64.2181 389.576 67.1683 394.679C76.7564 411.552 60.2026 419.125 62.9069 433.694C65.6113 448.263 89.7863 450.073 82.4928 472.956C80.0343 480.693 73.4784 487.936 73.9701 496.578C74.4618 505.221 77.7398 511.147 80.3621 514.687C82.9845 518.226 85.1152 519.049 89.2946 518.144C101.915 515.427 117.813 495.344 122.812 483.903C127.811 472.462 127.319 467.605 132.154 461.679C136.989 455.753 143.299 456.823 143.955 447.522C145.02 434.105 135.432 430.813 129.368 421.43C119.944 406.778 125.106 394.185 124.205 378.134C123.549 366.2 118.059 354.512 119.698 342.412C120.927 333.605 131.744 332.782 138.3 335.909C147.315 340.19 157.804 362.166 163.623 371.22C170.834 382.415 182.061 402.992 197.55 399.288C201.237 398.383 213.12 392.621 216.808 390.563C234.427 380.851 247.293 348.503 260.569 332.946C275.893 315.003 316.294 295.001 323.588 273.189C327.275 261.995 323.588 256.398 322.85 245.862C322.194 235.656 325.882 230.553 336.208 235.491C345.878 240.101 356.367 247.262 365.955 251.624C375.543 255.987 381.198 253.106 388.901 249.978C396.604 246.85 403.898 238.784 412.175 237.631C426.188 235.738 447.003 253.764 456.673 234.915C463.721 221.252 459.378 201.003 450.773 188.904C445.118 180.92 436.514 175.652 430.613 167.256C422.91 156.309 413.076 130.875 422.091 119.105C431.105 107.335 436.104 111.862 444.299 115.73C452.494 119.599 452.166 121.327 456.591 121.245C463.639 120.998 474.128 107.088 481.504 114.578C488.879 122.068 477.734 148.819 476.751 159.849C474.784 180.426 489.125 182.237 494.698 198.863C500.27 215.325 489.535 225.779 504.859 240.183C520.184 254.587 518.709 251.295 522.642 251.459C533.214 248.743 544.031 242.817 554.767 240.842C566.485 238.701 575.336 241.994 577.139 254.752C578.286 262.324 577.303 265.535 581.564 272.778C590.169 287.429 602.625 287.429 615.409 295.495C634.421 307.513 608.607 319.53 600.33 326.938C585.252 340.437 593.283 354.841 597.38 371.22C600.494 383.485 605.165 405.214 595.495 415.503C590.906 420.442 582.138 421.43 576.319 418.384C570.501 415.339 559.192 403.568 555.75 398.218C545.588 382.744 550.095 359.697 540.917 342.165C533.46 327.925 525.183 338.379 514.529 342.165C505.187 345.54 498.877 344.964 491.174 338.543C488.47 336.321 479.373 327.349 478.8 324.386C477.488 316.978 487.568 307.759 493.55 304.796C502.155 300.516 513.874 301.257 520.758 295.907C527.477 290.721 523.872 286.03 518.217 282.161C512.563 278.293 490.682 269.815 483.553 270.802C474.456 272.037 464.54 284.301 454.952 277.305C447.741 272.037 447.741 266.605 437.333 262.901C426.926 259.197 424.385 259.444 415.371 262.077C405.373 264.958 402.833 268.827 395.047 273.765C382.673 281.667 373.577 267.098 362.104 268.745C350.467 270.473 343.829 284.713 337.519 293.026C331.782 300.599 320.637 304.961 312.442 310.229C295.971 320.847 282.203 334.346 269.419 349.244C255.078 366.035 239.262 393.609 219.184 402.416C213.12 405.132 199.516 409.824 193.124 410.4C173.866 412.211 158.132 385.378 147.724 372.455C145.102 369.492 142.562 373.361 141.169 375.665C133.957 387.436 140.677 397.395 146.413 408.013C154.772 423.487 164.934 434.434 162.803 453.53C161.246 467.523 142.971 490.323 133.219 500.365C122.648 511.23 117.567 519.131 108.799 530.984C104.947 536.17 100.768 537.651 94.5394 538.639C79.4607 541.026 69.0531 538.639 58.2358 527.774C56.5969 526.128 55.6135 524.399 55.6954 521.93H56.9246C64.2181 527.692 70.6921 535.264 80.4441 536.17C84.1318 536.499 91.2614 535.758 94.9491 535.1C98.6368 534.441 102.407 533.453 105.193 530.079C110.11 524.152 114.207 516.168 119.206 509.995C125.188 502.669 132.892 497.237 138.71 489.747C149.773 475.589 164.934 455.67 157.886 436.821C152.641 422.746 133.219 398.547 134.449 384.884C135.022 378.217 141.496 363.236 149.855 369.739C158.87 380.686 173.62 405.461 189.027 407.025C195.501 407.684 212.628 401.757 218.938 398.794C236.803 390.481 254.422 361.261 267.78 345.787C281.138 330.23 294.905 317.307 312.279 306.278C318.753 302.162 329.078 297.718 333.831 292.121C341.944 282.49 347.107 267.181 361.94 265.205C376.773 263.23 379.559 273.272 388.164 272.695C392.999 272.366 397.178 266.851 401.275 264.382C416.682 254.834 436.841 253.6 450.281 267.098C453.149 269.979 455.772 275.412 460.197 276.07C464.622 276.729 475.112 269.074 480.93 267.757C486.749 266.44 496.255 269.238 503.138 271.708C511.415 274.671 534.853 283.231 526.002 295.66C517.48 307.513 495.517 300.187 484.536 317.307C473.555 334.428 481.258 321.752 482.487 324.715C483.716 327.678 492.567 335.333 494.042 336.568C499.533 341.013 504.614 341.671 511.333 339.696C523.544 336.074 534.033 322.905 543.376 339.696C554.275 359.368 547.719 384.143 562.142 400.934C565.502 404.885 575.5 415.009 580.089 416.079C600.494 421.1 598.773 393.444 596.233 381.015C593.283 366.364 583.367 346.774 591.152 332.535C595.659 324.221 603.526 320.847 610.492 315.167C617.458 309.488 623.112 305.126 614.507 298.952C602.215 290.063 589.841 291.462 579.843 276.564C573.779 267.51 575.336 263.971 573.615 254.258C570.173 235.409 546.162 246.932 534.771 250.883C531.165 252.118 525.838 255.163 522.069 254.999C516.332 254.67 501.827 242.817 498.222 238.125C487.896 224.544 495.517 216.478 492.157 202.814C487.732 185.035 471.506 182.319 472.981 161.33C473.883 149.066 483.389 130.793 480.357 119.764C477.898 110.545 466.179 121.492 462 123.303C450.117 128.324 445.774 117.706 435.612 116.718C425.041 115.73 420.943 124.949 421.681 134.25C422.582 145.033 427.499 157.708 433.891 166.351C441.185 176.228 451.674 181.825 457.247 193.431C462.819 205.037 467.818 234.586 452.74 244.216C437.661 253.846 431.597 244.957 421.025 241.994C408.241 238.372 404.553 245.698 394.965 251.048C385.377 256.398 373.659 259.361 363.989 254.999C356.695 251.706 347.845 246.356 340.305 242.57C336.208 240.512 325.718 232.034 325.636 242.57C325.472 255.081 331.373 262.736 325.8 276.564C320.228 290.392 285.727 314.756 270.402 328.172C252.21 344.058 243.769 371.056 226.396 387.6C221.479 392.292 204.515 401.264 197.959 402.91C180.75 407.19 169.687 387.847 161.656 375.501C153.625 363.154 145.266 345.211 137.972 340.107C130.679 335.004 124.451 336.403 122.894 342.247C120.353 351.466 126.745 368.257 127.319 378.875C127.975 390.563 124.287 404.144 129.122 414.845C135.514 429.084 149.2 430.484 146.577 450.32C145.594 457.564 141.824 457.893 137.235 461.35C130.187 466.7 127.155 483.491 122.156 492.134C117.157 500.776 97.5715 524.235 83.886 522.095C75.9369 520.86 70.1185 503.328 69.8726 496.332C69.299 481.022 89.3766 468.429 73.9701 454.436C67.9059 448.921 63.7264 447.686 60.2846 439.044C55.0398 425.957 62.0875 421.347 65.2835 410.565C68.4795 399.782 60.1207 395.008 55.2037 386.448C50.2868 377.888 53.2369 373.525 59.2192 369.245C65.2015 364.965 69.299 364.636 69.3809 362.084C69.4629 359.532 59.3012 352.125 56.433 352.125H46.5171L47.0907 351.795Z" fill="#662600"/>
<path d="M779.799 335.663C782.749 338.543 782.995 343.729 781.438 347.433C778.57 354.1 762.917 365.541 757.099 370.973C746.2 381.098 722.926 405.791 724.647 421.429C726.368 437.068 747.675 445.135 756.607 453.119C770.785 465.795 781.356 483.738 757.427 493.286C740.545 500.035 719.156 492.216 704.733 500.612C695.391 506.044 699.734 521.354 693.424 530.573C686.95 540.038 670.561 541.52 660.972 536.828C650.893 531.889 641.387 508.184 635.65 497.895C631.88 491.064 624.423 476.413 619.342 471.392C611.065 463.325 598.281 475.589 597.462 484.644C596.888 491.146 600.986 501.352 596.151 506.291C590.25 512.382 581.973 504.727 578.45 499.624C574.926 494.521 573.86 489.335 569.353 487.771C563.043 485.714 557.225 491.887 549.603 487.195C543.457 483.409 545.67 476.166 548.046 470.733C550.423 465.301 553.537 462.091 552.472 460.362C550.669 457.481 539.278 461.761 535.18 457.81C531.411 454.189 535.508 445.629 531.411 440.196C529.198 437.151 512.562 426.286 508.465 423.899C502.155 420.195 497.812 419.619 490.436 420.03C484.618 420.359 477.898 422.911 472.653 423.076C461.426 423.323 453.395 418.055 441.758 418.055C432.826 418.055 425.532 409.988 417.747 406.943C413.158 405.132 400.947 402.251 396.031 402.169C388.081 402.004 380.46 406.038 372.921 407.601C357.76 410.729 343.419 406.778 329.324 412.869C319.162 417.232 305.886 424.969 300.478 434.928C296.052 443.077 298.675 456.658 300.314 465.63C305.395 492.463 338.42 507.279 341.288 534.276C343.091 551.397 331.454 559.71 317.933 546.952C309.328 538.886 305.149 533.206 294.495 526.539C288.431 522.753 274.418 513.617 269.501 523.329C264.584 533.042 273.025 550.985 274.172 561.192C275.319 571.398 274.172 591.317 270.484 600.371C259.667 627.204 230.165 591.811 215.414 590.083C192.714 587.449 184.519 613.212 186.24 631.649C187.961 650.087 191.075 670.088 189.846 688.855C189.354 696.592 187.797 702.683 187.797 710.831C187.797 715.852 187.552 720.955 188.289 725.894C187.552 726.635 184.765 724.001 184.519 723.342C183.864 721.943 184.11 706.304 184.274 703.67C184.683 697.497 186.486 690.995 186.814 684.821C187.879 667.454 183.864 648.358 182.798 631.238C181.733 614.117 184.929 601.935 197.303 591.729C217.217 575.267 234.099 599.96 251.636 605.475C269.173 610.989 266.469 604.898 268.927 594.198C274.336 571.234 269.091 558.969 265.239 537.651C261.388 516.333 265.157 515.345 277.532 515.592C285.973 515.674 303.51 527.774 310.066 533.536C315.392 538.227 324.325 552.138 332.192 549.586C340.059 547.034 337.355 543.907 337.683 541.355C341.206 514.522 304.493 495.344 297.855 471.227C296.052 464.725 294.004 449.497 294.577 442.912C295.97 426.203 315.31 415.009 329.16 409.248C342.682 403.568 355.302 407.272 369.479 404.803C377.92 403.321 386.934 398.712 395.457 398.712C400.374 398.712 413.404 401.675 418.239 403.404C424.631 405.791 433.809 414.186 439.873 414.927C441.594 415.174 442.824 413.939 445.282 414.022C451.838 414.433 457.738 417.808 463.803 418.96C477.816 421.512 490.108 413.034 504.695 418.219C510.022 420.113 530.919 434.188 534.279 438.468C537.639 442.748 536.082 446.205 536.573 451.473C537.065 456.74 540.097 455.835 544.441 455.835C548.784 455.835 556.077 455.424 556.405 460.691C556.733 465.959 544.031 478.717 551.324 484.15C556.897 488.265 564.436 481.68 571.484 484.89C578.532 488.101 582.793 506.867 592.135 504.809C597.38 503.657 594.348 493.945 594.02 490.323C593.282 481.104 597.298 471.803 605.739 467.441C616.884 461.679 622.292 468.182 627.947 477.153C636.716 491.064 643.599 506.785 651.876 521.025C658.678 532.795 664.087 537.569 678.674 535.511C701.947 532.219 688.18 506.209 703.012 497.649C717.845 489.088 739.562 497.319 757.427 489.5C778.242 480.446 764.638 464.725 753.165 454.6C733.907 437.645 710.142 432.377 727.351 401.099C738.251 381.262 755.542 369.657 770.948 354.594C772.997 352.618 779.143 346.527 779.061 343.894C778.979 341.26 776.767 337.967 776.439 337.638C774.554 335.909 760.869 338.132 757.673 338.708C741.365 341.424 724.811 347.104 708.585 350.643C691.785 354.265 673.511 357.639 656.465 358.38C638.6 353.277 647.943 333.934 656.875 324.715C665.807 315.497 669.905 315.25 673.839 309.57C682.115 297.635 673.839 284.136 688.999 273.272C714.731 254.834 739.152 282.984 765.622 280.35C779.225 279.033 783.487 263.724 782.093 252.118C781.11 244.052 776.603 244.298 771.03 240.759C760.049 233.845 761.36 232.117 756.198 221.499C751.035 210.881 740.054 204.707 730.629 205.366C721.205 206.024 716.288 209.481 708.995 206.107C701.701 202.732 707.356 190.139 695.883 186.023C684.41 181.908 664.087 195.159 657.695 206.683C650.483 219.605 653.351 234.092 643.353 245.862C637.617 252.612 627.865 259.773 618.687 258.867C609.508 257.962 598.363 251.295 595.413 249.072C586.317 242.323 586.071 227.507 573.123 223.474C556.815 218.371 544.686 231.705 529.854 229.73C515.021 227.754 522.888 225.696 522.97 221.91C523.052 214.667 529.362 204.625 531.001 197.217C534.853 179.521 522.15 168.409 509.202 159.108C502.81 154.498 492.239 150.547 491.911 141.164C491.583 133.015 502.073 124.537 509.53 123.632C529.034 121.08 549.194 146.926 567.059 152.605C584.924 158.285 576.319 147.09 573.041 139.436C568.206 128.241 558.454 120.504 553.783 109.31C549.112 98.116 551.898 102.478 550.341 99.5153C546.817 92.7659 535.59 88.4034 529.526 84.2056C515.185 74.4107 519.2 63.052 510.677 50.5409C502.483 38.5236 491.092 37.3713 480.93 29.3872C479.783 28.4818 473.473 22.2262 474.784 20.9916C478.389 20.1685 479.455 23.7078 481.913 25.8479C487.896 31.0334 498.139 34.2435 504.777 39.1821C515.84 47.4131 517.07 56.1379 521.331 67.9906C526.74 82.8064 536.737 82.4771 547.473 91.2843C558.208 100.091 554.193 102.314 558.454 110.874C562.306 118.611 568.616 123.961 572.877 131.122C575.991 136.39 585.169 154.745 574.598 156.721C563.289 158.778 547.801 144.95 538.622 138.942C526.903 131.287 512.398 120.093 499.45 132.851C487.158 144.95 506.826 152.77 514.693 158.861C528.624 169.726 539.196 181.331 533.787 200.427C528.379 219.523 526.412 216.972 526.658 222.322C526.903 227.672 536.655 226.355 540.425 225.367C552.308 222.239 560.339 216.231 573.86 219.852C589.021 223.968 588.939 240.759 598.691 247.015C600.822 248.332 615.409 254.587 617.621 255.081C629.586 257.55 643.599 243.558 646.877 232.857C650.647 220.676 649.5 212.527 657.367 201.003C665.316 189.315 688.262 174.253 701.455 185.118C707.847 190.385 705.635 194.501 708.011 200.51C710.634 207.177 725.876 201.991 731.203 201.744C740.217 201.333 753.002 209.399 757.837 216.889C763.327 225.45 760.705 229.647 770.866 236.479C779.061 241.994 785.699 241.5 785.945 254.093C786.191 267.839 781.11 282.82 765.294 283.972C740.955 285.7 715.715 261.501 693.424 274.589C671.134 287.676 683.181 287.429 681.706 298.047C679.083 316.731 668.02 317.307 657.776 329.16C647.533 341.013 643.271 353.688 659.661 355.417C676.871 353.03 694.326 350.396 711.289 346.61C729.728 342.494 754.559 333.276 772.915 333.44C791.272 333.605 778.816 334.428 780.127 335.663H779.799Z" fill="#662600"/>
<path d="M352.515 544.318C358.826 535.017 365.627 527.033 362.431 514.687C360.547 507.443 354.4 504.809 349.483 500.2C336.535 488.101 317.359 461.679 325.226 443.159C331.618 428.097 352.925 432.047 365.545 431.554C378.084 431.06 390.54 427.027 403.078 428.014C415.616 429.002 426.598 432.459 432.334 437.398C433.317 438.221 434.547 440.278 435.202 440.608C437.579 441.595 444.053 442.172 447.413 443.159C461.344 447.11 465.36 451.966 476.341 459.539C485.191 465.63 488.142 462.584 496.828 464.971C505.515 467.358 516.168 481.516 523.216 487.442C539.278 501.105 551.98 509.172 570.337 519.214C588.693 529.255 597.052 536.499 606.804 544.812C615.409 552.138 622.62 560.78 632.454 567.036C643.19 573.867 655.892 575.431 664.251 586.132C673.839 598.396 672.773 619.056 687.77 626.299C700.718 632.554 714.485 623.747 721.697 613.047C732.186 597.49 731.941 582.428 736.694 565.307C741.447 548.187 740.218 554.195 747.183 554.36C751.772 554.525 758.492 558.64 759.148 552.055C760.459 539.297 757.345 530.49 767.752 519.872C784.47 502.916 809.055 507.361 829.214 513.781C830.526 514.193 833.148 513.452 832.574 515.592C831.591 519.378 823.314 514.934 820.692 514.193C803.155 509.419 776.521 509.583 766.277 527.692C761.033 536.91 763.573 542.672 762.59 552.055C761.279 565.801 748.085 554.936 743.332 558.722C739.726 561.686 737.185 580.535 735.956 586.049C732.268 601.771 726.45 618.644 711.781 627.122C703.013 632.225 695.309 634.036 685.803 629.18C669.659 620.866 671.298 602.594 662.366 589.424C654.908 578.559 640.977 576.584 630.487 569.917C620.49 563.496 612.786 554.36 603.772 546.787C594.594 539.05 580.744 529.091 570.337 523.165C551.242 512.382 536.983 503.904 520.184 489.335C512.89 482.997 502.728 469.087 493.468 467.688C483.47 466.124 482.241 467.852 473.309 461.432C464.376 455.012 458.066 449.333 444.626 445.876C431.187 442.418 428.974 443.489 428.237 442.336C427.007 440.443 429.22 439.126 428.81 438.632C428.401 438.138 418.239 434.599 416.764 434.187C397.751 429.002 389.065 433.529 371.2 434.517C353.335 435.587 325.062 428.837 327.275 456.247C328.177 467.523 337.765 482.01 345.058 490.405C355.793 502.752 370.954 507.361 366.037 527.28C361.12 547.199 353.991 545.306 353.171 554.195C352.434 563.003 359.153 574.361 353.663 582.263C348.418 589.918 339.895 581.852 333.831 579.218C329.979 577.489 325.144 576.008 321.129 574.855C324.325 577.736 328.504 579.876 332.192 582.428C342.108 589.342 349.074 596.667 362.513 595.268C379.641 593.457 367.84 578.724 364.234 570.657C360.628 562.591 358.908 550.245 363.579 541.19C368.25 532.136 378.329 525.222 376.527 513.946C374.724 502.669 364.398 496.414 360.055 492.71C349.483 483.82 344.648 484.15 343.583 467.935C342.518 451.72 357.514 445.135 372.511 441.925C388.655 438.468 394.719 442.501 409.306 446.369C438.152 453.942 462.409 461.103 488.06 476.989C494.616 481.022 501.253 486.701 507.891 490.241C511.005 491.969 514.529 492.792 517.561 494.274C528.543 499.789 535.836 511.888 546.162 519.131C556.487 526.375 561.404 527.362 568.944 531.972C576.319 536.499 582.465 542.178 589.349 547.199C595.495 551.726 602.871 555.759 608.525 560.616C613.524 564.896 619.178 571.48 623.768 576.419C626.062 578.888 627.865 582.263 630.569 584.321C634.421 587.284 639.912 588.025 643.272 592.469C650.975 602.841 639.502 611.648 638.355 622.183C637.699 628.192 639.256 633.789 638.764 639.386C637.535 652.391 624.833 670.17 619.998 682.352C615.163 694.534 622.211 687.126 627.291 687.62C643.19 689.266 637.535 695.686 635.322 706.386C633.929 713.218 633.602 719.227 637.535 725.318C644.501 736.183 653.843 722.437 660.973 719.309C670.479 715.111 679.657 718.239 685.803 726.388C691.949 734.536 691.13 734.701 687.278 735.113C683.427 735.524 684.984 731.903 684.082 730.174C682.361 726.964 679.001 724.165 675.887 722.602C659.989 714.535 653.761 736.759 640.321 732.314C632.126 729.598 630.569 717.334 631.225 709.926C631.881 702.518 635.732 695.851 634.503 693.299C632.372 688.937 614.835 694.945 615.409 685.397C615.655 681.035 622.784 670.417 624.997 665.89C627.209 661.363 635.65 642.843 635.568 638.975C635.486 635.106 634.175 634.036 634.175 631.731C634.175 625.805 635.322 618.15 637.535 612.635C639.83 606.874 644.091 603.993 641.878 596.997C640.157 591.482 632.126 590 628.111 586.79C622.374 582.263 615.081 571.234 609.099 565.554C603.198 559.957 595.003 555.512 588.366 550.656C582.137 546.047 576.319 540.861 569.845 536.581C559.11 529.502 547.637 525.716 537.639 516.827C531.001 510.9 526.412 503.575 518.463 498.801C510.514 494.027 510.268 495.261 506.252 493.204C499.205 489.417 492.321 483.738 485.437 479.458C459.869 463.654 435.202 456.576 406.356 449.086C399.472 447.275 392.097 443.735 384.885 443.653C377.674 443.571 361.12 447.604 355.711 450.567C347.844 454.93 346.287 460.691 347.107 469.334C348.746 486.29 359.399 485.302 368.659 495.673C377.92 506.044 379.477 509.337 380.05 513.287C382.427 529.009 365.463 536.828 364.316 550.491C363.087 565.225 368.823 569.011 373.576 581.028C380.706 599.219 360.383 601.03 347.926 596.585C337.109 592.716 327.275 580.535 316.949 577.16C308.345 574.444 306.46 583.58 305.477 589.836C303.018 605.475 306.46 617.409 300.887 633.707C296.298 646.959 291.709 650.416 277.286 649.181C258.028 647.535 246.555 630.25 231.394 621.772C216.234 613.294 221.233 620.126 219.348 626.793C215.906 638.481 222.052 645.477 223.118 656.177C225.33 677.99 214.431 692.476 209.678 712.477C208.285 718.321 206.318 727.293 206.318 733.137C206.318 735.36 207.219 737.335 206.892 739.804C206.564 742.274 204.433 739.557 204.105 738.981C201.647 734.866 205.007 717.334 206.236 712.066C210.579 692.97 222.544 675.932 219.43 655.684C217.709 644.572 211.891 635.353 216.807 623.665C223.773 607.285 238.524 622.924 246.555 629.015C254.586 635.106 247.538 630.414 248.112 629.509C246.309 626.875 243.605 624.241 241.064 622.266C235.82 618.315 220.167 610.084 213.857 610.907C210.252 611.318 208.367 614.282 207.957 617.739C206.728 628.768 209.924 635.353 211.481 645.395C213.448 658.153 211.481 679.307 208.121 691.9C204.515 705.728 200.745 715.111 198.861 730.092C198.779 730.997 199.27 734.948 198.041 734.372C196.812 733.796 195.746 732.643 195.746 732.479C195.337 730.833 196.566 723.178 196.812 720.873C198.615 707.95 203.286 698.402 205.744 686.467C207.957 675.685 209.596 659.223 208.367 648.358C207.137 637.493 198.615 614.858 209.596 608.602C216.152 604.898 228.936 610.907 235.164 614.199C249.341 621.854 253.193 632.637 270.894 636.999C288.595 641.362 278.515 637.164 282.039 632.884C291.709 621.278 296.216 595.103 295.315 580.288C294.413 565.472 288.677 559.628 297.364 553.784C306.05 547.94 306.378 561.356 310.885 565.719C314.655 569.423 329.57 573.127 335.47 575.761C338.584 577.16 345.632 581.852 348.418 581.605C353.827 581.111 352.27 570.246 351.614 566.706C350.549 560.78 349.238 558.064 349.729 551.479C349.893 551.15 350.057 550.821 350.221 550.491C350.958 549.01 352.352 546.376 352.761 544.894C353.171 543.413 352.679 544.154 352.761 543.907L352.515 544.318ZM315.966 572.88C310.885 571.645 306.87 567.777 304.493 563.167C303.018 560.286 302.444 553.619 298.183 557.817C293.348 562.509 298.183 574.279 298.675 580.288C299.904 596.42 293.84 629.591 280.154 639.715C277.614 641.609 273.68 641.691 270.648 641.115C268.927 640.785 259.913 636.341 259.093 637.164C258.274 637.987 259.093 638.316 259.339 638.728C260.077 639.88 266.551 643.09 268.108 643.666C276.303 646.712 289.988 648.605 294.741 639.551C302.608 624.653 300.314 611.812 301.297 596.091C301.707 589.259 302.936 576.501 310.394 574.114L315.966 572.88ZM318.015 573.374C315.884 573.127 315.884 574.114 318.015 573.867V573.374ZM320.555 574.444C319.818 574.114 319.162 574.773 319.572 574.937C320.309 575.267 320.965 574.608 320.555 574.444ZM248.85 631.073C248.85 631.896 256.307 637.411 258.028 636.67C258.274 635.353 257.7 635.765 257.045 635.435C255.815 634.695 249.833 630.661 249.423 630.579C249.014 630.497 248.85 630.744 248.932 631.073H248.85Z" fill="#662600"/>
<path d="M352.516 544.318C352.434 544.483 352.106 544.648 352.024 544.812C350.795 546.623 349.729 548.681 349.484 550.903C349.238 553.125 349.484 551.562 349.484 551.891C345.632 559.628 341.207 566.953 331.455 567.694C314.983 568.929 309.41 541.108 292.693 535.676C272.451 529.091 280.892 541.684 283.76 552.796C288.841 572.304 290.89 598.067 281.138 616.175C267.534 641.362 242.54 613.87 227.871 605.886C213.202 597.902 208.285 596.914 202.876 602.923C192.797 614.117 200.664 634.777 201.565 648.111C202.467 661.528 201.811 679.142 199.352 692.394C197.058 705.152 191.895 717.169 193.37 730.586C188.781 729.433 189.6 725.071 189.846 721.12C190.502 709.432 195.255 697.909 196.894 686.303C198.533 674.697 199.107 659.634 197.959 647.617C196.648 633.213 189.191 611.648 200.746 599.877C207.629 592.881 223.364 599.384 230.657 603.581C241.229 609.672 261.06 629.921 273.68 620.537C277.204 617.903 281.793 606.709 282.941 602.264C286.301 589.342 283.924 567.859 280.728 554.854C277.532 541.849 273.271 536.499 277.86 532.301C282.367 528.186 295.479 532.383 300.15 535.346C308.837 540.944 319.9 562.509 327.521 563.99C335.142 565.472 342.6 557.982 346.042 550.162C351.696 537.404 358.252 520.284 343.419 511.23C333.995 505.55 327.521 505.88 320.31 495.673C313.098 485.467 308.345 471.474 306.87 455.094C305.723 442.583 308.919 434.681 319.08 427.109C335.88 414.598 352.68 418.549 372.102 418.631C391.933 418.713 407.34 415.503 426.352 422.829C432.17 425.051 438.48 428.92 444.463 430.648C450.445 432.377 457.902 432.541 464.458 433.529C471.014 434.517 472.653 435.998 475.276 435.998C477.898 435.998 476.587 435.175 480.438 435.916C487.568 437.151 494.698 437.315 501.09 441.266C507.728 445.382 527.395 466.782 532.312 473.696C537.229 480.61 537.229 482.833 540.098 486.784C545.752 494.685 571.484 510.983 580.826 515.263C592.299 520.531 615.327 525.634 623.112 534.029C630.242 541.767 631.963 550.738 644.091 553.29C657.695 556.089 661.71 554.854 673.839 563.743C683.099 570.493 690.229 581.687 703.668 576.666C708.585 574.855 706.291 571.234 706.209 567.53C705.799 548.434 716.043 540.12 733.416 535.676C739.644 534.112 746.856 534.853 749.97 528.35C753.084 521.848 753.411 514.275 758.492 507.855C768.654 495.179 775.866 499.953 789.797 498.965C793.812 498.636 808.236 494.85 809.956 491.146C811.677 487.442 803.974 478.635 799.877 476.495C795.779 474.355 790.698 473.861 786.519 471.556C774.554 465.054 762.344 454.436 754.805 443.242C751.035 437.727 741.119 422.664 741.365 416.573C741.939 401.017 757.591 397.23 767.917 390.646C777.341 384.637 777.341 376.571 783.077 368.093C790.207 357.639 808.481 350.643 820.774 351.466C833.066 352.289 838.557 354.923 839.294 357.886C840.032 360.849 833.886 358.051 832.902 357.639C819.545 352.948 806.515 354.841 794.468 362.249C780.619 370.727 782.667 385.295 770.375 393.197C760.705 399.37 740.464 405.214 745.79 421.1C751.117 436.986 760.705 446.534 765.868 451.967C771.031 457.399 781.848 464.971 787.83 468.182C796.435 472.873 803.401 471.886 810.366 480.775C819.545 492.628 808.809 498.06 798.32 500.776C789.059 503.163 782.422 500.941 773.653 502.011C759.64 503.657 757.673 519.378 753.248 529.502C749.56 538.063 742.758 536.828 735.137 538.886C725.877 541.355 715.223 545.635 711.29 555.266C708.339 562.509 711.044 567.283 710.388 573.703C709.978 577.736 707.192 579.629 703.504 580.535C685.148 585.062 677.035 567.612 662.284 560.78C650.073 555.101 640.322 560.369 629.586 548.763C625.243 544.071 623.03 537.898 617.622 533.7C612.295 529.502 600.576 526.951 593.856 524.399C575.909 517.485 560.421 508.596 545.26 496.661C535.672 489.088 533.624 480.281 526.166 471.392C521.249 465.548 503.466 446.287 497.648 443.406C490.6 439.867 486.994 441.102 480.029 440.772C476.259 440.608 469.867 438.056 465.606 437.398C458.722 436.245 451.592 436.328 444.627 434.434C433.236 431.389 422.992 423.816 410.782 422.006C398.571 420.195 397.096 422.17 389.557 422.5C374.068 423.158 357.269 420.689 341.78 422.006C327.603 423.158 309.574 435.011 309.984 450.814C310.394 466.453 314.245 481.351 323.424 494.027C329.734 502.752 335.06 502.916 343.583 507.443C359.481 516.004 357.187 529.585 352.761 544.483L352.516 544.318Z" fill="#662600"/>
<path d="M171.08 565.719C169.769 565.307 169.851 566.13 169.359 566.542C163.377 571.316 158.46 577.242 152.559 582.099C146.659 586.955 139.775 589.918 135.678 597.244C128.794 609.59 132.482 619.961 133.055 632.884C133.629 645.807 132.072 656.013 134.121 668.03C134.613 670.664 135.678 671.981 136.088 674.45C134.776 673.298 130.925 669.512 130.597 667.948C129.45 662.598 130.351 655.19 129.04 649.593C132.318 632.472 124.123 615.599 130.925 599.054C135.678 587.531 144.283 584.733 152.887 577.242C157.231 573.456 161.328 568.353 165.835 564.731C169.113 562.097 172.883 560.286 176.161 557.817C181.569 553.702 184.847 549.669 191.239 546.458C202.63 540.697 207.302 539.544 212.71 526.622C218.119 513.699 213.694 516.086 213.284 507.773C212.218 485.549 242.294 463.572 250.079 443.736C257.864 423.899 251.39 428.179 254.177 419.701C258.848 405.379 280.072 388.259 291.545 378.135C314.983 357.392 328.423 342.659 361.94 341.589C373.413 341.26 384.64 344.47 395.129 337.638C404.226 331.712 408.241 318.048 407.504 307.677C407.012 300.516 405.127 298.047 398.243 296.072C369.069 287.594 344.812 311.217 323.26 326.773C301.707 342.33 299.986 341.589 290.07 350.561C276.139 363.236 265.158 379.863 251.964 392.95C246.883 398.054 240.573 402.416 235.164 407.19C230.165 411.635 226.15 417.479 220.086 420.606C214.021 423.734 199.516 426.039 190.912 423.487C185.421 421.841 181.16 417.808 175.915 416.079C168.703 413.61 168.458 415.915 169.687 422.335C172.637 438.55 176.079 451.143 170.588 467.935C164.36 487.031 135.186 504.398 125.106 523.329C118.714 535.264 110.847 553.455 96.9158 558.311C86.5083 561.933 72.1672 553.208 64.8737 546.047C62.743 543.989 61.5138 542.343 61.3499 539.133C61.6777 538.721 64.1361 540.779 64.6278 541.191C75.3632 549.833 87.1639 561.686 101.423 551.562C115.682 541.438 116.584 531.56 122.566 520.695C130.187 506.703 148.79 491.969 159.689 479.87C169.687 468.758 171.49 450.156 169.441 435.834C167.392 421.512 165.425 422.829 165.507 417.314C165.589 409.001 175.997 412.129 180.668 414.351C192.223 419.783 194.517 422.993 208.859 420.606C220.659 418.631 223.118 413.116 230.985 406.12C238.196 399.7 245.982 394.103 252.619 387.024C268.518 369.904 280.236 352.783 299.494 338.626C313.754 328.09 328.423 317.472 342.928 307.183C350.467 301.833 369.233 291.956 378.166 291.051C385.951 290.31 405.701 291.215 409.306 299.611C412.912 308.006 409.634 326.444 403.488 334.428C391.933 349.408 375.298 344.388 359.317 345.211C328.013 346.774 312.934 363.648 290.972 383.238C280.482 392.621 261.142 408.342 257.045 421.677C252.947 435.011 256.717 436.081 253.603 444.229C245.982 464.148 215.496 487.195 216.808 508.267C217.217 515.263 219.266 519.543 216.398 526.704C213.53 533.865 207.056 542.919 198.943 546.952C194.108 549.422 187.552 550.903 184.274 555.677C189.846 553.126 194.927 550.985 201.319 551.315C207.711 551.644 207.711 551.726 211.481 551.809C215.251 551.891 215.824 552.714 218.529 552.302C225.248 551.315 229.51 536.91 230.001 531.149C231.067 519.131 230.083 506.456 231.067 494.439C232.05 482.421 245.654 468.676 260.323 467.606C274.992 466.535 263.765 468.593 265.485 467.523C267.043 465.959 266.797 450.897 267.124 447.522C269.255 423.652 282.859 402.663 296.708 383.814C304.739 372.949 320.392 360.109 334.487 359.944C343.091 359.862 344.239 362.084 353.663 358.792C363.169 355.499 372.429 350.067 382.755 349.244C389.966 348.668 396.932 351.384 404.144 350.808C408.405 350.478 411.601 348.997 416.354 349.244C421.107 349.491 423.074 350.808 424.385 350.643C427.499 350.314 429.712 342.659 437.169 343.071C448.724 343.729 456.427 359.45 458.886 369.245C461.344 379.04 458.64 376.9 453.641 379.122C440.611 384.802 416.108 371.303 402.832 367.352C398.653 366.117 387.016 362.743 383.329 363.072C374.806 363.895 366.775 373.772 358.826 377.229C348.5 381.756 338.338 377.558 327.603 380.11C306.87 384.966 289.005 414.845 279.745 432.624C269.419 452.46 282.695 469.252 287.284 488.018C291.873 506.785 290.234 502.505 279.581 501.353C273.107 500.612 260.569 491.558 255.16 494.356C249.505 497.237 247.293 512.135 246.719 518.061C245.244 533.042 247.784 548.681 242.867 563.25C241.392 567.612 238.934 573.95 233.689 574.444C228.444 574.938 219.676 569.094 215.169 567.612C195.009 560.863 186.65 564.155 174.604 580.946C169.851 587.613 158.542 603.499 158.788 611.401C164.524 634.612 170.424 656.26 168.867 680.377C167.31 704.494 166.245 698.649 167.31 707.704C166.819 708.28 163.95 705.399 163.786 704.411C162.557 698.073 164.852 688.032 165.262 681.447C166.573 660.375 162.967 644.325 158.296 624.077C156.247 615.187 153.625 611.566 157.394 602.018C160.427 594.363 176.734 570.164 183.372 565.884C195.501 558.064 204.433 560.287 217.381 564.731C220.987 565.966 229.264 570.575 232.132 570.822C236.639 571.234 239.016 563.579 240.081 560.04C244.67 544.071 239.016 501.599 252.21 492.052C265.404 482.504 273.762 499.706 283.432 497.896C293.102 496.085 284.334 491.558 283.924 489.747C279.417 469.499 264.994 453.037 276.467 431.225C287.038 411.059 306.624 377.97 331.701 375.912C339.814 375.254 346.287 377.394 354.728 375.007C364.562 372.126 372.675 360.273 383.165 359.615C387.918 359.286 401.112 363.319 406.192 364.965C418.567 368.834 437.169 379.369 449.953 376.735C462.737 374.101 455.936 374.348 456.018 372.62C456.1 370.891 452.412 362.084 451.592 360.273C449.216 355.088 446.675 351.219 441.513 348.503C436.35 345.787 435.039 346.034 430.367 349.902C425.696 353.771 429.138 351.631 428.319 352.372C424.057 355.993 421.927 353.277 417.256 352.948C412.584 352.618 407.995 354.265 402.996 354.512C397.997 354.759 389.639 352.372 382.673 352.948C370.708 353.853 360.383 361.59 349.402 363.895C341.452 365.623 335.552 362.413 326.947 364.8C309.001 369.739 292.283 394.35 283.432 409.906C275.237 424.31 271.222 435.916 270.075 452.625C269.747 456.988 271.632 469.828 265.649 471.145C262.945 471.721 259.093 471.227 255.734 471.886C245.654 473.943 235.41 482.751 234.509 493.451C233.034 510.324 236.803 535.182 227.297 549.504C225.904 551.562 223.446 554.854 220.905 555.348C215.251 556.5 207.465 555.101 201.729 554.936C195.993 554.772 194.435 555.183 190.666 556.583C180.422 560.533 161 580.123 155.673 589.836C145.84 607.615 145.43 630.579 146.577 650.663C147.069 658.729 149.609 666.631 150.101 674.697C150.593 682.764 149.527 685.48 150.593 690.748C150.101 691.324 147.069 688.278 147.069 687.455C148.052 674.862 143.709 662.433 142.971 650.169C142.234 637.905 142.644 633.542 142.971 626.134C144.037 599.96 151.986 583.663 170.916 566.213C189.846 548.763 174.03 564.814 174.44 563.167C172.965 563.167 170.998 564.237 170.916 565.719H171.08ZM183.782 556.006C183.208 555.43 181.733 557.323 181.242 557.817C182.061 558.146 184.52 556.747 183.782 556.006Z" fill="#662600"/>
<path d="M348.992 681.117C345.714 679.389 340.879 676.92 337.847 675.027C318.425 662.845 317.441 631.814 335.388 618.15C353.335 604.487 366.037 608.767 381.116 612.471C385.705 613.623 392.097 617.245 396.359 617.574C405.045 618.315 401.767 604.322 401.931 599.631C402.505 587.531 411.437 583.827 412.912 574.938C414.387 566.048 413.814 570.328 412.093 569.094C408.815 566.707 398.571 566.13 394.228 565.06C388 563.579 379.231 559.299 380.133 551.726C382.099 536.334 394.146 533.206 403.98 523.659C407.422 520.284 408.733 518.308 406.438 513.534C404.144 508.76 397.014 501.353 393.572 495.755C388.983 488.265 378.166 466.206 394.556 466.7C414.633 467.276 434.383 483.574 452.904 491.311C464.458 496.167 476.259 495.92 485.765 503.74C495.271 511.559 500.352 517.979 507.891 524.399C520.921 535.511 540.016 549.175 555.094 557.159C575.582 568.106 601.559 573.785 606.149 600.865C608.279 613.541 611.803 637.082 609.263 649.099C606.722 661.116 606.722 654.614 605.985 656.013C597.79 671.899 582.547 681.611 568.698 664.985C557.635 651.651 561.896 636.67 558.946 621.69C556.324 608.355 545.752 616.257 538.868 621.196C528.379 628.686 522.724 637.164 520.184 649.84C517.971 660.705 519.037 676.261 504.45 677.907C499.779 678.401 490.109 676.837 489.207 683.504C487.978 692.476 506.908 705.399 512.399 711.819C525.511 727.129 529.854 752.48 506.662 760.217C489.781 765.897 486.339 759.559 473.227 752.645C460.689 745.978 458.148 753.633 447.823 758.242C435.53 763.757 422.992 759.97 412.584 752.316C394.474 738.981 399.718 718.898 390.13 701.366C383.656 689.348 375.052 691.571 363.661 687.62C358.826 685.891 353.745 683.34 349.156 680.953L348.992 681.117ZM391.032 470.322C386.689 471.639 390.868 483.08 392.097 485.878C396.522 496.002 405.209 503.246 409.388 511.888C412.994 519.296 409.634 522.835 404.39 527.609C401.357 530.408 386.115 541.273 385.705 543.989C385.295 546.705 386.197 545.471 386.033 546.376C385.869 547.281 384.722 547.775 384.312 548.763C383.083 551.562 382.345 553.29 384.312 555.924C393.081 567.694 423.975 556.418 414.961 579.547C405.947 602.676 406.848 588.93 405.619 596.75C404.39 604.569 408.733 613.459 401.603 619.22C394.474 624.982 386.197 617.163 380.215 615.681C350.877 608.355 322.194 617.739 326.702 653.132C328.668 668.853 348.828 678.319 362.104 683.422C374.888 688.361 385.377 685.891 392.835 699.555C404.553 721.038 396.85 748.2 427.745 756.431C443.233 760.547 446.02 753.55 457.984 748.282C469.949 743.015 481.34 759.97 496.664 759.065C511.661 758.242 522.396 747.459 519.037 731.985C515.267 714.535 501.499 708.691 491.338 696.509C487.486 691.982 483.225 684.328 487.322 678.731C492.403 671.816 504.859 677.414 510.678 671.487C515.677 666.466 515.923 650.663 518.135 643.255C520.348 635.847 527.068 625.641 535.099 619.467C545.916 611.154 559.847 603.664 562.47 623.501C564.191 636.588 561.978 651.651 571.156 662.762C580.335 673.874 593.283 670.006 600.822 657.906C607.296 647.535 607.296 639.633 606.149 627.616C605.001 615.599 604.018 608.356 602.543 600.125C598.036 575.843 572.14 569.834 553.537 559.957C537.721 551.562 517.398 536.993 503.794 525.14C495.927 518.308 483.389 503.41 473.964 500.529C470.359 499.377 466.097 499.377 462.41 498.389C440.201 492.463 418.649 471.803 396.522 470.157C395.129 470.075 392.343 469.828 391.114 470.157L391.032 470.322Z" fill="#662600"/>
<path d="M347.926 681.611C356.695 686.55 363.169 690.995 370.544 697.909C377.92 704.823 381.198 707.21 383.738 717.334C388.655 736.594 387.59 756.596 391.769 775.609C394.064 786.145 400.374 791.248 411.191 792.318C427.253 793.882 435.202 783.264 454.542 789.108C473.882 794.952 473.637 795.117 472.325 806.229C472.161 807.628 469.867 815.447 469.129 815.777C463.885 817.67 468.72 808.863 468.965 806.393C469.211 804.006 468.965 800.796 467.49 798.903C466.015 797.01 452.166 791.989 448.56 791.248C432.826 787.956 422.254 799.891 404.717 794.458C394.637 791.33 390.294 785.98 388.327 775.692C384.476 755.937 385.787 733.055 379.559 714.124C373.331 695.192 376.445 708.362 373.74 705.646C357.351 689.266 344.976 684.739 325.554 673.956C301.133 660.375 300.887 628.439 317.605 608.438C327.767 596.256 337.683 600.454 351.368 601.524C365.054 602.594 363.169 601.853 368.66 602.594C376.854 603.664 381.689 608.438 388.245 600.289C393.326 593.869 398.325 580.37 388.983 575.596C380.87 571.563 375.134 571.398 370.299 562.18C365.463 552.961 368.004 546.047 374.314 538.721C380.542 531.478 390.13 526.375 386.033 515.263C381.935 504.151 371.364 492.216 364.726 481.022C357.514 468.84 366.201 462.173 376.773 457.481C412.584 441.595 438.234 466.865 468.965 478.882C471.916 480.034 475.276 480.693 478.226 481.845C487.486 485.384 507.564 499.459 515.595 506.127C527.067 515.674 533.378 528.597 546.162 537.157C551.079 540.45 557.471 542.672 562.06 546.211C570.746 553.043 572.303 558.558 583.612 563.826C600.576 571.81 612.541 577.818 620.162 596.585C628.275 616.751 622.784 655.848 607.624 671.981C599.511 680.624 589.349 683.093 583.203 694.946C572.385 715.688 580.662 736.265 579.433 757.995C578.614 771.494 573.779 786.31 565.174 796.763C556.569 807.216 560.994 801.866 555.75 803.101C550.505 804.335 554.766 803.018 555.012 802.36C555.504 801.29 560.339 797.175 561.568 795.693C568.698 787.297 572.385 778.243 574.516 767.378C580.662 737.006 562.224 703.588 591.316 680.13C596.397 676.014 601.887 673.216 606.312 668.112C619.67 652.391 624.505 615.846 616.556 597.079C609.263 579.959 598.609 574.938 583.121 567.365C571.238 561.603 568.944 556.006 559.519 548.681C554.275 544.565 546.981 542.096 541.327 537.898C529.854 529.42 523.544 516.909 512.562 508.102C504.777 501.929 486.093 488.594 477.406 485.22C474.538 484.15 471.424 483.574 468.474 482.421C439.382 470.98 415.043 447.357 381.28 459.457C376.281 461.268 365.382 466.453 365.382 472.626C365.382 477.976 372.183 484.891 375.052 489.5C379.313 496.167 390.704 513.452 390.786 520.695C390.95 534.606 368.332 540.45 371.692 556.665C374.068 568.106 383.984 568.517 391.523 572.962C403.406 579.959 395.867 598.807 387.426 605.639C380.706 611.072 376.691 607.285 369.561 606.215C362.431 605.145 354.4 605.145 347.271 604.652C332.274 603.582 326.538 600.618 317.195 614.776C313.18 620.949 310.967 628.274 309.984 635.6C307.116 656.589 319.08 669.347 337.847 675.603C337.847 675.932 337.765 676.261 337.929 676.508C338.256 676.92 346.615 680.953 348.008 681.694L347.926 681.611Z" fill="#662600"/>
<path d="M355.548 22.5555C349.647 27.988 344.403 32.9266 341.207 40.5814C337.847 48.7301 339.568 58.7719 336.208 66.756C331.291 78.5263 311.787 80.2548 309.902 91.3667C309.082 96.3053 311.295 100.256 309.492 105.771C306.788 114.084 298.675 117.541 292.775 122.644C292.365 123.056 290.48 124.62 290.972 125.196C293.594 125.443 296.708 126.76 299.33 126.76C313.835 126.76 322.604 115.319 335.88 111.862C358.662 105.936 380.706 112.109 392.671 133.015C402.177 149.642 394.474 155.815 389.884 170.713C388.245 175.981 388.983 178.121 393.736 180.92C403.078 186.352 424.959 188.575 418.567 203.637C415.698 210.387 408.323 213.844 402.013 216.642C392.671 220.84 372.839 228.083 363.169 224.297C359.071 222.651 357.76 219.441 354.892 216.807C352.024 214.173 348.418 212.609 345.714 210.222C341.125 206.024 341.37 203.802 334.405 201.662C323.915 198.37 298.429 192.69 288.103 193.678C277.778 194.666 272.205 202.156 275.237 214.173C279.171 229.73 293.84 240.677 295.397 257.715C296.954 274.753 268.026 292.121 255.733 303.15C237.623 319.365 229.264 340.025 217.709 360.438C206.154 380.851 198.615 389.822 182.799 369.821C177.554 363.154 180.094 352.125 178.865 343.647C176.079 324.962 167.802 310.064 157.23 294.919C148.79 282.82 138.546 275.165 123.303 273.848C112.404 272.86 103.554 278.21 93.5558 269.979C89.6223 266.769 88.5569 261.584 84.3775 259.279C79.6245 256.645 77.3299 258.95 72.7407 260.02C72.9046 254.752 79.3786 254.258 83.4761 255.163C89.4584 256.48 91.753 263.641 95.8504 267.181C104.127 274.259 112.486 269.732 121.828 270.226C147.478 271.543 159.771 290.145 171.244 310.393C177.882 322.081 182.143 337.638 183.044 351.137C183.946 364.636 182.635 358.545 183.044 361.837C183.7 367.846 193.288 377.394 199.516 376.324C205.744 375.254 212.464 362.578 215.169 357.804C226.56 337.638 234.673 317.966 252.21 301.586C269.747 285.207 290.316 276.235 291.873 262.324C293.922 243.805 272.451 228.66 270.976 210.305C269.829 195.653 276.876 190.879 290.562 190.139C304.247 189.398 313.262 193.102 321.867 194.995C330.471 196.888 337.929 198.37 341.944 201.415C345.96 204.461 346.451 206.354 348.828 208.329C351.204 210.305 353.663 211.457 355.712 213.185C358.826 215.819 361.694 220.511 365.627 221.581C374.97 224.297 399.145 215.243 407.667 210.14C412.584 207.177 419.796 200.592 414.715 194.748C409.634 188.904 396.932 187.258 391.196 183.636C378.575 175.652 392.671 160.919 393.572 149.56C394.474 138.201 386.77 128.9 380.132 122.727C369.233 112.685 346.533 111.368 333.094 116.389C319.654 121.41 315.72 128.982 302.854 129.97C289.988 130.958 285.317 130.217 287.12 123.961C288.677 118.529 305.477 113.261 306.624 102.643C307.28 96.9637 304.821 93.2598 307.525 87.2512C312.77 75.7278 330.635 76.3862 333.913 62.1466C335.634 54.821 334.896 46.9193 337.683 39.9229C340.469 32.9266 347.271 21.2386 355.384 22.7202L355.548 22.5555Z" fill="#662600"/>
<path d="M181.078 262.16C179.521 260.76 174.44 260.513 172.063 259.69C159.607 255.328 164.032 243.805 149.036 238.372C138.054 234.421 114.945 228.166 103.636 228.248C92.3267 228.33 92.6545 230.553 87.1639 229.812C87.0819 228.824 87.5736 227.178 88.4751 226.849C95.6046 226.19 101.997 224.791 109.208 225.203C116.42 225.614 144.856 232.281 153.871 236.479C164.442 241.418 162.639 249.237 169.277 254.176C175.915 259.114 182.389 254.916 185.995 263.971C189.6 273.025 186.65 277.634 189.027 283.89C191.403 290.145 195.255 291.215 197.468 295.331C206.154 310.887 190.502 339.366 195.665 356.322C200.828 373.278 197.386 360.932 200.418 358.215C206.318 353.03 212.218 332.041 216.07 323.892C219.922 315.743 227.379 305.208 234.181 297.718C247.211 283.313 265.24 273.93 262.863 251.048C262.126 244.134 256.717 237.796 256.307 231.129C255.897 224.462 259.831 214.996 259.913 207.588C259.995 196.394 248.85 176.31 265.24 171.125C281.63 165.939 280.4 176.31 291.3 178.615C296.626 179.767 301.871 179.109 307.28 180.92C312.442 182.648 315.638 185.941 321.785 187.258C331.619 189.315 337.519 183.883 346.533 184.871C355.548 185.858 353.991 188.575 358.334 189.315C360.793 189.727 363.005 189.562 365.709 190.139C368.414 190.715 371.938 193.102 376.035 192.525C380.133 191.949 377.592 187.011 376.363 185.035C374.068 181.167 368.168 180.179 368.086 174.911C368.086 164.705 383.492 153.181 377.51 141.411C370.544 127.748 351.86 124.455 338.994 131.287C331.864 135.073 326.456 144.292 318.015 145.444C309.574 146.597 308.673 141.164 299.74 143.963C290.808 146.761 293.348 147.831 290.644 148.078C283.105 148.901 274.664 139.929 272.205 133.345C266.305 117.294 276.385 110.133 283.35 97.2929C290.48 84.1233 294.987 68.1552 281.466 57.1256C278.597 54.8209 270.402 53.0101 270.075 52.5163C268.354 49.9647 272.697 49.8 274.336 50.047C286.137 51.6109 294.905 67.0028 293.84 78.2793C292.365 95.2351 279.581 104.948 274.746 118.776C269.911 132.604 276.631 138.283 284.662 142.81C291.709 146.843 292.775 142.234 298.921 140.506C305.067 138.777 306.132 139.106 310.148 140.176C314.163 141.246 312.77 141.576 314.081 141.823C322.031 143.14 326.947 135.896 332.356 131.698C347.025 120.34 369.397 121.821 379.805 138.119C387.344 149.971 377.428 159.437 373.167 169.561C368.905 179.685 373.822 176.228 378.084 181.167C382.345 186.105 383.984 194.089 377.838 195.736C372.101 197.217 368.742 193.925 363.743 193.019C358.744 192.114 358.252 192.937 355.466 192.114C352.68 191.291 349.402 188.575 346.615 188.245C339.65 187.34 334.487 190.962 328.259 191.291C322.03 191.62 315.393 188.492 309.246 185.447C303.1 182.401 294.004 183.389 286.219 180.508C278.433 177.627 276.631 171.29 266.551 174.253C256.471 177.216 262.126 194.336 262.945 202.897C263.765 212.115 260.732 218.453 259.995 226.849C259.257 235.244 265.567 242.076 266.469 250.801C268.763 274.095 252.292 283.149 238.852 297.471C222.216 315.167 219.676 326.938 210.416 348.009C201.155 369.08 199.516 370.233 193.452 359.944C186.814 348.667 198.123 317.472 196.402 302.409C195.419 294.178 188.535 291.874 185.913 284.877C183.29 277.881 185.175 265.699 181.078 261.913V262.16Z" fill="#662600"/>
<path d="M109.618 192.032C109.536 189.562 111.749 188.575 113.879 188.986C149.937 194.748 183.208 210.798 201.647 243.805C220.085 276.811 208.776 263.724 221.069 270.226C233.361 276.729 228.117 273.93 232.542 271.379C246.473 263.312 242.949 246.603 243.769 233.187C244.588 219.77 249.915 202.732 243.851 190.221C239.18 180.591 220.413 169.643 233.853 158.943C247.293 148.243 249.423 154.581 253.767 145.774C258.11 136.966 250.161 126.842 250.325 116.8C250.489 106.759 270.156 93.3421 270.73 79.514C271.058 70.9538 257.29 68.9783 250.98 70.9538C232.378 76.7155 225.658 102.314 201.319 102.314C176.98 102.314 193.862 101.573 193.288 101.244C191.731 100.503 194.599 98.4453 195.747 98.1984C197.713 97.8691 200.5 98.7745 202.794 98.6922C227.871 97.9514 239.753 55.8088 266.96 68.9783C279.089 74.8224 273.107 86.8396 267.534 95.2352C261.962 103.631 254.832 109.228 254.012 114.825C252.21 127.748 264.83 137.543 254.914 150.383C244.998 163.223 247.129 155.733 241.556 158.367C221.806 167.668 240.491 176.475 246.391 187.587C252.292 198.699 248.276 217.63 247.293 232.117C246.473 245.122 249.505 260.761 238.934 270.638C228.362 280.515 227.297 277.716 218.528 272.778C206.154 265.699 205.335 257.633 199.106 246.356C181.405 213.844 148.462 197.958 113.224 192.196C111.994 192.032 110.765 192.032 109.536 192.032H109.618Z" fill="#662600"/>
<path d="M101.505 624.9C101.505 624.817 100.767 624.9 100.521 624.9C100.276 624.406 99.4561 623.912 99.2103 623.336C98.7186 622.019 101.833 615.763 102.734 614.199C108.061 604.652 117.403 597.984 124.369 589.424C134.612 576.748 144.856 564.402 158.46 554.772C162.147 552.22 166.081 550.574 169.605 547.611C174.849 543.166 179.766 537.075 184.847 532.301C188.945 528.432 193.206 526.375 196.73 521.272C204.023 510.818 201.073 500.036 205.253 489.006C208.94 479.293 217.053 471.227 220.987 461.926C224.101 454.518 215.578 451.143 209.678 449.58C203.614 447.933 200.254 447.686 194.271 449.991C181.897 454.683 180.832 465.63 176.325 476.413C166.245 500.365 146.167 521.025 131.416 542.096C121.582 556.171 116.829 574.526 96.0962 572.798C85.6067 571.974 76.7562 567.118 69.3808 559.875C67.2501 557.735 66.6764 555.842 65.8569 552.961C66.7584 552.055 73.3143 558.805 74.2158 559.546C78.3132 562.756 83.3121 566.377 88.393 567.777C114.207 575.02 117.157 556.253 128.958 539.462C140.759 522.671 160.017 501.929 170.506 481.104C175.751 470.569 177.144 457.728 186.814 449.991C195.91 442.748 210.17 443.653 219.512 449.826C228.854 456 226.723 457.481 223.691 464.066C218.037 476.248 208.121 485.055 206.236 499.048C203.04 521.683 203.286 519.296 187.634 534.441C182.553 539.297 177.39 545.553 172.145 549.998C168.785 552.796 165.098 554.36 161.574 556.747C146.987 566.871 137.071 579.135 126.09 592.634C119.698 600.536 111.093 606.545 105.93 615.269C104.209 618.15 102.816 621.69 101.423 624.817L101.505 624.9Z" fill="#662600"/>
<path d="M139.611 152.77C138.71 151.535 141.086 149.313 143.463 150.712C149.855 154.416 150.674 170.22 152.887 176.969C156.739 188.986 171.244 203.884 182.389 209.646C193.534 215.408 195.419 214.338 201.319 218.206C208.776 223.145 210.661 229.236 221.479 224.956C232.296 220.676 229.018 215.243 228.608 208.082C227.707 193.431 221.151 187.834 214.021 176.804C200.336 155.404 216.889 150.959 222.872 134.003C226.314 124.291 221.315 118.282 211.563 117.541C201.811 116.801 193.944 120.175 188.207 116.06C182.471 111.944 181.815 109.886 181.815 109.146C181.815 108.405 184.356 107.335 184.519 107.417C185.421 107.582 187.879 111.368 188.863 112.273C193.944 116.883 199.516 114.331 205.417 114.084C214.021 113.755 223.937 114.825 226.641 124.373C231.231 140.588 211.071 149.889 212.3 164.293C213.038 172.771 224.347 183.389 228.116 192.279C231.886 201.168 235.82 221.416 225.166 227.26C211.563 234.751 208.039 226.52 198.369 220.593C192.55 217.054 185.749 215.49 179.684 212.28C167.474 205.778 152.723 189.727 148.953 176.311C146.987 169.314 147.151 158.12 141.25 153.428C135.35 148.737 139.611 152.935 139.611 152.852V152.77Z" fill="#662600"/>
<path d="M357.514 137.049C364.808 135.979 369.151 139.6 367.594 147.173C366.037 154.745 360.301 157.873 357.433 161.989C354.564 166.104 354.236 167.833 352.27 170.549C346.287 178.78 335.716 184.624 325.8 179.356C322.44 177.545 313.098 168.82 310.967 165.693C308.755 162.4 308.509 157.708 312.197 155.404C315.884 153.099 320.801 152.605 322.44 152.441C327.603 151.782 331.537 152.688 336.781 150.465C343.911 147.42 348.582 138.366 357.514 137.049ZM357.514 140.588C350.467 141.823 344.648 150.877 338.011 153.675C331.782 156.309 327.029 154.91 321.129 156.145C315.229 157.379 312.524 159.272 312.36 160.672C312.115 163.141 320.391 171.125 322.522 172.936C328.75 178.121 332.848 179.685 340.469 176.146C348.91 172.277 350.303 166.104 355.138 159.19C357.842 155.321 367.758 146.185 363.497 141.411C359.235 136.637 359.317 140.259 357.514 140.588Z" fill="#662600"/>
<path d="M448.478 67.6612C457.738 66.1796 463.147 71.859 462.246 80.9954C460.77 96.1404 448.724 111.285 434.874 96.3874C429.63 90.708 425.45 85.4401 430.695 77.8676C433.809 73.4229 434.547 74.246 438.808 72.7644C442.086 71.6121 444.217 68.3197 448.478 67.6612ZM448.478 71.2005C445.118 71.7767 442.25 75.3983 438.972 76.4683C435.694 77.5384 436.268 76.4683 435.366 76.9622C434.055 77.703 431.351 82.9708 431.351 84.6993C431.351 86.4278 437.005 94.0004 438.726 95.5643C445.692 101.82 452.903 98.6097 456.099 90.6257C459.377 82.3947 462.164 68.8135 448.478 71.2005Z" fill="#662600"/>
</g>
</g>
<defs>
<clipPath id="clip0_1_148">
<path d="M0 28C0 12.536 12.536 0 28 0H469C484.464 0 497 12.536 497 28V455C497 470.464 484.464 483 469 483H28C12.536 483 0 470.464 0 455V28Z" fill="white"/>
</clipPath>
</defs>
</svg>
