<svg width="769" height="83" viewBox="0 0 769 83" fill="none" xmlns="http://www.w3.org/2000/svg">
<g filter="url(#filter0_dd_1_268)">
<path d="M17.6869 26.657H11L19.3586 8.00089H24.3737L17.6869 26.657ZM29.3889 26.657H22.702L31.0606 8.00089H36.0758L29.3889 26.657ZM77.5998 66.0421H71.5815L68.7396 51.7806H40.9891L32.9648 66.0421H26.6122L59.378 8.00089H65.3962L77.5998 66.0421ZM61.4676 15.2146L43.9982 46.3081H67.653L61.4676 15.2146ZM110.928 67.0371C102.179 67.0371 95.4085 63.9968 90.6162 57.9163C85.8797 51.8911 84.2637 44.6498 85.7683 36.1923C87.2728 27.8455 91.3128 20.9082 97.8882 15.3804C104.519 9.79741 111.958 7.00592 120.206 7.00592C125.834 7.00592 130.71 8.27729 134.833 10.82C139.012 13.3628 142.133 16.9005 144.195 21.4333L139.012 24.1695C135.502 16.486 129.205 12.6442 120.122 12.6442C112.989 12.6442 106.72 14.9935 101.315 19.6921C95.91 24.3906 92.6223 30.1671 91.4521 37.0215C90.2819 43.9312 91.5914 49.7353 95.3806 54.4339C99.1141 59.0771 104.519 61.3988 111.596 61.3988C116.11 61.3988 120.317 60.3485 124.218 58.248C128.174 56.1475 131.406 53.2454 133.914 49.5418L138.845 52.6097C135.725 57.0319 131.685 60.542 126.725 63.14C121.766 65.7381 116.5 67.0371 110.928 67.0371ZM152.248 8.00089H194.041L193.122 13.4733H175.067L165.789 66.0421H159.938L169.216 13.4733H151.329L152.248 8.00089ZM234.767 66.0421H228.749L225.907 51.7806H198.156L190.132 66.0421H183.78L216.545 8.00089H222.563L234.767 66.0421ZM218.635 15.2146L201.166 46.3081H224.82L218.635 15.2146ZM272.371 66.0421H266.52L276.801 8.00089H281.315L306.14 55.1801L314.415 8.00089H320.266L309.985 66.0421H305.471L280.73 18.8629L272.371 66.0421ZM352.086 67.0371C343.672 67.0371 336.985 63.9968 332.025 57.9163C327.122 51.8358 325.422 44.5945 326.927 36.1923C328.32 27.956 332.36 21.0187 339.047 15.3804C345.789 9.79741 353.479 7.00592 362.116 7.00592C367.522 6.89537 372.37 8.33258 376.66 11.3176C381.007 14.2473 384.155 18.1443 386.106 23.0087C388.056 27.8731 388.502 32.9586 387.443 38.2652C385.938 46.6121 381.871 53.4941 375.239 58.9113C368.608 64.3285 360.89 67.0371 352.086 67.0371ZM353.089 61.3988C360.277 61.3988 366.491 59.1324 371.729 54.5997C377.023 50.067 380.31 44.3457 381.592 37.4361C382.762 30.5264 381.397 24.6947 377.496 19.9408C373.651 15.0764 368.19 12.6442 361.113 12.6442C354.036 12.6442 347.851 14.9935 342.557 19.6921C337.208 24.4459 333.948 30.2224 332.778 37.0215C331.552 43.8206 332.861 49.5971 336.706 54.3509C340.607 59.0495 346.068 61.3988 353.089 61.3988ZM400.032 66.0421H394.181L404.462 8.00089H408.976L433.801 55.1801L442.076 8.00089H447.927L437.646 66.0421H433.132L408.391 18.8629L400.032 66.0421ZM496.965 66.0421H490.947L479.663 8.00089H485.514L494.876 58.6626L522.292 8.00089H528.812L496.965 66.0421ZM571.892 8.00089L570.972 13.4733H542.888L539.293 34.0365H565.205L564.202 39.509H538.29L534.613 60.5696H563.032L562.029 66.0421H527.759L538.04 8.00089H571.892ZM584.035 8.00089H607.439C612.12 8.00089 615.909 9.85269 618.807 13.5563C621.76 17.2599 622.791 21.4886 621.899 26.2424C621.231 30.1118 619.475 33.5114 616.633 36.4411C613.791 39.3155 610.392 41.2226 606.436 42.1623L616.383 66.0421H610.281L600.668 42.8256H583.7L579.605 66.0421H573.754L584.035 8.00089ZM616.215 25.4133C616.773 22.0966 616.104 19.2775 614.209 16.9558C612.259 14.6342 609.696 13.4733 606.519 13.4733H588.883L584.703 37.3532H602.257C605.544 37.3532 608.525 36.1924 611.2 33.8707C613.986 31.4385 615.658 28.6193 616.215 25.4133ZM673.167 24.0037C672.331 29.3103 669.349 33.3456 664.223 36.1094C666.786 37.4361 668.681 39.3708 669.907 41.9135C671.133 44.401 671.495 47.1925 670.993 50.2881C670.325 54.7103 668.207 58.4415 664.641 61.4817C661.075 64.522 656.839 66.0421 651.936 66.0421H626.442L636.723 8.00089H659.041C663.61 8.00089 667.26 9.57631 669.99 12.7271C672.777 15.8779 673.835 19.6368 673.167 24.0037ZM658.873 13.4733H641.571L638.061 33.7049H655.697C658.428 33.7049 660.935 32.7375 663.22 30.8028C665.505 28.7575 666.898 26.353 667.399 23.5891C667.901 20.77 667.316 18.3931 665.644 16.4583C664.028 14.4684 661.771 13.4733 658.873 13.4733ZM656.7 39.1773H637.058L633.296 60.5696H652.437C655.558 60.5696 658.344 59.5194 660.796 57.4188C663.248 55.3183 664.724 52.8032 665.226 49.8735C665.727 46.9438 665.142 44.4287 663.471 42.3281C661.855 40.2276 659.598 39.1773 656.7 39.1773ZM725.081 66.0421H719.063L716.221 51.7806H688.473L680.448 66.0421H674.096L706.859 8.00089H712.878L725.081 66.0421ZM708.949 15.2146L691.482 46.3081H715.134L708.949 15.2146ZM739.611 8.00089H746.298L737.939 26.657H732.924L739.611 8.00089ZM751.313 8.00089H758L749.641 26.657H744.626L751.313 8.00089Z" fill="white"/>
</g>
<defs>
<filter id="filter0_dd_1_268" x="0" y="0" width="769" height="82.0371" filterUnits="userSpaceOnUse" color-interpolation-filters="sRGB">
<feFlood flood-opacity="0" result="BackgroundImageFix"/>
<feColorMatrix in="SourceAlpha" type="matrix" values="0 0 0 0 0 0 0 0 0 0 0 0 0 0 0 0 0 0 127 0" result="hardAlpha"/>
<feOffset dy="1"/>
<feGaussianBlur stdDeviation="1.5"/>
<feColorMatrix type="matrix" values="0 0 0 0 0 0 0 0 0 0 0 0 0 0 0 0 0 0 0.3 0"/>
<feBlend mode="normal" in2="BackgroundImageFix" result="effect1_dropShadow_1_268"/>
<feColorMatrix in="SourceAlpha" type="matrix" values="0 0 0 0 0 0 0 0 0 0 0 0 0 0 0 0 0 0 127 0" result="hardAlpha"/>
<feMorphology radius="3" operator="dilate" in="SourceAlpha" result="effect2_dropShadow_1_268"/>
<feOffset dy="4"/>
<feGaussianBlur stdDeviation="4"/>
<feColorMatrix type="matrix" values="0 0 0 0 0 0 0 0 0 0 0 0 0 0 0 0 0 0 0.15 0"/>
<feBlend mode="normal" in2="effect1_dropShadow_1_268" result="effect2_dropShadow_1_268"/>
<feBlend mode="normal" in="SourceGraphic" in2="effect2_dropShadow_1_268" result="shape"/>
</filter>
</defs>
</svg>
