<svg width="187" height="150" viewBox="0 0 187 150" fill="none" xmlns="http://www.w3.org/2000/svg">
<g opacity="0.03">
<g clip-path="url(#clip0_1_2344)">
<path d="M183.692 -14.7412C182.524 -13.6721 181.323 -10.6984 180.389 -9.22821C177.185 -4.11613 172.948 0.160652 166.374 -0.541007C160.968 -1.10902 154.962 -7.25688 155.496 -12.8367C156.03 -18.4166 162.27 -22.6934 164.772 -27.1706C166.074 -29.5095 167.375 -32.7171 163.271 -32.6168C159.934 -32.55 148.389 -27.9057 145.519 -25.9344C140.414 -22.4595 142.816 -18.3164 140.08 -14.1732C137.344 -10.0301 134.241 -9.76281 130.47 -8.86067C129.803 -8.69361 125.865 -8.19243 125.698 -7.92513C125.264 -7.2903 126.766 -6.7557 127.2 -6.62205C131.504 -5.15191 135.475 -5.9538 139.78 -3.68176C147.488 0.427952 152.626 6.64264 153.227 15.5971C153.361 17.7355 152.793 19.9742 153.027 22.0123C153.828 30.0981 163.671 28.6614 164.205 38.9858C164.606 46.6372 159.901 47.5393 153.327 46.9713C152.293 46.8711 151.225 46.3699 150.224 46.3365C147.054 46.2028 145.119 50.1121 142.516 51.482C139.78 52.9521 137.144 52.8185 134.207 51.9832C128.868 50.513 126.065 45.6682 120.76 43.6969C115.488 41.7256 110.382 43.8974 111.016 50.1455C111.517 55.1908 113.819 57.3626 111.717 62.909C106.511 76.6415 91.6626 79.6152 85.2225 91.9109C83.9212 94.4168 83.1537 97.1232 81.9858 99.6626C79.283 105.51 71.9753 116.001 64.4675 113.93C61.2641 113.061 60.8637 110.989 59.1285 108.717C55.9919 104.608 54.824 104.24 53.3225 98.7938C51.8209 93.3476 52.0211 85.6294 48.1838 82.1545C43.6457 78.0448 37.8062 77.9445 32.2337 79.8825C30.2316 80.5841 26.9282 82.7893 25.193 82.9898C23.2243 83.1903 22.9907 81.8872 21.7561 81.4863C19.1534 80.651 17.4516 84.4934 15.2827 84.4934C13.1137 84.4934 13.5141 81.4528 12.2461 80.8848C11.0783 80.3836 9.54331 80.8848 8.37543 81.1521C8.10848 79.4815 9.57668 79.281 10.9781 79.281C12.3796 79.281 13.6142 79.9827 14.4151 81.4528C15.2159 82.923 14.8155 83.0566 15.316 83.0566C16.584 83.0566 18.6528 79.682 21.2889 79.9493C22.7905 80.0829 23.925 81.6867 25.0262 81.5865C26.1273 81.4863 27.8625 80.25 28.997 79.7488C35.9042 76.7417 43.2119 75.7393 49.2515 81.1855C54.7573 86.164 52.555 98.3595 57.1265 104.374C61.6979 110.388 59.0618 106.312 59.896 107.414C62.5655 110.923 63.2328 114.197 68.8053 112.359C79.1161 108.985 81.0515 94.2832 86.8242 86.8991C93.9984 77.6438 105.911 74.336 110.449 62.4746C112.851 56.1931 107.412 49.7111 110.649 44.8664C114.353 39.3199 121.928 42.0931 126.332 45.0668C129.836 47.4057 130.136 49.5107 135.075 50.8137C141.481 52.5178 142.182 49.6443 146.32 46.4033C149.857 43.6301 152.493 45.9021 156.464 45.7685C157.398 45.7351 159.5 45.4678 160.368 45.1002C163.571 43.7971 163.104 38.1505 162.17 35.5109C160.301 30.0313 152.226 29.9979 151.625 21.8453C151.025 13.6926 152.059 18.4706 152.059 16.9002C151.959 8.11279 146.42 1.16302 138.812 -2.61257C131.204 -6.38816 130.57 -3.81541 126.599 -5.28556C122.628 -6.7557 122.495 -7.92513 125.231 -9.12797C129.002 -10.7652 133.506 -9.96328 137.144 -12.9704C141.682 -16.6792 139.112 -21.5239 143.05 -25.7005C146.987 -29.877 155.263 -32.0488 158.699 -33.0178C161.736 -33.8865 167.842 -35.1896 167.542 -30.1777C167.275 -25.3998 159.801 -19.7197 157.765 -15.2758C154.195 -7.39054 164.472 0.929137 172.247 -2.84646C178.52 -5.88698 178.554 -10.7986 182.324 -15.1422C185.461 -18.8176 190.833 -15.6434 194.003 -13.5718C198.441 -10.6984 206.483 -4.14954 199.475 0.561601C193.569 4.53767 182.358 4.73814 183.993 15.1294C184.927 21.177 187.997 21.7784 191.467 25.4872C197.34 31.8021 190.499 40.055 195.938 46.704C200.844 52.6848 209.486 48.0739 215.826 49.1765C222.166 50.2791 227.238 61.1047 235.013 64.1453C242.787 67.1858 242.02 64.6799 244.856 63.878C250.896 62.2073 255.334 52.1502 259.105 47.673C262.875 43.1957 261.874 44.7661 263.876 44.5656C269.582 43.9976 269.449 48.4081 274.32 49.4438C277.49 50.1121 282.195 49.2099 281.561 54.2218C280.927 59.2336 278.024 56.0261 276.289 56.1931C270.183 56.7277 265.912 64.045 262.308 68.3218C258.704 72.5986 257.303 74.4697 254.867 77.0424C249.928 82.2547 243.789 82.8562 242.087 90.9754C240.719 97.5242 242.087 111.524 251.797 108.985C256.268 107.815 262.975 105.577 267.146 103.639C271.05 101.834 275.956 97.4574 280.026 101.367C283.664 104.875 279.659 109.352 277.023 111.858C269.983 118.507 261.707 124.722 266.379 135.982C268.414 140.893 275.255 143.232 270.183 149.347C268.715 151.151 266.245 152.287 264.41 153.724C262.575 155.16 257.77 159.972 254.934 160.206C249.862 160.607 249.561 152.22 248.594 148.779C246.992 142.998 244.523 139.891 238.817 137.819C236.881 137.118 235.28 136.45 233.444 137.819C231.275 139.457 230.441 142.096 227.405 143.8C218.329 148.879 221.632 137.819 219.33 133.543C216.96 129.166 209.019 134.545 206.082 128.163C204.547 124.822 204.347 121.815 201.211 119.175C199.042 117.371 197.573 117.538 195.138 116.77C192.702 116.001 190.399 112.827 187.73 110.889C185.461 110.522 183.125 115.099 181.824 116.569C175.45 123.987 168.476 115.567 161.602 114.464C154.729 113.362 155.296 115.366 152.393 113.328C148.789 110.856 148.289 109.519 143.25 109.853C138.211 110.187 138.612 111.724 135.408 112.994C130.17 115.066 125.698 109.753 119.292 112.593C112.885 115.433 116.789 114.164 115.488 115.634C110.749 121.113 100.172 129.8 101.64 137.819C102.974 145.17 110.015 153.791 113.853 160.206C114.987 162.11 116.922 165.05 115.521 167.222C112.885 171.299 107.246 165.652 104.643 164.048C102.04 162.444 97.0683 159.671 94.6658 160.039C91.5625 160.54 90.7283 164.315 90.3946 166.955C89.6939 172.735 90.5948 176.945 91.1621 182.492C91.4958 185.766 91.062 192.582 89.0265 195.222C85.7231 199.465 81.1182 193.418 78.5489 191.413C74.6782 188.372 71.2079 186.869 66.2026 188.138C62.4654 189.074 57.5602 195.523 56.726 199.164C56.1254 201.804 56.9262 205.246 56.8595 207.985C56.7928 209.756 56.1921 211.828 56.2255 213.565C56.3256 219.279 60.5634 222.954 60.163 229.102C59.9294 232.777 56.9596 240.228 57.5269 242.935C58.0941 245.641 59.1286 244.639 58.2276 245.374C57.3267 246.109 56.6259 244.639 56.3924 244.071C55.1244 240.796 58.3944 233.479 58.7281 229.503C59.0618 225.527 57.1932 222.887 55.8251 218.544C54.5237 214.434 55.1911 212.596 55.4247 208.587C55.8585 200.802 53.6228 199.365 58.8616 192.315C64.1004 185.265 71.6416 184.263 79.016 189.943C80.7512 191.279 84.2548 195.322 86.3904 195.222C87.625 195.155 88.259 194.119 88.6261 193.083C91.5291 185.064 88.4593 178.883 88.7596 170.831C88.8597 168.459 89.0932 165.251 89.8607 163.012C93.331 152.688 105.41 163.28 110.416 166.32C112.418 167.523 115.087 167.723 114.587 164.65C114.086 161.576 107.379 152.655 105.811 150.015C103.075 145.404 99.3039 139.423 100.438 133.81C101.873 126.76 107.746 122.35 112.251 117.438C115.454 113.963 116.589 110.789 122.195 110.221C127.8 109.653 131.438 113.261 135.375 111.424C139.312 109.586 140.647 107.849 145.919 108.35C149.99 108.751 150.658 110.622 153.527 112.359C155.663 113.662 159.767 112.593 162.67 113.161C167.275 114.063 171.913 118.474 176.618 118.073C180.756 117.739 181.99 112.66 184.793 110.522C188.798 107.481 189.999 111.223 192.535 113.529C195.405 116.135 199.242 115.4 202.278 118.073C205.782 121.214 205.715 124.254 207.584 127.896C209.686 132.006 215.993 128.464 219.563 131.438C223.134 134.411 221.365 142.597 223.067 143.466C224.769 144.335 226.47 142.731 227.371 142.163C231.342 139.624 231.876 134.411 237.749 135.848C244.256 137.452 248.093 141.562 249.928 147.877C251.764 154.191 250.863 153.423 251.764 155.795C252.197 156.898 253.132 158.635 254.466 158.702C256.902 158.869 261.273 154.359 263.276 152.822C265.611 150.984 270.617 148.545 270.717 145.137C270.783 143.065 266.979 139.858 265.845 137.786C261.14 129.199 265.178 120.679 271.651 114.564C274.421 111.925 280.66 108.25 280.026 103.906C279.392 99.5623 277.991 101.266 276.623 101.099C274.354 100.832 269.649 104.006 267.38 105.042C265.111 106.078 264.61 106.245 263.276 106.713C260.005 107.849 254.767 109.753 251.497 110.455C241.987 112.526 239.751 99.4955 240.552 92.6794C241.853 81.787 248.293 82.0877 254.433 75.472C257.203 72.4983 260.039 68.8564 262.708 65.7156C266.512 61.2384 269.949 55.2576 276.489 54.6562C277.824 54.5225 280.327 55.2576 280.427 53.4533C280.594 50.5798 276.523 51.1813 274.654 50.8472C271.217 50.2123 270.95 49.3436 268.715 47.272C266.245 44.9666 263.009 45.5346 260.84 47.9069C256.368 52.7851 252.564 63.0761 245.524 65.1142C237.882 67.3194 233.378 66.15 227.939 60.5701C225.369 57.964 221.665 52.5846 218.429 51.2481C217.127 50.7135 213.79 50.2791 212.322 50.2791C209.486 50.2791 206.283 51.4152 203.413 51.3149C196.873 51.1145 192.835 46.5704 192.335 40.222C191.968 35.4441 194.504 31.0336 191 26.8571C189.131 24.6519 186.428 23.3822 184.86 20.7761C181.724 15.5971 181.59 9.64975 186.328 5.40639C191.067 1.16302 199.042 0.728662 200.643 -2.4121C201.444 -3.94906 200.91 -5.15191 200.076 -6.4884C198.107 -9.56233 190.633 -14.9751 187.029 -15.4095C183.425 -15.8439 184.793 -15.5431 183.926 -14.7412H183.692Z" fill="white"/>
<path d="M4.80511 97.691C4.80511 97.29 4.67164 96.6218 5.13879 96.4881C5.60595 96.3545 9.14299 96.4213 9.77698 96.5549C11.7123 96.9559 15.6164 99.7291 15.483 101.934C15.3495 104.14 9.30983 105.008 8.94278 108.617C8.57572 112.225 11.7791 113.027 12.9803 115.099C16.8844 121.948 10.144 125.022 11.2452 130.936C12.3463 136.85 22.19 137.585 19.2202 146.874C18.2192 150.015 15.5497 152.955 15.7499 156.463C15.9501 159.972 17.2848 162.377 18.3526 163.814C19.4204 165.251 20.288 165.585 21.9898 165.217C27.1285 164.115 33.6019 155.962 35.6374 151.318C37.6729 146.673 37.4726 144.702 39.4414 142.296C41.4101 139.891 43.9795 140.325 44.2464 136.549C44.6802 131.103 40.7761 129.767 38.3069 125.958C34.4695 120.01 36.5717 114.898 36.2047 108.383C35.9377 103.538 33.702 98.7936 34.3694 93.8819C34.8699 90.3068 39.2745 89.9727 41.944 91.2424C45.6145 92.9798 49.8856 101.901 52.2548 105.576C55.1912 110.12 59.7626 118.473 66.0692 116.97C67.5708 116.602 72.4092 114.263 73.9108 113.428C81.085 109.486 86.3238 96.3545 91.7294 90.0395C97.9693 82.7556 114.42 74.6365 117.39 65.7822C118.891 61.2381 117.39 58.9661 117.089 54.6893C116.822 50.5462 118.324 48.4746 122.528 50.4793C126.466 52.3504 130.737 55.2573 134.641 57.0282C138.545 58.799 140.848 57.6296 143.984 56.3599C147.121 55.0902 150.091 51.8158 153.461 51.3481C159.167 50.5796 167.642 57.8969 171.58 50.2455C174.449 44.699 172.681 36.4796 169.177 31.568C166.875 28.327 163.371 26.1886 160.969 22.7805C157.832 18.3367 153.828 8.01226 157.498 3.2343C161.169 -1.54366 163.204 0.294012 166.541 1.86439C169.878 3.43477 169.744 4.13643 171.546 4.10302C174.416 4.00279 178.687 -1.6439 181.69 1.39662C184.693 4.43714 180.155 15.2962 179.755 19.7734C178.954 28.1265 184.794 28.8616 187.063 35.6108C189.332 42.2933 184.96 46.5367 191.2 52.3838C197.44 58.231 196.839 56.8945 198.441 56.9613C202.746 55.8587 207.15 53.453 211.522 52.6511C216.293 51.7824 219.897 53.1189 220.631 58.2978C221.098 61.3718 220.698 62.6748 222.433 65.6151C225.937 71.5625 231.009 71.5625 236.214 74.8369C243.955 79.7151 233.444 84.5933 230.074 87.6004C223.935 93.0801 227.205 98.9272 228.873 105.576C230.141 110.555 232.043 119.376 228.106 123.552C226.237 125.557 222.667 125.958 220.297 124.722C217.928 123.485 213.323 118.707 211.922 116.536C207.784 110.254 209.62 100.899 205.882 93.7817C202.846 88.0014 199.476 92.2447 195.138 93.7817C191.334 95.1516 188.764 94.9177 185.628 92.3116C184.527 91.4094 180.823 87.7675 180.589 86.5646C180.055 83.5575 184.16 79.8154 186.595 78.6125C190.099 76.8751 194.871 77.1758 197.674 75.004C200.41 72.899 198.942 70.9945 196.639 69.4241C194.337 67.8538 185.428 64.4123 182.524 64.8132C178.821 65.3144 174.783 70.2929 170.879 67.4528C167.943 65.3144 167.943 63.1092 163.705 61.6056C159.467 60.1021 158.433 60.2023 154.762 61.2715C150.691 62.441 149.657 64.0113 146.487 66.0161C141.448 69.2237 137.744 63.3097 133.073 63.9779C128.334 64.6796 125.632 70.4599 123.062 73.8346C120.726 76.9085 116.188 78.6793 112.852 80.8177C106.145 85.1279 100.539 90.6075 95.3332 96.6552C89.4938 103.471 83.0537 114.664 74.8785 118.24C72.4092 119.342 66.8701 121.247 64.2674 121.481C56.4258 122.216 50.0191 111.323 45.7813 106.077C44.7136 104.875 43.6791 106.445 43.1119 107.381C40.1755 112.159 42.9117 116.201 45.2475 120.512C48.651 126.793 52.7887 131.237 51.9211 138.989C51.2871 144.669 43.846 153.924 39.8752 158C35.5707 162.411 33.5018 165.618 29.9314 170.43C28.3631 172.535 26.6613 173.136 24.1253 173.537C17.9856 174.506 13.7478 173.537 9.3432 169.127C8.67583 168.458 8.27541 167.757 8.30878 166.754H8.8093C11.7791 169.093 14.4152 172.167 18.386 172.535C19.8876 172.668 22.7906 172.368 24.2922 172.1C25.7938 171.833 27.3287 171.432 28.4632 170.062C30.4653 167.656 32.1337 164.415 34.1692 161.909C36.6051 158.936 39.7417 156.731 42.1108 153.69C46.6155 147.943 52.7887 139.857 49.919 132.206C47.7834 126.492 39.8752 116.669 40.3757 111.123C40.6093 108.416 43.2454 102.335 46.6489 104.975C50.3194 109.419 56.3257 119.476 62.599 120.111C65.235 120.378 72.209 117.972 74.7784 116.769C82.0526 113.395 89.2268 101.533 94.6659 95.2519C100.105 88.9369 105.711 83.6912 112.785 79.2139C115.421 77.5433 119.625 75.7391 121.561 73.467C124.864 69.5578 126.966 63.3431 133.006 62.5412C139.046 61.7393 140.18 65.8156 143.684 65.5817C145.653 65.4481 147.354 63.2094 149.023 62.2071C155.296 58.3312 163.505 57.83 168.977 63.3097C170.145 64.4791 171.213 66.6843 173.015 66.9516C174.816 67.2189 179.088 64.1116 181.457 63.577C183.826 63.0424 187.697 64.1784 190.5 65.1808C193.87 66.3836 203.413 69.8585 199.809 74.9038C196.339 79.7151 187.396 76.7414 182.925 83.6912C178.454 90.641 181.59 85.4955 182.091 86.6983C182.591 87.9011 186.195 91.0085 186.796 91.5097C189.031 93.3139 191.1 93.5812 193.836 92.7793C198.808 91.3092 203.079 85.9632 206.883 92.7793C211.321 100.765 208.652 110.822 214.525 117.638C215.893 119.242 219.964 123.352 221.832 123.786C230.141 125.824 229.44 114.598 228.406 109.552C227.205 103.605 223.167 95.6528 226.337 89.8725C228.172 86.4978 231.376 85.1279 234.212 82.8225C237.048 80.517 239.351 78.7462 235.847 76.2402C230.842 72.6317 225.803 73.1997 221.732 67.1521C219.263 63.4767 219.897 62.04 219.196 58.0974C217.795 50.4459 208.018 55.1237 203.38 56.7274C201.911 57.2286 199.743 58.4649 198.208 58.3981C195.872 58.2644 189.966 53.453 188.497 51.5485C184.293 46.0355 187.396 42.7611 186.028 37.2146C184.226 29.9976 177.619 28.895 178.22 20.3748C178.587 15.3964 182.458 7.97885 181.223 3.5016C180.222 -0.240582 175.45 4.20326 173.749 4.93833C168.91 6.97648 167.142 2.66629 163.004 2.26534C158.7 1.8644 157.031 5.60657 157.331 9.38217C157.699 13.7592 159.701 18.9047 162.303 22.413C165.273 26.4225 169.544 28.6945 171.813 33.4056C174.082 38.1168 176.118 50.1118 169.978 54.021C163.838 57.9303 161.369 54.3218 157.065 53.1189C151.859 51.6488 150.357 54.6225 146.453 56.7943C142.549 58.9661 137.778 60.1689 133.84 58.3981C130.87 57.0616 127.267 54.8898 124.197 53.3528C122.528 52.5175 118.257 49.076 118.224 53.3528C118.157 58.4315 120.56 61.5388 118.291 67.1521C116.022 72.7654 101.973 82.6554 95.7336 88.1016C88.3259 94.5502 84.8889 105.509 77.8149 112.225C75.8128 114.13 68.9056 117.772 66.2361 118.44C59.2288 120.177 54.724 112.326 51.4539 107.314C48.1839 102.302 44.7803 95.018 41.8105 92.9464C38.8407 90.8748 36.3048 91.4429 35.6708 93.8151C34.6363 97.5573 37.2391 104.373 37.4726 108.684C37.7396 113.428 36.238 118.941 38.2067 123.285C40.8095 129.065 46.382 129.633 45.3142 137.686C44.9138 140.626 43.3788 140.759 41.5102 142.163C38.6405 144.335 37.4059 151.151 35.3704 154.659C33.335 158.167 25.36 167.69 19.7875 166.821C16.5507 166.32 14.1816 159.203 14.0815 156.363C13.8479 150.148 22.0231 145.036 15.7499 139.356C13.2807 137.118 11.5789 136.616 10.1774 133.108C8.04183 127.795 10.9115 125.924 12.2129 121.547C13.5142 117.17 10.1107 115.232 8.10857 111.758C6.10647 108.283 7.30773 106.512 9.74361 104.774C12.1795 103.037 13.8479 102.903 13.8813 101.868C13.9146 100.832 9.77698 97.8246 8.60909 97.8246H4.57153L4.80511 97.691Z" fill="white"/>
<path d="M303.151 91.1422C304.352 92.3117 304.452 94.4166 303.818 95.9202C302.65 98.6266 296.277 103.271 293.908 105.476C289.47 109.586 279.993 119.61 280.694 125.958C281.395 132.306 290.07 135.581 293.707 138.822C299.48 143.967 303.785 151.251 294.041 155.127C287.167 157.867 278.458 154.692 272.585 158.101C268.781 160.306 270.55 166.52 267.981 170.263C265.344 174.105 258.671 174.706 254.767 172.802C250.662 170.797 246.792 161.174 244.456 156.998C242.921 154.225 239.884 148.277 237.816 146.239C234.445 142.965 229.24 147.943 228.906 151.619C228.673 154.258 230.341 158.401 228.372 160.406C225.97 162.879 222.6 159.771 221.165 157.7C219.73 155.628 219.296 153.523 217.461 152.888C214.892 152.053 212.522 154.559 209.419 152.654C206.917 151.117 207.818 148.177 208.785 145.972C209.753 143.767 211.021 142.464 210.587 141.762C209.853 140.592 205.215 142.33 203.546 140.726C202.011 139.256 203.68 135.781 202.012 133.576C201.111 132.34 194.337 127.929 192.668 126.96C190.099 125.457 188.331 125.223 185.327 125.39C182.958 125.524 180.222 126.559 178.086 126.626C173.515 126.726 170.245 124.588 165.507 124.588C161.869 124.588 158.9 121.314 155.73 120.077C153.861 119.342 148.889 118.173 146.887 118.139C143.65 118.073 140.547 119.71 137.477 120.345C131.304 121.614 125.465 120.01 119.725 122.483C115.588 124.254 110.182 127.395 107.98 131.438C106.178 134.745 107.246 140.258 107.913 143.9C109.982 154.793 123.429 160.807 124.597 171.766C125.331 178.716 120.593 182.091 115.087 176.912C111.583 173.637 109.882 171.332 105.544 168.625C103.075 167.088 97.3686 163.38 95.3665 167.322C93.3644 171.265 96.8014 178.549 97.2685 182.692C97.7357 186.835 97.2685 194.921 95.7669 198.596C91.3623 209.489 79.3498 195.121 73.3435 194.42C64.1005 193.351 60.7636 203.809 61.4644 211.293C62.1651 218.777 63.4331 226.897 62.9326 234.515C62.7324 237.655 62.0984 240.128 62.0984 243.436C62.0984 245.474 61.9983 247.545 62.2986 249.55C61.9983 249.851 60.8637 248.782 60.7636 248.514C60.4967 247.946 60.5968 241.598 60.6635 240.529C60.8304 238.023 61.5645 235.383 61.6979 232.877C62.1317 225.827 60.4967 218.076 60.0629 211.126C59.6291 204.176 60.9305 199.231 65.9691 195.088C74.0776 188.406 80.9514 198.429 88.0922 200.668C95.2331 202.907 94.1319 200.434 95.1329 196.09C97.3353 186.768 95.1997 181.79 93.6314 173.136C92.0631 164.482 93.598 164.081 98.6366 164.182C102.074 164.215 109.214 169.127 111.884 171.465C114.053 173.37 117.69 179.017 120.893 177.981C124.097 176.945 122.995 175.675 123.129 174.64C124.564 163.747 109.615 155.962 106.912 146.172C106.178 143.533 105.344 137.352 105.577 134.679C106.144 127.896 114.019 123.352 119.659 121.013C125.164 118.707 130.303 120.211 136.076 119.209C139.513 118.607 143.183 116.736 146.654 116.736C148.656 116.736 153.961 117.939 155.93 118.641C158.533 119.61 162.27 123.018 164.739 123.318C165.44 123.419 165.94 122.917 166.941 122.951C169.611 123.118 172.013 124.488 174.483 124.956C180.189 125.991 185.194 122.55 191.133 124.655C193.302 125.423 201.811 131.137 203.179 132.874C204.547 134.612 203.913 136.015 204.114 138.153C204.314 140.292 205.549 139.924 207.317 139.924C209.086 139.924 212.055 139.757 212.189 141.896C212.322 144.034 207.15 149.213 210.12 151.418C212.389 153.089 215.459 150.416 218.329 151.719C221.198 153.022 222.933 160.64 226.737 159.805C228.873 159.337 227.638 155.394 227.505 153.924C227.205 150.182 228.84 146.406 232.277 144.635C236.815 142.297 239.017 144.936 241.319 148.578C244.89 154.225 247.693 160.606 251.063 166.387C253.832 171.165 256.035 173.103 261.974 172.267C271.451 170.931 265.845 160.373 271.885 156.898C277.924 153.423 286.767 156.764 294.041 153.59C302.517 149.915 296.978 143.533 292.306 139.423C284.464 132.54 274.788 130.402 281.795 117.705C286.233 109.653 293.274 104.942 299.547 98.8271C300.381 98.0252 302.884 95.5527 302.85 94.4835C302.817 93.4143 301.916 92.0778 301.783 91.9441C301.015 91.2425 295.443 92.1446 294.141 92.3785C287.501 93.4811 280.761 95.7865 274.154 97.2233C267.313 98.6934 259.872 100.063 252.931 100.364C245.657 98.2925 249.461 90.4406 253.098 86.6984C256.735 82.9562 258.404 82.856 260.006 80.5505C263.376 75.7057 260.006 70.2261 266.179 65.8157C276.656 58.3313 286.6 69.7583 297.378 68.6891C302.917 68.1545 304.652 61.9399 304.085 57.2287C303.685 53.9543 301.849 54.0545 299.58 52.6178C295.109 49.8112 295.643 49.1095 293.541 44.7993C291.438 40.4891 286.967 37.9832 283.13 38.2505C279.292 38.5178 277.29 39.9211 274.321 38.5512C271.351 37.1813 273.653 32.0692 268.982 30.3986C264.31 28.728 256.035 34.1074 253.432 38.7851C250.496 44.0308 251.663 49.9114 247.593 54.6894C245.257 57.4292 241.286 60.3361 237.549 59.9685C233.811 59.601 229.273 56.8946 228.072 55.9925C224.368 53.2526 224.268 47.2384 218.996 45.6012C212.356 43.5297 207.417 48.9425 201.377 48.1406C195.338 47.3387 198.541 46.5034 198.575 44.9664C198.608 42.0261 201.177 37.9498 201.845 34.9427C203.413 27.759 198.241 23.2484 192.969 19.4728C190.366 17.6017 186.061 15.9979 185.928 12.1889C185.795 8.88107 190.066 5.43959 193.102 5.07206C201.044 4.03628 209.252 14.5278 216.527 16.8332C223.801 19.1387 220.297 14.5946 218.963 11.4872C216.994 6.94315 213.023 3.80239 211.121 -0.741689C209.219 -5.28577 210.354 -3.51491 209.72 -4.71776C208.285 -7.45757 203.713 -9.22842 201.244 -10.9325C195.405 -14.9085 197.04 -19.5194 193.569 -24.5981C190.232 -29.4763 185.594 -29.9441 181.457 -33.1851C180.989 -33.5526 178.42 -36.0919 178.954 -36.5931C180.422 -36.9272 180.856 -35.4905 181.857 -34.6218C184.293 -32.5168 188.464 -31.2137 191.167 -29.209C195.672 -25.8678 196.172 -22.3261 197.907 -17.5147C200.109 -11.5005 204.18 -11.6341 208.552 -8.05899C212.923 -4.48387 211.288 -3.58174 213.023 -0.106854C214.591 3.03391 217.161 5.20571 218.896 8.11258C220.164 10.251 223.901 17.7019 219.597 18.5038C214.992 19.3391 208.685 13.7259 204.948 11.2868C200.176 8.17941 194.27 3.63533 188.998 8.81424C183.993 13.7259 192.001 16.9 195.204 19.3725C200.877 23.783 205.181 28.4941 202.979 36.2458C200.777 43.9974 199.976 42.9616 200.076 45.1334C200.176 47.3052 204.147 46.7707 205.682 46.3697C210.52 45.1 213.79 42.6609 219.296 44.1311C225.469 45.8017 225.436 52.6178 229.407 55.1571C230.274 55.6917 236.214 58.2311 237.115 58.4316C241.987 59.4339 247.693 53.7538 249.027 49.4102C250.562 44.4652 250.095 41.1574 253.299 36.4797C256.535 31.7351 265.878 25.6206 271.251 30.0311C273.853 32.1695 272.952 33.8401 273.92 36.2792C274.988 38.9856 281.194 36.8806 283.363 36.7804C287.034 36.6133 292.239 39.8877 294.208 42.9282C296.444 46.4031 295.376 48.1071 299.514 50.8804C302.85 53.119 305.553 52.9185 305.653 58.0306C305.753 63.6105 303.685 69.6915 297.245 70.1593C287.334 70.8609 277.057 61.0377 267.981 66.3503C258.904 71.6628 263.81 71.5626 263.209 75.8728C262.141 83.4574 257.636 83.6913 253.465 88.5027C249.294 93.314 247.559 98.4595 254.233 99.1612C261.24 98.1922 268.348 97.123 275.255 95.5861C282.763 93.9155 292.873 90.1733 300.348 90.2401C307.822 90.3069 302.75 90.6411 303.284 91.1422H303.151Z" fill="white"/>
<path d="M129.169 175.842C131.738 172.067 134.507 168.826 133.206 163.814C132.439 160.874 129.936 159.805 127.934 157.933C122.662 153.022 114.854 142.296 118.057 134.779C120.66 128.664 129.335 130.268 134.474 130.068C139.579 129.867 144.651 128.23 149.757 128.631C154.862 129.032 159.333 130.435 161.669 132.44C162.07 132.774 162.57 133.609 162.837 133.743C163.805 134.144 166.441 134.378 167.809 134.779C173.482 136.383 175.117 138.354 179.588 141.428C183.192 143.9 184.393 142.664 187.93 143.633C191.467 144.602 195.805 150.349 198.675 152.755C205.215 158.301 210.387 161.575 217.861 165.652C225.336 169.728 228.739 172.668 232.71 176.043C236.214 179.017 239.15 182.525 243.155 185.064C247.526 187.837 252.698 188.472 256.101 192.816C260.006 197.794 259.572 206.181 265.678 209.121C270.95 211.66 276.556 208.085 279.493 203.742C283.764 197.427 283.664 191.312 285.599 184.363C287.534 177.413 287.034 179.852 289.87 179.919C291.739 179.986 294.475 181.656 294.742 178.983C295.276 173.804 294.008 170.229 298.246 165.919C305.053 159.036 315.063 160.84 323.272 163.446C323.806 163.614 324.873 163.313 324.64 164.182C324.239 165.719 320.869 163.914 319.801 163.614C312.661 161.676 301.816 161.742 297.645 169.093C295.509 172.835 296.544 175.174 296.143 178.983C295.609 184.563 290.237 180.153 288.302 181.69C286.834 182.892 285.799 190.544 285.299 192.783C283.797 199.164 281.428 206.014 275.455 209.455C271.885 211.527 268.748 212.262 264.877 210.291C258.304 206.916 258.971 199.498 255.334 194.152C252.297 189.742 246.625 188.94 242.354 186.234C238.283 183.628 235.146 179.919 231.476 176.845C227.738 173.704 222.099 169.661 217.861 167.256C210.087 162.878 204.28 159.437 197.44 153.523C194.47 150.95 190.333 145.304 186.562 144.736C182.491 144.101 181.99 144.802 178.353 142.196C174.716 139.59 172.147 137.285 166.674 135.881C161.202 134.478 160.301 134.912 160.001 134.445C159.5 133.676 160.401 133.142 160.234 132.941C160.068 132.741 155.93 131.304 155.329 131.137C147.588 129.032 144.051 130.869 136.776 131.27C129.502 131.705 117.99 128.965 118.891 140.091C119.258 144.669 123.162 150.549 126.132 153.957C130.503 158.969 136.676 160.84 134.674 168.926C132.672 177.012 129.769 176.243 129.435 179.852C129.135 183.427 131.871 188.038 129.636 191.246C127.5 194.353 124.03 191.078 121.561 190.009C119.992 189.308 118.024 188.706 116.388 188.238C117.69 189.408 119.392 190.277 120.893 191.312C124.931 194.119 127.767 197.093 133.239 196.525C140.213 195.79 135.408 189.809 133.94 186.534C132.472 183.26 131.771 178.248 133.673 174.573C135.575 170.897 139.68 168.091 138.945 163.513C138.211 158.936 134.007 156.396 132.238 154.893C127.934 151.284 125.965 151.418 125.531 144.836C125.098 138.254 131.204 135.581 137.31 134.278C143.884 132.874 146.353 134.511 152.293 136.082C164.038 139.156 173.915 142.063 184.36 148.511C187.029 150.148 189.732 152.454 192.435 153.891C193.703 154.592 195.138 154.926 196.372 155.528C200.844 157.766 203.813 162.678 208.018 165.618C212.222 168.559 214.224 168.96 217.294 170.831C220.297 172.668 222.8 174.974 225.603 177.012C228.105 178.85 231.109 180.487 233.411 182.458C235.446 184.196 237.749 186.869 239.617 188.873C240.552 189.876 241.286 191.246 242.387 192.081C243.955 193.284 246.191 193.584 247.559 195.389C250.696 199.599 246.024 203.174 245.557 207.451C245.29 209.89 245.924 212.162 245.724 214.434C245.223 219.713 240.051 226.93 238.083 231.875C236.114 236.82 238.984 233.813 241.052 234.013C247.526 234.682 245.223 237.288 244.322 241.631C243.755 244.405 243.622 246.844 245.223 249.316C248.06 253.727 251.864 248.147 254.767 246.877C258.637 245.173 262.375 246.443 264.877 249.751C267.38 253.058 267.046 253.125 265.478 253.292C263.91 253.459 264.544 251.989 264.177 251.288C263.476 249.984 262.108 248.848 260.84 248.214C254.366 244.939 251.83 253.96 246.358 252.156C243.021 251.054 242.387 246.075 242.654 243.068C242.921 240.061 244.489 237.355 243.989 236.319C243.121 234.548 235.98 236.987 236.214 233.111C236.314 231.34 239.217 227.03 240.118 225.192C241.019 223.355 244.456 215.837 244.423 214.267C244.389 212.696 243.855 212.262 243.855 211.326C243.855 208.921 244.322 205.813 245.223 203.575C246.158 201.236 247.893 200.066 246.992 197.226C246.291 194.988 243.021 194.386 241.386 193.083C239.05 191.246 236.08 186.768 233.645 184.463C231.242 182.191 227.905 180.387 225.202 178.415C222.666 176.544 220.297 174.439 217.661 172.702C213.29 169.828 208.618 168.291 204.547 164.683C201.845 162.277 199.976 159.303 196.739 157.365C193.503 155.428 193.402 155.929 191.767 155.093C188.898 153.556 186.095 151.251 183.292 149.514C172.881 143.098 162.837 140.225 151.091 137.184C148.289 136.449 145.285 135.013 142.349 134.979C139.413 134.946 132.672 136.583 130.47 137.786C127.267 139.557 126.633 141.896 126.966 145.404C127.634 152.287 131.971 151.886 135.742 156.096C139.513 160.306 140.147 161.642 140.38 163.246C141.348 169.628 134.441 172.802 133.974 178.348C133.473 184.329 135.809 185.866 137.744 190.744C140.647 198.128 132.372 198.864 127.3 197.059C122.895 195.489 118.891 190.544 114.687 189.174C111.183 188.071 110.416 191.78 110.015 194.319C109.014 200.668 110.416 205.513 108.147 212.128C106.278 217.508 104.409 218.911 98.5365 218.41C90.6949 217.742 86.0234 210.725 79.8502 207.283C73.6771 203.842 75.7126 206.615 74.9451 209.322C73.5436 214.066 76.0462 216.906 76.48 221.25C77.381 230.104 72.943 235.985 71.0076 244.104C70.4404 246.476 69.6395 250.118 69.6395 252.49C69.6395 253.392 70.0066 254.194 69.8731 255.197C69.7396 256.199 68.8721 255.097 68.7386 254.863C67.7375 253.192 69.1056 246.075 69.6062 243.937C71.3747 236.185 76.2465 229.269 74.9785 221.049C74.2777 216.539 71.9086 212.797 73.9107 208.052C76.747 201.403 82.7533 207.751 86.0234 210.224C89.2934 212.696 86.4238 210.792 86.6574 210.424C85.9233 209.355 84.8221 208.286 83.7877 207.484C81.6521 205.88 75.2788 202.539 72.7094 202.873C71.2412 203.04 70.4737 204.243 70.3069 205.646C69.8064 210.124 71.1077 212.797 71.7417 216.873C72.5426 222.052 71.7417 230.639 70.3736 235.751C68.9054 241.364 67.3705 245.173 66.603 251.254C66.5697 251.622 66.7699 253.225 66.2693 252.992C65.7688 252.758 65.335 252.29 65.335 252.223C65.1682 251.555 65.6687 248.447 65.7688 247.512C66.5029 242.266 68.4049 238.39 69.406 233.546C70.3069 229.169 70.9743 222.486 70.4737 218.076C69.9732 213.665 66.5029 204.477 70.9743 201.937C73.6437 200.434 78.8492 202.873 81.3852 204.21C87.1579 207.317 88.7262 211.694 95.9337 213.465C103.141 215.236 99.037 213.532 100.472 211.794C104.409 207.083 106.245 196.458 105.877 190.444C105.51 184.429 103.175 182.057 106.712 179.685C110.249 177.313 110.382 182.759 112.217 184.53C113.752 186.033 119.825 187.537 122.228 188.606C123.496 189.174 126.366 191.078 127.5 190.978C129.702 190.778 129.068 186.367 128.801 184.931C128.368 182.525 127.834 181.422 128.034 178.749C128.101 178.616 128.167 178.482 128.234 178.348C128.535 177.747 129.102 176.678 129.269 176.076C129.435 175.475 129.235 175.776 129.269 175.675L129.169 175.842ZM114.286 187.437C112.217 186.935 110.582 185.365 109.615 183.494C109.014 182.324 108.781 179.618 107.045 181.322C105.077 183.227 107.045 188.005 107.246 190.444C107.746 196.992 105.277 210.458 99.7043 214.567C98.6699 215.336 97.0683 215.369 95.8336 215.135C95.1329 215.002 91.4624 213.197 91.1287 213.532C90.795 213.866 91.1287 213.999 91.2288 214.166C91.5291 214.634 94.1652 215.937 94.7992 216.171C98.136 217.407 103.709 218.176 105.644 214.501C108.847 208.453 107.913 203.241 108.313 196.859C108.48 194.086 108.981 188.907 112.017 187.938L114.286 187.437ZM115.12 187.637C114.253 187.537 114.253 187.938 115.12 187.837V187.637ZM116.155 188.071C115.855 187.938 115.588 188.205 115.754 188.272C116.055 188.405 116.322 188.138 116.155 188.071ZM86.9577 211.059C86.9577 211.393 89.9942 213.632 90.6949 213.331C90.795 212.796 90.5614 212.964 90.2945 212.83C89.794 212.529 87.3581 210.892 87.1912 210.859C87.0244 210.825 86.9577 210.925 86.991 211.059H86.9577Z" fill="white"/>
<path d="M129.169 175.842C129.135 175.909 129.002 175.976 128.968 176.043C128.468 176.778 128.034 177.613 127.934 178.515C127.834 179.418 127.934 178.783 127.934 178.916C126.366 182.057 124.564 185.031 120.593 185.332C113.886 185.833 111.617 174.539 104.81 172.334C96.5677 169.661 100.005 174.773 101.173 179.284C103.241 187.203 104.076 197.661 100.105 205.011C94.5656 215.236 84.3883 204.076 78.4154 200.835C72.4425 197.594 70.4404 197.193 68.2381 199.632C64.1338 204.176 67.3371 212.563 67.7042 217.975C68.0712 223.422 67.8043 230.572 66.8032 235.951C65.8689 241.13 63.7667 246.008 64.3674 251.455C62.4987 250.987 62.8324 249.216 62.9325 247.612C63.1995 242.868 65.1348 238.19 65.8022 233.479C66.4696 228.768 66.7031 222.653 66.236 217.775C65.7021 211.928 62.6656 203.174 67.3705 198.396C70.1734 195.556 76.5801 198.195 79.5499 199.899C83.8544 202.372 91.9295 210.591 97.0683 206.782C98.5031 205.713 100.372 201.169 100.839 199.365C102.207 194.119 101.239 185.398 99.9379 180.119C98.6366 174.84 96.9014 172.668 98.77 170.964C100.605 169.294 105.944 170.998 107.846 172.201C111.383 174.473 115.888 183.227 118.991 183.828C122.094 184.429 125.131 181.389 126.532 178.215C128.835 173.036 131.504 166.086 125.465 162.411C121.627 160.105 118.991 160.239 116.055 156.096C113.118 151.953 111.183 146.273 110.582 139.624C110.115 134.545 111.417 131.337 115.554 128.263C122.395 123.185 129.235 124.788 137.144 124.822C145.219 124.855 151.492 123.552 159.233 126.526C161.602 127.428 164.172 128.998 166.608 129.7C169.044 130.402 172.08 130.469 174.75 130.87C177.419 131.27 178.086 131.872 179.154 131.872C180.222 131.872 179.688 131.538 181.256 131.838C184.159 132.34 187.062 132.406 189.665 134.01C192.368 135.681 200.376 144.368 202.378 147.175C204.381 149.981 204.381 150.883 205.548 152.487C207.851 155.695 218.329 162.311 222.133 164.048C226.804 166.186 236.181 168.258 239.351 171.666C242.254 174.807 242.954 178.449 247.893 179.484C253.432 180.62 255.067 180.119 260.005 183.728C263.776 186.468 266.679 191.012 272.152 188.974C274.154 188.238 273.219 186.768 273.186 185.265C273.019 177.513 277.19 174.138 284.264 172.334C286.8 171.699 289.737 172 291.005 169.361C292.273 166.721 292.406 163.647 294.475 161.041C298.613 155.895 301.549 157.833 307.222 157.432C308.857 157.299 314.729 155.762 315.43 154.258C316.131 152.755 312.994 149.179 311.326 148.311C309.657 147.442 307.589 147.242 305.887 146.306C301.015 143.666 296.043 139.356 292.973 134.812C291.438 132.574 287.401 126.459 287.501 123.987C287.735 117.672 294.108 116.135 298.312 113.462C302.15 111.023 302.15 107.748 304.485 104.307C307.388 100.063 314.83 97.2233 319.835 97.5574C324.84 97.8915 327.076 98.9607 327.376 100.164C327.676 101.366 325.174 100.23 324.773 100.063C319.334 98.1588 314.029 98.9273 309.124 101.934C303.484 105.376 304.319 111.29 299.313 114.497C295.376 117.003 287.134 119.376 289.303 125.824C291.472 132.273 295.376 136.149 297.478 138.354C299.58 140.559 303.985 143.633 306.421 144.936C309.924 146.841 312.761 146.44 315.597 150.048C319.334 154.86 314.963 157.065 310.692 158.167C306.921 159.136 304.218 158.234 300.648 158.669C294.942 159.337 294.141 165.719 292.339 169.828C290.838 173.303 288.068 172.802 284.965 173.637C281.194 174.64 276.856 176.377 275.255 180.286C274.054 183.227 275.155 185.165 274.888 187.771C274.721 189.408 273.586 190.176 272.085 190.544C264.61 192.382 261.307 185.298 255.301 182.525C250.329 180.22 246.358 182.358 241.987 177.647C240.218 175.742 239.317 173.236 237.115 171.532C234.946 169.828 230.174 168.793 227.438 167.757C220.13 164.95 213.824 161.342 207.651 156.497C203.747 153.423 202.912 149.848 199.876 146.239C197.874 143.867 190.633 136.048 188.264 134.879C185.394 133.442 183.926 133.943 181.09 133.81C179.555 133.743 176.952 132.707 175.217 132.44C172.414 131.972 169.511 132.006 166.674 131.237C162.036 130.001 157.865 126.927 152.893 126.192C147.921 125.457 147.321 126.259 144.251 126.392C137.944 126.66 131.104 125.657 124.797 126.192C119.025 126.66 111.684 131.471 111.85 137.886C112.017 144.234 113.586 150.282 117.323 155.428C119.892 158.969 122.061 159.036 125.531 160.874C132.005 164.349 131.071 169.862 129.269 175.909L129.169 175.842Z" fill="white"/>
<path d="M55.2912 184.53C54.7573 184.363 54.7907 184.697 54.5905 184.864C52.1546 186.802 50.1525 189.208 47.75 191.179C45.3475 193.15 42.5445 194.353 40.8761 197.327C38.0732 202.339 39.5747 206.549 39.8083 211.794C40.0419 217.04 39.4079 221.183 40.2421 226.061C40.4423 227.131 40.8761 227.665 41.0429 228.668C40.5091 228.2 38.9407 226.663 38.8073 226.028C38.3401 223.856 38.7072 220.849 38.1733 218.577C39.508 211.627 36.1712 204.778 38.9407 198.062C40.8761 193.384 44.3798 192.248 47.8834 189.208C49.652 187.671 51.3204 185.599 53.1556 184.129C54.4904 183.06 56.0253 182.325 57.36 181.322C59.5623 179.652 60.8971 178.015 63.4998 176.711C68.138 174.373 70.04 173.905 72.2423 168.659C74.4446 163.413 72.6427 164.382 72.4759 161.008C72.0421 151.986 84.2882 143.065 87.4582 135.013C90.6282 126.961 87.9921 128.698 89.1266 125.256C91.0286 119.443 99.671 112.493 104.343 108.383C113.886 99.9633 119.358 93.9825 133.006 93.5482C137.677 93.4145 142.249 94.7176 146.52 91.9444C150.224 89.5387 151.859 83.9923 151.559 79.7823C151.358 76.8754 150.591 75.8731 147.788 75.0712C135.909 71.6297 126.032 81.219 117.256 87.534C108.48 93.8489 107.779 93.5482 103.742 97.1901C98.0693 102.336 93.598 109.085 88.2257 114.397C86.1568 116.469 83.5875 118.24 81.3852 120.178C79.3497 121.982 77.7147 124.354 75.2454 125.624C72.7762 126.894 66.87 127.829 63.3663 126.793C61.1306 126.125 59.3955 124.488 57.2599 123.786C54.3235 122.784 54.2234 123.72 54.7239 126.326C55.9252 132.908 57.3267 138.02 55.091 144.836C52.555 152.588 40.6759 159.638 36.5716 167.323C33.9689 172.167 30.7655 179.552 25.0929 181.523C20.8551 182.993 15.0157 179.451 12.0459 176.544C11.1783 175.709 10.6778 175.041 10.6111 173.738C10.7446 173.571 11.7456 174.406 11.9458 174.573C16.3171 178.081 21.1221 182.893 26.9282 178.783C32.7342 174.673 33.1013 170.664 35.5372 166.253C38.6404 160.573 46.215 154.592 50.653 149.681C54.7239 145.17 55.458 137.619 54.6238 131.805C53.7896 125.992 52.9888 126.526 53.0222 124.288C53.0555 120.913 57.2933 122.183 59.1953 123.085C63.9002 125.29 64.8345 126.593 70.674 125.624C75.479 124.822 76.48 122.583 79.6834 119.743C82.6198 117.137 85.7898 114.865 88.4926 111.992C94.9661 105.042 99.7377 98.0923 107.579 92.3453C113.385 88.0686 119.358 83.7584 125.264 79.5818C128.334 77.41 135.976 73.4005 139.613 73.033C142.783 72.7323 150.825 73.0998 152.293 76.5079C153.761 79.9159 152.426 87.4003 149.924 90.6413C145.219 96.7224 138.445 94.6842 131.938 95.0183C119.191 95.6532 113.052 102.503 104.109 110.455C99.8378 114.264 91.9629 120.646 90.2945 126.058C88.6261 131.471 90.161 131.906 88.893 135.213C85.7898 143.299 73.3768 152.655 73.9107 161.208C74.0775 164.048 74.9117 165.786 73.7438 168.693C72.576 171.599 69.9399 175.275 66.6364 176.912C64.6677 177.914 61.9982 178.516 60.6635 180.454C62.9325 179.418 65.0014 178.549 67.6041 178.683C70.2068 178.816 70.2068 178.85 71.7418 178.883C73.2767 178.917 73.5103 179.251 74.6114 179.084C77.3476 178.683 79.0828 172.836 79.283 170.497C79.7168 165.619 79.3163 160.473 79.7168 155.595C80.1172 150.717 85.6563 145.137 91.6292 144.702C97.6022 144.268 93.0307 145.103 93.7314 144.669C94.3654 144.034 94.2653 137.92 94.3988 136.55C95.2664 126.86 100.806 118.34 106.445 110.689C109.715 106.278 116.088 101.066 121.828 100.999C125.331 100.966 125.798 101.868 129.636 100.531C133.506 99.1949 137.277 96.9897 141.481 96.6555C144.418 96.4216 147.254 97.5242 150.191 97.2904C151.926 97.1567 153.227 96.5553 155.162 96.6555C157.098 96.7558 157.899 97.2904 158.433 97.2235C159.701 97.0899 160.601 93.9825 163.638 94.1496C168.343 94.4169 171.48 100.799 172.481 104.775C173.482 108.751 172.38 107.882 170.345 108.784C165.039 111.09 155.062 105.61 149.657 104.006C147.955 103.505 143.217 102.135 141.715 102.269C138.245 102.603 134.975 106.612 131.738 108.016C127.533 109.853 123.396 108.149 119.025 109.185C110.582 111.156 103.308 123.285 99.5375 130.502C95.3331 138.555 100.739 145.371 102.607 152.989C104.476 160.607 103.809 158.869 99.4708 158.402C96.8347 158.101 91.7293 154.425 89.527 155.561C87.2246 156.731 86.3237 162.779 86.0901 165.184C85.4895 171.265 86.5239 177.614 84.5218 183.528C83.9212 185.298 82.9201 187.871 80.7846 188.072C78.649 188.272 75.0786 185.9 73.2433 185.298C65.0347 182.559 61.6312 183.895 56.726 190.711C54.7907 193.418 50.1858 199.866 50.286 203.074C52.6217 212.496 55.0242 221.284 54.3903 231.073C53.7563 240.863 53.3225 238.491 53.7563 242.166C53.556 242.4 52.3882 241.231 52.3214 240.83C51.8209 238.257 52.7552 234.181 52.922 231.508C53.4559 222.954 51.9877 216.439 50.0857 208.219C49.2515 204.611 48.1838 203.141 49.7187 199.265C50.9533 196.157 57.5936 186.334 60.2964 184.597C65.2349 181.423 68.8721 182.325 74.1443 184.129C75.6125 184.63 78.9827 186.501 80.1506 186.602C81.9858 186.769 82.9535 183.661 83.3873 182.224C85.2559 175.743 82.9535 158.502 88.3258 154.626C93.6981 150.75 97.1016 157.733 101.039 156.998C104.977 156.263 101.406 154.425 101.239 153.69C99.404 145.471 93.5312 138.788 98.2028 129.934C102.507 121.748 110.482 108.316 120.693 107.481C123.996 107.214 126.633 108.083 130.069 107.114C134.074 105.944 137.377 101.133 141.648 100.865C143.584 100.732 148.956 102.369 151.025 103.037C156.063 104.608 163.638 108.884 168.843 107.815C174.049 106.746 171.279 106.846 171.313 106.145C171.346 105.443 169.844 101.868 169.511 101.133C168.543 99.0278 167.509 97.4574 165.406 96.3548C163.304 95.2522 162.77 95.3524 160.868 96.9228C158.966 98.4932 160.368 97.6245 160.034 97.9252C158.299 99.3953 157.431 98.2927 155.529 98.1591C153.627 98.0254 151.759 98.6937 149.723 98.7939C147.688 98.8942 144.284 97.9252 141.448 98.1591C136.576 98.5266 132.372 101.667 127.901 102.603C124.664 103.305 122.261 102.001 118.758 102.97C111.45 104.975 104.643 114.965 101.039 121.28C97.7023 127.128 96.0672 131.839 95.6001 138.621C95.4666 140.392 96.2341 145.605 93.7982 146.139C92.697 146.373 91.1287 146.173 89.7606 146.44C85.6563 147.275 81.4853 150.85 81.1182 155.194C80.5176 162.043 82.0525 172.134 78.1818 177.948C77.6146 178.783 76.6135 180.12 75.5791 180.32C73.2767 180.788 70.1067 180.22 67.7709 180.153C65.4352 180.086 64.8012 180.253 63.2662 180.821C59.0952 182.425 51.1869 190.377 49.018 194.32C45.0138 201.537 44.8469 210.859 45.3141 219.011C45.5143 222.286 46.5487 225.493 46.7489 228.768C46.9491 232.042 46.5153 233.145 46.9491 235.283C46.7489 235.517 45.5143 234.281 45.5143 233.947C45.9147 228.835 44.1462 223.789 43.8459 218.811C43.5456 213.833 43.7124 212.062 43.8459 209.055C44.2797 198.429 47.5164 191.814 55.2245 184.73C62.9325 177.647 56.4925 184.162 56.6593 183.494C56.0587 183.494 55.2578 183.929 55.2245 184.53H55.2912ZM60.4633 180.587C60.2297 180.353 59.6291 181.122 59.4289 181.322C59.7625 181.456 60.7636 180.888 60.4633 180.587Z" fill="white"/>
<path d="M127.734 231.374C126.399 230.672 124.43 229.67 123.196 228.901C115.287 223.956 114.887 211.36 122.195 205.814C129.502 200.267 134.674 202.005 140.814 203.508C142.683 203.976 145.285 205.446 147.021 205.58C150.558 205.88 149.223 200.2 149.29 198.296C149.523 193.384 153.16 191.881 153.761 188.272C154.362 184.664 154.128 186.401 153.427 185.9C152.093 184.931 147.922 184.697 146.153 184.263C143.617 183.661 140.047 181.924 140.414 178.85C141.215 172.602 146.12 171.332 150.124 167.456C151.525 166.086 152.059 165.284 151.125 163.346C150.191 161.409 147.288 158.401 145.886 156.129C144.017 153.089 139.613 144.134 146.286 144.335C154.462 144.569 162.503 151.184 170.045 154.325C174.75 156.296 179.555 156.196 183.425 159.37C187.296 162.545 189.365 165.151 192.435 167.757C197.74 172.268 205.515 177.814 211.655 181.055C219.997 185.499 230.575 187.804 232.443 198.797C233.311 203.942 234.746 213.498 233.711 218.377C232.677 223.255 232.677 220.615 232.377 221.183C229.04 227.632 222.833 231.574 217.194 224.825C212.689 219.412 214.424 213.331 213.223 207.25C212.155 201.837 207.851 205.045 205.048 207.05C200.777 210.09 198.474 213.532 197.44 218.677C196.539 223.088 196.973 229.403 191.033 230.071C189.131 230.271 185.194 229.637 184.827 232.343C184.326 235.985 192.034 241.231 194.27 243.837C199.609 250.051 201.377 260.342 191.934 263.483C185.06 265.789 183.659 263.216 178.32 260.409C173.215 257.703 172.18 260.81 167.976 262.681C162.971 264.92 157.865 263.383 153.627 260.276C146.253 254.863 148.389 246.71 144.485 239.593C141.849 234.715 138.345 235.617 133.707 234.014C131.738 233.312 129.669 232.276 127.8 231.307L127.734 231.374ZM144.852 145.805C143.083 146.34 144.785 150.984 145.285 152.12C147.087 156.23 150.624 159.17 152.326 162.678C153.794 165.685 152.426 167.122 150.291 169.06C149.056 170.196 142.85 174.606 142.683 175.709C142.516 176.812 142.883 176.31 142.816 176.678C142.749 177.046 142.282 177.246 142.115 177.647C141.615 178.783 141.315 179.485 142.115 180.554C145.686 185.332 158.266 180.754 154.595 190.143C150.925 199.532 151.292 193.952 150.791 197.126C150.291 200.301 152.059 203.909 149.156 206.248C146.253 208.587 142.883 205.413 140.447 204.811C128.501 201.837 116.822 205.646 118.658 220.014C119.458 226.396 127.667 230.238 133.073 232.31C138.278 234.314 142.549 233.312 145.586 238.858C150.357 247.579 147.221 258.605 159.801 261.946C166.107 263.617 167.242 260.777 172.114 258.638C176.985 256.5 181.623 263.383 187.863 263.015C193.97 262.681 198.341 258.304 196.973 252.023C195.438 244.939 189.832 242.567 185.694 237.622C184.126 235.784 182.391 232.677 184.059 230.405C186.128 227.598 191.2 229.87 193.569 227.465C195.605 225.427 195.705 219.011 196.606 216.004C197.507 212.997 200.243 208.854 203.513 206.348C207.918 202.974 213.59 199.933 214.658 207.985C215.359 213.298 214.458 219.412 218.195 223.923C221.932 228.434 227.205 226.863 230.274 221.952C232.91 217.742 232.91 214.534 232.443 209.656C231.976 204.778 231.576 201.837 230.975 198.496C229.14 188.64 218.596 186.2 211.021 182.191C204.581 178.783 196.306 172.869 190.766 168.058C187.563 165.284 182.458 159.237 178.62 158.067C177.152 157.6 175.417 157.6 173.915 157.199C164.873 154.793 156.097 146.406 147.087 145.738C146.52 145.705 145.386 145.605 144.885 145.738L144.852 145.805Z" fill="white"/>
<path d="M127.3 231.574C130.87 233.579 133.506 235.383 136.51 238.19C139.513 240.997 140.847 241.966 141.882 246.075C143.884 253.894 143.45 262.013 145.152 269.731C146.086 274.008 148.656 276.08 153.06 276.514C159.6 277.149 162.837 272.839 170.712 275.211C178.587 277.583 178.487 277.65 177.953 282.161C177.886 282.729 176.952 285.903 176.652 286.037C174.516 286.805 176.485 283.23 176.585 282.228C176.685 281.259 176.585 279.956 175.984 279.187C175.384 278.419 169.744 276.38 168.276 276.08C161.869 274.743 157.565 279.588 150.424 277.383C146.32 276.113 144.551 273.941 143.75 269.765C142.182 261.746 142.716 252.457 140.18 244.772C137.644 237.087 138.912 242.433 137.811 241.331C131.137 234.682 126.099 232.844 118.19 228.467C108.247 222.954 108.147 209.99 114.954 201.871C119.091 196.926 123.129 198.63 128.701 199.064C134.274 199.499 133.506 199.198 135.742 199.499C139.079 199.933 141.048 201.871 143.717 198.563C145.786 195.957 147.821 190.477 144.017 188.539C140.714 186.902 138.378 186.835 136.409 183.093C134.441 179.351 135.475 176.544 138.045 173.571C140.581 170.63 144.485 168.559 142.816 164.048C141.148 159.537 136.843 154.693 134.14 150.149C131.204 145.204 134.741 142.497 139.046 140.593C153.627 134.144 164.072 144.402 176.585 149.28C177.786 149.748 179.154 150.015 180.355 150.483C184.126 151.919 192.301 157.633 195.571 160.339C200.243 164.215 202.812 169.461 208.018 172.936C210.02 174.272 212.623 175.174 214.491 176.611C218.028 179.384 218.662 181.623 223.267 183.761C230.174 187.002 235.046 189.441 238.149 197.059C241.453 205.246 239.217 221.116 233.044 227.665C229.74 231.173 225.603 232.176 223.1 236.987C218.696 245.407 222.066 253.76 221.565 262.581C221.232 268.061 219.263 274.075 215.759 278.318C212.256 282.562 214.057 280.39 211.922 280.891C209.786 281.392 211.521 280.858 211.622 280.59C211.822 280.156 213.79 278.485 214.291 277.884C217.194 274.476 218.696 270.801 219.563 266.39C222.066 254.061 214.558 240.496 226.404 230.973C228.472 229.302 230.708 228.166 232.51 226.095C237.949 219.713 239.918 204.878 236.681 197.26C233.711 190.31 229.373 188.272 223.067 185.198C218.228 182.859 217.294 180.587 213.457 177.614C211.321 175.943 208.351 174.941 206.049 173.237C201.377 169.795 198.808 164.716 194.337 161.141C191.167 158.635 183.559 153.223 180.022 151.853C178.854 151.418 177.586 151.184 176.385 150.717C164.539 146.072 154.629 136.483 140.881 141.395C138.845 142.13 134.407 144.235 134.407 146.741C134.407 148.912 137.177 151.719 138.345 153.59C140.08 156.296 144.718 163.313 144.752 166.253C144.818 171.9 135.609 174.272 136.977 180.855C137.944 185.499 141.982 185.666 145.052 187.47C149.89 190.31 146.82 197.962 143.383 200.735C140.647 202.94 139.012 201.403 136.109 200.969C133.206 200.534 129.936 200.534 127.033 200.334C120.927 199.9 118.591 198.697 114.787 204.444C113.152 206.95 112.251 209.923 111.85 212.897C110.683 221.417 115.554 226.596 123.196 229.135C123.196 229.269 123.162 229.403 123.229 229.503C123.362 229.67 126.766 231.307 127.333 231.608L127.3 231.574Z" fill="white"/>
<path d="M130.403 -35.958C128.001 -33.7528 125.865 -31.7481 124.564 -28.6407C123.196 -25.3329 123.896 -21.2566 122.528 -18.0156C120.526 -13.2376 112.584 -12.536 111.817 -8.0253C111.483 -6.02056 112.384 -4.41677 111.65 -2.17814C110.549 1.1965 107.246 2.59982 104.843 4.67138C104.676 4.83844 103.909 5.47327 104.109 5.70716C105.177 5.8074 106.445 6.342 107.513 6.342C113.419 6.342 116.989 1.69768 122.395 0.294365C131.671 -2.11132 140.647 0.394601 145.519 8.88133C149.39 15.6306 146.253 18.1365 144.384 24.1842C143.717 26.3226 144.017 27.1913 145.953 28.3273C149.757 30.5325 158.666 31.4347 156.063 37.5491C154.895 40.2889 151.892 41.6922 149.323 42.8283C145.519 44.5323 137.444 47.4726 133.506 45.9356C131.838 45.2674 131.304 43.9643 130.136 42.8951C128.968 41.8259 127.5 41.1911 126.399 40.2221C124.53 38.5181 124.63 37.6159 121.794 36.7472C117.523 35.4107 107.145 33.1053 102.941 33.5062C98.7367 33.9072 96.4676 36.9477 97.7022 41.8259C99.3039 48.1408 105.277 52.5846 105.911 59.501C106.545 66.4174 94.7658 73.4674 89.7606 77.9446C82.3862 84.5268 78.9827 92.9133 74.2777 101.2C69.5728 109.486 66.5029 113.128 60.0628 105.009C57.9273 102.302 58.9617 97.8249 58.4612 94.3835C57.3267 86.7989 53.9565 80.7512 49.652 74.6034C46.215 69.6918 42.044 66.5844 35.8375 66.0498C31.3995 65.6489 27.7957 67.8207 23.7248 64.4794C22.1231 63.1764 21.6893 61.0714 19.9876 60.1358C18.0522 59.0666 17.1179 60.0022 15.2493 60.4366C15.316 58.2982 17.9521 58.0977 19.6205 58.4652C22.0564 58.9998 22.9907 61.9067 24.6591 63.3434C28.0293 66.2169 31.4329 64.3792 35.2369 64.5797C45.6811 65.1143 50.6864 72.6655 55.3579 80.8849C58.0608 85.6294 59.7959 91.9444 60.163 97.424C60.53 102.904 59.9961 100.431 60.163 101.768C60.4299 104.207 64.334 108.083 66.87 107.648C69.406 107.214 72.1422 102.068 73.2433 100.13C77.8815 91.9444 81.185 83.9588 88.3258 77.3098C95.4666 70.6607 103.842 67.0188 104.476 61.3721C105.31 53.8543 96.5677 47.7065 95.9671 40.2555C95.4999 34.3081 98.3696 32.3702 103.942 32.0695C109.515 31.7688 113.185 33.2723 116.689 34.0408C120.192 34.8093 123.229 35.4107 124.864 36.647C126.499 37.8832 126.699 38.6517 127.667 39.4536C128.635 40.2555 129.636 40.7233 130.47 41.4249C131.738 42.4941 132.906 44.3986 134.507 44.833C138.311 45.9356 148.155 42.2602 151.625 40.1887C153.627 38.9858 156.564 36.3129 154.495 33.9406C152.426 31.5683 147.254 30.9001 144.918 29.4299C139.78 26.1889 145.519 20.2081 145.886 15.5972C146.253 10.9863 143.116 7.21072 140.414 4.70479C135.976 0.628488 126.733 0.0938913 121.26 2.13204C115.788 4.17019 114.186 7.24413 108.947 7.64508C103.709 8.04602 101.807 7.74531 102.541 5.20598C103.175 3.00076 110.015 0.862376 110.482 -3.44781C110.749 -5.75326 109.748 -7.25682 110.849 -9.69592C112.985 -14.3736 120.259 -14.1063 121.594 -19.8867C122.295 -22.8604 121.994 -26.068 123.129 -28.908C124.263 -31.7481 127.033 -36.4926 130.336 -35.8912L130.403 -35.958Z" fill="white"/>
<path d="M59.3623 61.3052C58.7283 60.7372 56.6595 60.637 55.6918 60.3029C50.6198 58.532 52.4217 53.8543 46.3153 51.6491C41.8439 50.0453 32.4341 47.5059 27.8293 47.5394C23.2245 47.5728 23.3579 48.4749 21.1223 48.1742C21.0889 47.7732 21.2891 47.105 21.6561 46.9713C24.5592 46.704 27.1619 46.136 30.0983 46.3031C33.0347 46.4702 44.6135 49.1766 48.284 50.8806C52.5885 52.8853 51.8544 56.0595 54.5573 58.0642C57.2601 60.069 59.8962 58.3649 61.3644 62.0403C62.8326 65.7157 61.6313 67.5868 62.599 70.1261C63.5667 72.6654 65.135 73.0998 66.0359 74.7704C69.573 81.0853 63.1996 92.646 65.3018 99.5289C67.404 106.412 66.0026 101.4 67.2372 100.297C69.6397 98.1924 72.0422 89.6723 73.6105 86.3645C75.1788 83.0567 78.2154 78.7799 80.9849 75.7394C86.2905 69.8922 93.6315 66.0832 92.6638 56.7946C92.3635 53.9879 90.1612 51.4152 89.9944 48.7088C89.8275 46.0024 91.4292 42.16 91.4626 39.1529C91.4959 34.6088 86.9578 26.4562 93.6315 24.3512C100.305 22.2462 99.8046 26.4562 104.243 27.3917C106.412 27.8595 108.547 27.5922 110.749 28.3273C112.852 29.0289 114.153 30.3654 116.656 30.9C120.66 31.7353 123.062 29.5301 126.733 29.931C130.403 30.332 129.769 31.4346 131.538 31.7353C132.539 31.9024 133.44 31.8356 134.541 32.0694C135.642 32.3033 137.077 33.2723 138.745 33.0384C140.414 32.8045 139.379 30.7998 138.879 29.9979C137.945 28.4275 135.542 28.0265 135.509 25.8882C135.509 21.745 141.782 17.0673 139.346 12.2893C136.51 6.7429 128.902 5.4064 123.663 8.17963C120.76 9.71659 118.558 13.4588 115.121 13.9265C111.684 14.3943 111.317 12.1891 107.68 13.3251C104.042 14.4611 105.077 14.8955 103.976 14.9957C100.906 15.3299 97.4688 11.6879 96.4678 9.01493C94.0653 2.49953 98.1696 -0.407345 101.006 -5.61967C103.909 -10.9656 105.744 -17.4476 100.238 -21.9249C99.0705 -22.8604 95.7337 -23.5955 95.6002 -23.796C94.8995 -24.8318 96.668 -24.8986 97.3354 -24.7983C102.14 -24.1635 105.711 -17.9154 105.277 -13.3379C104.676 -6.45498 99.4709 -2.51232 97.5022 3.10095C95.5335 8.71422 98.2697 11.0197 101.54 12.8574C104.409 14.4946 104.843 12.6235 107.346 11.9218C109.848 11.2201 110.282 11.3538 111.917 11.7882C113.552 12.2225 112.985 12.3562 113.519 12.4564C116.756 12.991 118.758 10.0507 120.96 8.34669C126.933 3.73579 136.043 4.33721 140.28 10.9529C143.35 15.7642 139.313 19.6066 137.577 23.7164C135.842 27.8261 137.844 26.4228 139.58 28.4275C141.315 30.4322 141.982 33.6732 139.479 34.3415C137.144 34.9429 135.776 33.6064 133.74 33.2389C131.705 32.8713 131.504 33.2055 130.37 32.8713C129.235 32.5372 127.901 31.4346 126.766 31.301C123.93 30.9334 121.828 32.4036 119.292 32.5372C116.756 32.6709 114.053 31.4012 111.55 30.1649C109.048 28.9287 105.344 29.3296 102.174 28.1602C99.0038 26.9908 98.2697 24.418 94.1654 25.6209C90.0611 26.8237 92.3635 33.7735 92.6972 37.2484C93.0309 40.9905 91.7962 43.5633 91.4959 46.9713C91.1956 50.3794 93.765 53.1526 94.132 56.6943C95.0663 66.15 88.3593 69.8254 82.8869 75.6391C76.1132 82.8228 75.0787 87.6007 71.3081 96.1543C67.5375 104.708 66.8701 105.176 64.4009 100.999C61.6981 96.4216 66.3029 83.7583 65.6022 77.6439C65.2017 74.3026 62.3988 73.3671 61.331 70.527C60.2632 67.687 61.0307 62.742 59.3623 61.205V61.3052Z" fill="white"/>
<path d="M30.2651 32.8381C30.2317 31.8357 31.1326 31.4347 32.0002 31.6018C46.6822 33.9407 60.2298 40.4561 67.7376 53.8544C75.2455 67.2528 70.6407 61.9402 75.6459 64.5798C80.6511 67.2193 78.5156 66.0833 80.3175 65.0475C85.9901 61.7731 84.5552 54.9904 84.8889 49.5442C85.2226 44.098 87.3915 37.1817 84.9223 32.103C83.0203 28.1937 75.379 23.7499 80.8514 19.4063C86.3238 15.0627 87.1913 17.6354 88.9598 14.0603C90.7284 10.4852 87.4916 6.37549 87.5584 2.29919C87.6251 -1.77711 95.6335 -7.22332 95.8671 -12.8366C96.0005 -16.3115 90.3947 -17.1134 87.8253 -16.3115C80.2507 -13.9726 77.5145 -3.58138 67.6042 -3.58138C57.6938 -3.58138 64.5676 -3.88209 64.3341 -4.01574C63.7001 -4.31645 64.868 -5.15176 65.3351 -5.252C66.1359 -5.38564 67.2705 -5.01811 68.2048 -5.05152C78.4155 -5.35223 83.2539 -22.4593 94.3321 -17.1134C99.2706 -14.7411 96.8347 -9.8629 94.5657 -6.45484C92.2967 -3.04678 89.3936 -0.774742 89.0599 1.4973C88.3258 6.74303 93.4646 10.7191 89.427 15.9314C85.3894 21.1437 86.257 18.1032 83.988 19.1724C75.9462 22.948 83.5542 26.5231 85.9567 31.0338C88.3592 35.5445 86.7242 43.2293 86.3238 49.1099C85.9901 54.389 87.2247 60.7374 82.9202 64.7468C78.6157 68.7563 78.1819 67.6203 74.6115 65.6156C69.5729 62.7421 69.2392 59.4677 66.7032 54.8902C59.4957 41.6923 46.0816 35.2437 31.7333 32.9049C31.2327 32.8381 30.7322 32.8381 30.2317 32.8381H30.2651Z" fill="white"/>
<path d="M26.9615 208.553C26.9615 208.52 26.6612 208.553 26.5611 208.553C26.461 208.353 26.1273 208.152 26.0272 207.918C25.827 207.384 27.095 204.844 27.462 204.209C29.6309 200.334 33.4349 197.627 36.2712 194.152C40.4423 189.007 44.6133 183.995 50.1524 180.086C51.654 179.05 53.2557 178.382 54.6905 177.179C56.8261 175.375 58.8282 172.902 60.897 170.964C62.5654 169.394 64.3006 168.559 65.7354 166.487C68.7052 162.244 67.5039 157.867 69.2057 153.389C70.7073 149.447 74.0107 146.172 75.6124 142.397C76.8804 139.39 73.4101 138.02 71.0076 137.385C68.5383 136.717 67.1702 136.616 64.7344 137.552C59.6958 139.456 59.262 143.9 57.4267 148.277C53.3224 158 45.1472 166.387 39.1409 174.94C35.1367 180.654 33.2013 188.105 24.7592 187.403C20.488 187.069 16.8843 185.098 13.8811 182.157C13.0135 181.289 12.78 180.52 12.4463 179.351C12.8133 178.983 15.4828 181.723 15.8499 182.024C17.5183 183.327 19.5537 184.797 21.6226 185.365C32.1336 188.305 33.3348 180.687 38.1399 173.871C42.9449 167.055 50.7864 158.635 55.0576 150.182C57.1931 145.905 57.7604 140.693 61.6978 137.552C65.4017 134.612 71.2078 134.979 75.0118 137.485C78.8158 139.991 77.9482 140.592 76.7136 143.265C74.4112 148.21 70.3736 151.786 69.6061 157.466C68.3048 166.654 68.4049 165.685 62.0315 171.833C59.9627 173.804 57.8605 176.344 55.7249 178.148C54.3568 179.284 52.8553 179.919 51.4204 180.888C45.4809 184.997 41.4433 189.976 36.972 195.455C34.3692 198.663 30.8656 201.102 28.7634 204.644C28.0626 205.813 27.4954 207.25 26.9281 208.52L26.9615 208.553Z" fill="white"/>
<path d="M42.4777 16.9003C42.1106 16.3991 43.0783 15.497 44.046 16.065C46.6487 17.5685 46.9824 23.9837 47.8834 26.7235C49.4517 31.6017 55.3578 37.6493 59.8959 39.9882C64.434 42.3271 65.2015 41.8927 67.604 43.4631C70.6405 45.4678 71.408 47.9403 75.8126 46.2029C80.2172 44.4655 78.8825 42.2602 78.7156 39.3534C78.3486 33.406 75.6791 31.1339 72.7761 26.6567C67.2036 17.9695 73.944 16.1652 76.3798 9.28228C77.7813 5.33963 75.7459 2.90053 71.775 2.59982C67.8042 2.29911 64.6009 3.66901 62.2651 1.99839C59.9293 0.327777 59.6623 -0.507531 59.6623 -0.808242C59.6623 -1.10895 60.6968 -1.54331 60.7635 -1.5099C61.1306 -1.44308 62.1316 0.0938893 62.532 0.461425C64.6008 2.33252 66.8699 1.29673 69.2724 1.19649C72.7761 1.06285 76.8136 1.49721 77.9148 5.37304C79.7834 11.9553 71.5748 15.7309 72.0753 21.578C72.3757 25.0195 76.9805 29.3297 78.5154 32.9382C80.0504 36.5467 81.652 44.7662 77.3142 47.1384C71.775 50.179 70.3402 46.8377 66.4027 44.432C64.0336 42.9953 61.264 42.3605 58.7948 41.0574C53.8229 38.4178 47.8166 31.9024 46.2817 26.4562C45.4808 23.6162 45.5476 19.0721 43.1451 17.1676C40.7425 15.2631 42.4777 16.9671 42.4777 16.9337V16.9003Z" fill="white"/>
<path d="M131.204 10.5186C134.174 10.0842 135.942 11.5544 135.308 14.6283C134.674 17.7022 132.338 18.9719 131.171 20.6425C130.003 22.3132 129.869 23.0148 129.068 24.1174C126.632 27.4586 122.328 29.8309 118.29 27.6925C116.922 26.9575 113.118 23.4158 112.251 22.1461C111.35 20.8096 111.25 18.9051 112.751 17.9695C114.253 17.034 116.255 16.8335 116.922 16.7667C119.025 16.4994 120.626 16.8669 122.762 15.9648C125.665 14.7286 127.567 11.0532 131.204 10.5186ZM131.204 11.9553C128.334 12.4565 125.965 16.1319 123.262 17.2679C120.726 18.3371 118.791 17.7691 116.388 18.2703C113.986 18.7714 112.885 19.5399 112.818 20.1079C112.718 21.1103 116.088 24.3513 116.956 25.0864C119.492 27.1913 121.16 27.8262 124.263 26.3895C127.7 24.8191 128.268 22.3131 130.236 19.5065C131.337 17.9361 135.375 14.2274 133.64 12.2895C131.905 10.3515 131.938 11.8217 131.204 11.9553Z" fill="white"/>
<path d="M168.243 -17.6481C172.013 -18.2495 174.216 -15.9441 173.849 -12.2353C173.248 -6.08744 168.343 0.0604316 162.704 -5.9872C160.568 -8.29265 158.866 -10.431 161.002 -13.505C162.27 -15.3092 162.57 -14.9751 164.305 -15.5765C165.64 -16.0443 166.508 -17.3808 168.243 -17.6481ZM168.243 -16.2114C166.875 -15.9775 165.707 -14.5073 164.372 -14.073C163.037 -13.6386 163.271 -14.073 162.904 -13.8725C162.37 -13.5718 161.269 -11.4334 161.269 -10.7318C161.269 -10.0301 163.571 -6.95616 164.272 -6.32132C167.108 -3.78199 170.045 -5.08507 171.346 -8.32606C172.681 -11.6673 173.815 -17.1803 168.243 -16.2114Z" fill="white"/>
</g>
</g>
<defs>
<clipPath id="clip0_1_2344">
<path d="M0 28C0 12.536 12.536 0 28 0H159C174.464 0 187 12.536 187 28V122C187 137.464 174.464 150 159 150H28C12.536 150 0 137.464 0 122V28Z" fill="white"/>
</clipPath>
</defs>
</svg>
