<svg width="1438" height="491" viewBox="0 0 1438 491" fill="none" xmlns="http://www.w3.org/2000/svg">
<g opacity="0.05" clip-path="url(#clip0_1_2237)">
<path d="M427.615 1072.85C432.892 1067.56 427.322 1056.12 424.39 1050.54C405.92 1013.26 351.683 953.371 354.908 910.512C358.133 868.827 397.711 839.178 422.924 810.997C448.137 782.815 434.065 792.209 452.535 784.283C471.005 776.357 490.941 783.696 514.688 787.806C538.435 791.915 541.953 778.412 560.716 772.834C579.479 767.257 599.708 768.431 615.833 778.118C631.958 787.806 627.56 794.264 650.721 793.97C673.881 793.677 665.673 792.503 676.813 794.558C701.44 799.548 734.862 827.729 758.316 818.629C781.77 809.529 780.89 789.273 794.376 780.173C817.244 764.615 824.28 793.383 840.404 802.484C856.529 811.584 869.722 807.768 884.087 820.684C898.453 833.601 901.678 850.333 909.887 868.24C921.321 893.779 948.586 875.873 967.935 886.147C987.285 896.422 981.421 945.152 990.216 951.023C999.012 956.894 1007.81 948.087 1012.79 945.152C1037.12 929.887 1035.07 901.999 1072.31 914.035C1109.54 926.071 1121.27 942.803 1130.65 975.388C1140.03 1007.97 1137.68 1025.88 1150.58 1029.99C1163.48 1034.1 1187.82 1008.85 1198.66 1000.34C1209.51 991.827 1238.83 977.737 1237.36 958.068C1235.9 938.4 1221.53 936.345 1216.55 928.713C1190.75 891.137 1201.01 850.333 1228.27 817.161C1239.41 803.658 1253.78 793.97 1266.09 781.935C1278.41 769.899 1299.22 747.295 1276.06 735.259C1252.9 723.223 1240.59 743.772 1225.34 750.818C1210.1 757.863 1163.48 775.183 1140.91 780.467C1079.63 794.557 1071.43 702.674 1087.84 662.457C1099.28 634.569 1119.51 629.579 1140.32 611.966C1173.16 584.371 1222.7 496.891 1262.87 492.488C1303.03 488.085 1286.91 495.717 1287.5 486.03C1288.37 471.059 1267.56 474.288 1257.59 472.233C1238.83 468.71 1239.12 464.894 1226.81 453.739C1214.49 442.584 1196.02 445.813 1184.88 459.316C1153.51 496.304 1145.01 542.686 1088.43 550.025C1031.85 557.364 1016.9 513.037 977.61 481.039C938.325 449.042 876.465 499.533 843.043 451.097C826.625 427.319 833.955 405.889 834.834 380.35C836.3 341.013 807.276 341.894 792.324 315.767C768.284 273.495 784.115 241.791 825.453 223.004C866.79 204.216 882.328 207.151 876.465 183.667C871.481 164.586 819.882 128.772 800.533 128.772C781.183 128.772 775.32 156.66 767.111 168.696C740.432 208.619 692.058 223.591 657.757 183.08C623.455 142.569 657.757 114.388 682.09 80.9223C696.163 61.5476 711.115 34.5404 671.243 41.8793C631.371 49.2182 599.415 67.4187 587.102 77.3996C566.287 94.7194 575.082 114.975 563.062 134.937C547.23 160.77 513.808 161.357 487.423 168.402C500.322 181.025 522.897 178.089 539.608 181.612C568.339 187.777 607.917 219.481 619.937 246.194C633.13 275.55 628.439 290.228 629.612 319.584C630.785 348.939 673.881 358.92 684.436 391.505C690.006 408.825 691.179 440.822 671.243 449.042C651.307 457.261 644.564 453.739 634.303 452.858C616.712 451.39 614.66 443.464 597.07 456.381C579.479 469.297 576.548 483.388 545.471 481.039C501.202 477.517 475.696 419.98 431.133 434.07C386.571 448.161 421.752 489.553 420.872 513.918C419.993 538.283 412.956 542.099 406.507 553.254C373.964 610.791 307.12 627.524 276.924 688.29C246.727 749.056 242.915 780.76 197.18 797.2C151.445 813.639 154.377 788.099 136.786 764.908C119.196 741.717 127.991 757.276 125.059 752.873C103.658 722.636 112.453 660.696 86.9466 636.037C61.4404 611.378 33.2957 613.14 4.27146 622.534C-24.7528 631.927 -28.5641 641.615 -40.8774 638.973C-53.1907 636.331 -47.9136 629.872 -56.1224 630.753C-64.3313 631.634 -79.8696 655.118 -91.0102 643.963C-102.151 632.808 -94.8214 633.395 -98.0464 630.166C-103.617 624.001 -113.878 627.818 -120.621 630.46C-121.793 620.772 -111.532 618.424 -103.323 619.598C-95.1146 620.772 -92.1829 624.588 -89.2511 629.579C-86.3194 634.569 -86.9057 639.266 -83.0945 638.973C-71.9538 631.634 -64.9177 621.066 -49.9658 624.001C-35.0139 626.937 -40.8774 635.45 -23.8733 627.818C7.49638 614.02 31.8298 600.223 67.5971 614.608C125.059 637.505 106.589 695.335 127.991 741.717C149.393 788.099 143.529 759.624 150.272 768.725C157.015 777.825 157.308 785.457 167.863 790.448C196.594 804.245 229.722 764.615 243.208 743.185C260.799 715.004 265.783 683.006 287.771 656.586C325.297 611.672 380.414 594.646 405.627 537.989C430.84 481.333 402.402 490.727 404.454 457.849C406.213 426.732 439.342 419.393 464.555 428.493C496.804 440.235 512.636 471.939 548.403 473.994C583.291 475.755 587.395 438.474 617.299 441.409C647.203 444.345 643.978 447.868 662.741 443.171C681.504 438.474 681.797 396.495 669.484 380.643C657.171 364.791 648.082 365.672 639.287 357.452C611.729 331.913 628.146 304.612 620.231 272.027C611.435 235.039 576.548 198.932 539.901 189.245C503.254 179.557 490.941 187.777 480.386 172.805C469.832 157.834 477.162 164.586 483.025 161.65C505.599 149.614 534.624 159.595 554.853 132.001C575.082 104.407 559.25 93.8388 576.548 75.3447C593.845 56.8507 658.93 34.2468 678.279 32.7791C697.629 31.3113 709.649 39.5309 702.319 59.7862C688.247 98.5357 625.801 129.653 660.395 174.273C685.902 206.858 725.187 206.858 751.866 175.741C762.42 163.412 775.32 131.12 786.46 124.662C803.464 114.681 830.437 130.827 844.802 140.514C859.168 150.202 899.039 181.612 877.051 205.684C855.063 229.755 780.304 225.939 789.978 288.467C794.962 319.584 816.364 325.161 832.489 345.71C848.613 366.259 835.42 397.963 840.698 424.97C845.975 451.977 847.441 447.574 855.943 454.913C891.71 485.149 943.015 443.171 983.767 476.049C1007.22 495.13 1033.9 543.273 1067.61 544.448C1101.33 545.622 1124.78 531.238 1146.19 503.35C1164.36 479.865 1183.71 426.144 1221.53 440.822C1259.35 455.5 1237.07 456.381 1246.45 460.784C1262.58 468.417 1296.29 460.784 1295.7 485.736C1295.12 510.689 1270.2 497.479 1256.71 501.588C1228.57 510.101 1180.78 581.142 1157.91 605.507C1128.89 636.331 1096.05 637.505 1089.02 687.116C1081.98 736.727 1091.36 773.715 1127.72 774.302C1138.56 774.302 1187.82 757.276 1201.01 752.579C1214.2 747.882 1230.91 737.02 1246.16 730.269C1261.4 723.517 1280.75 720.875 1290.72 737.608C1307.14 765.789 1264.92 791.035 1248.21 806.887C1220.07 833.894 1201.01 867.066 1214.49 906.99C1227.98 946.913 1235.9 933.703 1242.93 948.968C1255.54 976.856 1217.43 995.643 1199.84 1009.15C1182.25 1022.65 1150 1060.52 1133.58 1018.83C1122.44 990.947 1127.42 966.288 1104.55 940.749C1081.69 915.209 1067.32 916.09 1055.01 917.851C1042.69 919.612 1030.67 943.097 1017.77 951.023C963.831 984.488 986.698 915.796 969.987 896.422C953.277 877.047 918.389 904.348 903.437 871.469C888.485 838.591 894.349 839.472 878.517 825.968C862.686 812.464 843.923 816.868 827.212 801.309C810.501 785.751 813.139 780.76 804.637 782.815C796.135 784.87 782.063 808.942 772.974 817.455C741.018 846.517 704.665 805.419 672.709 801.016C640.753 796.612 652.773 802.19 643.685 801.896C622.283 801.309 613.781 777.531 587.102 776.651C560.716 775.77 556.319 786.631 536.676 793.97C517.033 801.309 490.354 781.935 463.382 788.099C436.41 794.264 431.426 811.584 416.181 828.023C395.952 849.453 365.755 874.698 362.53 906.99C359.306 939.281 386.864 977.737 401.816 1002.69C416.768 1027.64 436.704 1051.13 436.997 1064.63C437.29 1078.13 431.72 1078.43 424.683 1080.77C407.093 1086.06 393.314 1068.15 379.828 1059.64C366.342 1051.13 343.474 1039.38 332.92 1037.33C322.366 1035.27 313.57 1040.56 309.173 1049.66C301.843 1064.63 301.843 1103.97 303.016 1120.99C305.361 1155.63 313.864 1169.14 302.137 1205.83C290.41 1242.52 295.98 1224.03 286.891 1225.79C266.956 1229.61 257.281 1211.99 243.795 1201.43C222.686 1184.4 197.766 1173.83 170.794 1184.4C143.822 1194.97 137.373 1218.16 132.389 1229.31C123.887 1248.98 130.923 1266.89 130.043 1287.44C129.164 1307.99 126.232 1307.4 127.111 1318.26C129.457 1348.79 149.393 1364.35 146.754 1398.7C144.995 1420.71 130.043 1448.6 134.148 1469.15C138.252 1489.7 142.943 1479.13 134.734 1479.72C126.525 1480.3 124.766 1467.09 124.766 1462.4C124.473 1441.85 138.252 1415.72 139.718 1393.12C141.184 1370.51 129.457 1360.53 123.887 1341.45C118.316 1322.37 121.541 1310.34 121.541 1291.84C121.834 1245.75 113.625 1235.19 145.288 1197.32C176.072 1160.92 214.184 1167.96 248.486 1195.26C282.787 1222.56 284.253 1238.12 295.394 1202.6C306.534 1167.08 290.116 1117.76 295.98 1072.26C301.843 1026.76 337.024 1026.17 375.43 1048.48C413.836 1070.79 409.731 1074.02 418.82 1074.32C427.908 1074.61 424.977 1073.73 426.149 1072.56L427.615 1072.85Z" fill="white"/>
<path d="M-116.223 1084C-117.103 1082.83 -121.793 1069.91 -117.396 1071.67C-103.03 1084.3 -88.0784 1100.44 -67.8494 1102.5C-47.6203 1104.55 -30.9094 1101.03 -21.5278 1095.75C-12.1463 1090.46 -17.4234 1093.4 -15.9575 1091.34C-4.23056 1077.25 4.85784 1058.17 17.7575 1043.49C42.9705 1014.43 67.8903 993.589 87.533 958.655C107.176 923.722 101.312 902.586 83.7217 868.827C66.1313 835.068 46.7818 813.051 46.4886 790.448C46.4886 774.596 59.0951 737.608 79.3241 753.46C99.5531 769.312 107.176 792.209 119.782 805.125C148.806 834.481 163.758 835.362 201.871 823.032C264.024 802.777 286.305 750.818 326.763 704.142C367.221 657.467 383.639 643.963 420.579 620.479C457.519 596.994 457.519 601.691 467.487 589.949C487.13 566.758 499.443 527.715 539.021 534.173C578.6 540.631 567.166 550.612 582.704 549.144C598.243 547.677 597.363 540.044 604.106 535.347C638.701 511.863 680.918 506.872 712.874 537.109C717.858 541.806 725.48 554.428 732.223 555.896C745.416 558.832 764.179 540.925 777.665 538.576C791.151 536.228 807.569 541.218 821.348 545.622C835.127 550.025 891.124 570.868 873.533 596.407C855.063 623.121 807.276 606.975 784.701 643.963C782.356 647.779 778.545 652.476 780.304 657.173C782.063 661.87 803.171 681.832 807.569 685.061C839.818 707.665 862.393 669.503 887.899 672.145C913.405 674.787 920.441 715.591 923.666 733.498C933.927 786.631 926.305 802.483 971.16 840.939C986.992 854.443 1008.39 857.672 1018.65 836.242C1042.99 785.457 982.594 717.059 1011.62 671.557C1021.88 655.412 1039.18 648.66 1052.96 636.624C1066.74 624.588 1075.53 615.488 1057.06 603.159C1026.28 582.903 991.976 584.371 977.024 540.925C971.453 524.779 977.024 497.772 958.554 490.433C940.084 483.094 910.473 496.891 893.469 502.469C876.465 508.047 868.842 516.853 849.786 506.285C830.73 495.717 816.951 483.094 809.035 469.591C793.497 442.29 809.328 421.154 797.601 392.385C785.874 363.617 766.525 356.572 761.541 336.903C752.745 301.97 780.597 264.982 776.492 230.342C772.388 195.703 746.589 231.81 736.621 235.626C716.685 242.965 711.115 232.691 695.283 225.645C679.452 218.6 668.018 218.013 658.343 231.81C644.271 251.478 660.396 296.392 671.829 315.474C683.263 334.555 711.701 353.636 724.601 376.533C741.018 405.302 749.52 454.619 726.36 481.627C703.199 508.927 674.468 489.846 648.375 483.681C622.283 477.517 611.142 496.891 590.62 506.285C570.098 515.679 552.507 520.376 533.451 513.037C514.395 505.698 487.423 486.03 465.435 476.93C439.635 466.362 454.587 508.634 455.467 521.844C459.864 587.307 375.137 628.111 332.333 666.273C289.53 704.436 278.976 748.763 247.02 783.696C231.775 800.722 186.626 826.555 163.758 823.62C140.891 820.684 117.144 786.631 104.537 767.55C93.6896 751.111 68.1835 700.619 54.9907 691.813C41.7978 683.006 24.5005 681.832 22.1551 696.51C18.3439 720.875 30.364 746.708 31.8299 771.073C33.2958 793.97 26.2596 823.032 33.5889 843.875C44.1432 874.111 79.9104 882.037 72.2879 922.842C64.6654 963.646 50.593 941.629 41.7978 957.188C28.8981 980.672 27.7254 1002.1 8.96228 1027.05C-3.93739 1044.37 -41.1705 1081.66 -64.9176 1071.97C-88.6647 1062.28 -90.4238 1027.35 -89.2511 1011.79C-88.0784 996.231 -67.263 968.343 -68.7289 951.904C-70.1948 935.464 -92.1828 925.484 -102.444 912.567C-112.705 899.651 -115.637 875.873 -108.014 856.204C-100.392 836.536 -91.5965 831.839 -102.444 811.29C-113.291 790.741 -127.95 792.796 -124.139 766.963C-120.328 741.13 -89.5443 743.185 -90.717 736.14C-91.8897 729.094 -111.826 717.646 -118.569 716.178C-125.312 714.71 -126.484 715.297 -130.589 715.297C-134.693 715.297 -139.677 718.526 -139.384 713.536C-139.091 708.546 -124.139 707.958 -119.155 708.252C-107.135 709.72 -81.0422 723.81 -83.3876 738.195C-86.0262 754.927 -120.621 752.872 -116.516 777.531C-112.412 802.19 -98.0463 799.842 -93.0624 811.877C-80.749 842.407 -108.014 856.498 -105.376 884.679C-102.444 916.97 -64.6245 922.548 -60.52 948.381C-56.4156 974.214 -81.0422 993.589 -81.6286 1015.9C-82.2149 1038.21 -71.3675 1064.63 -55.2429 1065.8C-33.2548 1067.27 2.80563 1025.29 13.0667 1007.68C23.621 989.772 27.1391 967.462 37.107 951.317C47.0749 935.171 69.9425 933.703 66.1313 907.577C62.32 881.45 47.9545 879.982 36.5207 863.837C13.3599 830.958 28.3118 798.667 24.2073 761.973C20.1029 725.278 12.4804 720.581 14.5326 700.032C17.4643 668.328 53.2316 673.906 69.063 693.281C84.8944 712.655 96.3282 738.488 109.521 758.45C122.128 777.531 145.875 816.868 171.088 816.281C196.301 815.694 210.373 801.896 219.168 796.906C254.056 778.118 282.787 714.123 307.121 682.125C341.715 636.624 449.896 589.068 449.017 528.302C448.137 467.536 428.201 457.555 466.607 468.416C489.475 477.81 513.515 495.424 535.796 504.817C558.078 514.211 573.03 505.992 589.447 498.359C605.279 490.727 615.54 476.93 634.596 474.581C653.652 472.233 694.697 503.35 719.91 478.397C745.123 453.445 729.878 387.982 706.131 363.03C682.384 338.077 668.018 330.151 655.412 298.154C642.805 266.156 635.769 204.803 688.54 214.197C700.854 216.545 715.219 230.342 725.773 230.342C736.328 230.342 767.111 197.464 781.183 218.894C801.119 249.717 751.28 308.135 775.613 346.884C789.099 368.02 807.862 380.056 810.794 408.825C813.726 437.593 803.465 444.932 817.244 467.242C831.023 489.553 854.477 503.937 866.497 503.937C894.935 497.772 947.999 463.72 972.626 490.433C983.767 502.469 979.955 522.724 985.233 538.283C999.012 578.5 1035.95 577.913 1063.8 597.875C1103.09 626.056 1035.37 652.476 1020.71 672.438C998.719 702.381 1024.52 748.176 1029.8 781.054C1034.78 811.29 1033.61 863.837 990.217 858.553C975.265 856.791 954.742 836.242 945.068 824.794C912.525 786.925 925.425 744.066 906.955 700.913C887.899 655.705 863.858 697.097 832.489 699.445C801.119 701.794 789.685 681.245 777.665 665.686C761.247 644.257 795.842 618.717 814.312 611.965C832.782 605.214 837.766 607.856 848.907 604.333C860.047 600.81 877.344 589.362 865.324 575.565C853.304 561.767 803.465 544.741 789.392 544.448C768.577 544.154 753.039 567.051 730.757 562.648C708.476 558.245 708.183 538.576 695.283 531.825C669.777 518.615 645.444 521.55 620.524 534.467C595.604 547.383 597.949 554.135 586.809 555.603C556.025 559.712 541.953 524.486 509.118 549.438C476.282 574.39 482.439 592.591 458.692 607.562C434.944 622.534 433.479 621.359 421.165 629.285C386.278 651.889 357.253 681.245 330.281 712.949C299.498 749.056 269.594 802.777 225.618 822.445C181.642 842.114 177.244 840.059 163.758 838.884C128.871 836.242 96.035 785.164 77.2719 759.331C65.5449 749.937 56.7497 776.063 56.1633 784.87C53.5248 815.106 99.8463 865.892 107.469 899.651C115.091 933.41 85.7739 982.727 61.7336 1011.79C37.6934 1040.85 30.364 1041.44 16.878 1058.46C3.39197 1075.49 0.460236 1084.59 -7.74864 1095.75C-20.062 1112.19 -70.7811 1113.36 -88.0784 1104.55C-91.8897 1102.5 -112.705 1086.94 -114.757 1084.3L-116.223 1084Z" fill="white"/>
<path d="M937.738 296.393C924.252 289.054 910.766 277.605 897.28 268.799C874.706 254.414 846.854 231.223 820.469 251.185C794.083 271.147 801.999 277.312 817.83 290.522C843.923 312.245 874.706 322.226 887.605 358.627C900.505 395.028 873.826 412.641 872.654 441.703C871.481 463.72 909.594 446.107 919.268 443.171C947.706 434.658 976.144 429.961 996.96 456.087C1006.34 467.83 1010.15 485.737 1023.05 494.837C1035.95 503.937 1057.06 510.982 1062.34 511.863C1075.82 514.799 1085.2 510.689 1096.05 503.35C1137.98 474.288 1122.14 439.355 1143.84 403.541C1165.53 367.727 1236.19 329.271 1252.61 384.753C1269.03 440.235 1253.19 400.312 1259.64 403.247C1273.13 408.825 1296.58 398.55 1310.36 400.312C1324.14 402.073 1351.99 419.686 1360.2 433.484C1368.41 447.281 1367.24 458.142 1381.6 469.591C1395.97 481.04 1415.61 481.333 1417.96 504.818C1420.3 528.302 1410.92 568.226 1377.5 572.923C1344.08 577.62 1336.75 568.519 1324.14 565.29C1289.25 555.897 1255.25 529.476 1219.77 555.897C1190.75 577.326 1206.29 601.985 1189.87 628.699C1175.8 651.889 1145.6 660.99 1135.04 689.171C1124.49 717.353 1136.22 723.811 1161.43 722.637C1186.64 721.462 1223.29 712.656 1246.74 707.959C1276.65 701.794 1305.97 692.107 1335.58 685.648C1365.19 679.19 1396.56 671.558 1407.11 682.419C1424.7 700.62 1394.5 725.866 1381.9 737.314C1352.29 764.615 1291.89 813.639 1290.43 857.085C1289.25 886.735 1337.92 910.806 1358.15 928.713C1378.38 946.914 1407.99 980.673 1376.91 1003.86C1336.75 1034.1 1287.5 1006.8 1249.38 1028.23C1230.91 1038.5 1237.36 1068.15 1227.98 1086.94C1212.44 1117.76 1161.72 1116.88 1140.91 1091.34C1118.04 1062.57 1100.45 1012.96 1078.76 980.379C1075.24 975.095 1068.49 965.114 1062.34 963.059C1045.04 957.482 1025.1 977.15 1023.35 993.589C1021.59 1009.73 1034.78 1052.01 1003.12 1044.67C984.939 1040.56 976.144 1006.8 965.297 1002.4C954.449 997.992 934.513 1011.79 919.268 999.167C904.023 986.544 913.698 977.443 917.509 968.05C921.321 958.656 929.823 947.501 928.357 945.152C918.389 937.52 895.521 948.675 889.365 936.346C883.208 924.016 891.417 911.1 881.742 900.238C872.067 889.377 836.007 867.36 828.091 863.837C820.175 860.314 809.914 858.847 800.24 859.14C778.251 860.021 763.593 868.24 740.139 864.424C716.685 860.608 719.03 856.498 708.476 855.324C687.954 852.682 687.074 856.205 667.432 845.93C645.15 834.188 630.492 824.501 603.52 822.739C576.548 820.978 553.68 835.069 527.587 836.83C501.495 838.591 485.664 833.014 460.744 843.288C435.824 853.563 400.936 873.231 393.607 898.477C388.036 917.558 396.245 963.646 405.627 981.553C426.735 1021.18 478.627 1052.89 483.318 1101.03C485.957 1130.09 466.021 1152.4 439.049 1131.27C412.077 1110.13 423.804 1114.24 416.474 1107.49C404.454 1096.33 365.755 1069.03 350.217 1067.86C334.679 1066.68 333.506 1070.5 330.867 1078.13C322.952 1101.62 340.542 1137.43 342.301 1162.97C344.06 1188.51 340.835 1220.51 334.679 1236.95C312.104 1297.13 249.365 1221.1 217.702 1217.28C186.039 1213.46 153.204 1260.73 155.256 1298.01C157.015 1327.95 163.172 1357.01 163.758 1388.13C164.344 1419.25 159.654 1444.49 159.654 1472.67C159.654 1482.65 159.654 1492.93 159.654 1502.91C155.256 1501.15 152.031 1498.51 151.445 1493.81C147.634 1469.15 155.549 1441.85 157.015 1417.78C159.947 1372.28 145.288 1320.61 148.513 1276.87C151.738 1233.13 176.658 1206.42 212.425 1208.77C248.192 1211.11 279.562 1255.15 309.466 1252.21C321.779 1251.04 328.815 1231.66 331.161 1221.68C340.249 1179.41 331.161 1152.7 323.538 1113.07C315.916 1073.44 318.261 1058.76 350.51 1060.52C382.759 1062.28 405.334 1087.53 418.82 1099.27C432.306 1111.01 458.105 1152.11 472.471 1120.7C486.836 1089.29 476.868 1104.55 474.816 1096.63C462.21 1042.03 400.643 1014.73 389.502 959.536C378.948 907.871 380.121 879.689 427.908 850.921C475.696 822.152 465.141 830.959 477.161 829.785C489.182 828.61 507.652 830.665 522.017 829.785C558.371 827.436 578.6 810.41 617.299 817.455C648.375 823.033 652.48 831.252 677.4 842.995C702.319 854.737 690.006 846.224 701.733 846.517C713.46 846.811 730.171 855.911 744.243 857.379C771.215 860.608 796.721 845.93 824.866 854.15C853.011 862.369 882.621 888.789 889.071 897.009C898.746 909.338 893.176 930.474 897.28 933.704C901.385 936.933 929.529 928.713 935.393 940.455C941.256 952.198 910.766 979.205 923.959 992.708C937.152 1006.21 946.533 993.002 956.501 992.708C983.473 991.534 984.939 1031.16 1004.88 1037.33C1024.81 1043.49 1015.14 1012.67 1014.84 1004.74C1013.67 983.314 1027.16 961.004 1048.27 955.133C1069.37 949.262 1069.08 956.014 1078.17 966.582C1105.43 998.579 1120.39 1051.42 1145.01 1084C1169.64 1116.59 1179.61 1105.73 1201.6 1100.15C1235.02 1091.64 1219.48 1044.08 1239.12 1026.47C1270.78 997.992 1329.13 1025.59 1369.58 999.46C1397.73 981.26 1372.22 951.317 1355.22 935.465C1318.86 901.999 1262.28 887.615 1292.19 825.675C1322.09 763.734 1354.34 753.753 1387.76 721.169C1421.18 688.584 1413.27 699.446 1399.49 686.823C1385.71 674.2 1393.92 683.594 1389.81 683.887C1346.72 684.768 1292.19 705.61 1248.8 714.417C1205.41 723.224 1189.28 727.333 1166.41 729.095C1143.55 730.856 1124.2 727.627 1124.78 701.5C1125.37 675.374 1157.91 652.477 1176.09 634.57C1203.94 607.269 1180.78 572.042 1217.72 547.971C1254.66 523.899 1317.99 564.41 1370.46 565.29C1403.01 565.877 1415.03 533.293 1411.8 505.405C1409.46 486.03 1392.74 486.03 1379.55 475.756C1356.68 458.142 1361.38 434.071 1333.52 416.164C1305.67 398.257 1283.39 418.806 1258.76 409.118C1234.14 399.431 1253.19 375.066 1230.91 366.553C1200.42 354.811 1159.38 388.569 1146.77 414.99C1134.17 441.41 1138.56 463.133 1125.66 483.975C1112.76 504.818 1089.9 520.376 1071.72 520.376C1053.54 520.376 1028.04 505.698 1021.29 501.589C999.305 488.379 999.305 453.445 970.867 444.932C942.429 436.419 911.939 461.959 878.81 458.142C849.493 454.62 878.224 404.715 881.742 389.157C889.951 351.875 862.686 329.565 835.714 309.603C808.742 289.641 811.966 297.274 804.344 286.118C786.167 259.698 822.521 232.104 847.734 234.159C877.051 236.507 920.441 279.66 948.586 292.577C976.73 305.493 980.249 304.025 976.437 285.825C969.694 253.534 941.256 233.278 928.65 204.216C918.975 181.319 924.839 182.787 902.264 167.228C879.69 151.67 867.083 149.908 857.702 131.414C844.509 105.581 849.2 85.3259 821.641 64.4834C794.083 43.6409 767.99 39.5311 762.713 22.2113C757.436 4.89148 766.818 19.8628 768.87 20.45C772.388 21.6242 778.838 30.4309 782.649 33.3664C796.428 43.6409 815.191 48.9249 829.85 60.9607C854.477 81.5097 852.425 98.5359 863.565 124.369C874.706 150.202 904.316 154.605 922.493 172.219C931.582 181.025 933.048 195.703 938.325 206.858C949.172 229.462 968.522 244.14 978.783 269.386C995.2 310.777 967.056 311.658 937.738 295.512V296.393Z" fill="white"/>
<path d="M513.808 22.5049C500.616 35.1278 487.716 45.6959 481.266 63.8964C474.816 82.0968 480.093 106.462 467.194 124.369C454.294 142.276 432.306 144.037 421.752 156.367C411.197 168.696 421.752 189.245 411.784 206.858C401.816 224.472 388.33 225.939 378.069 235.04C367.808 244.14 375.43 237.095 376.016 239.149C389.502 242.672 402.109 242.672 415.302 238.562C428.495 234.453 442.567 222.123 456.053 215.958C488.595 201.868 543.712 203.923 570.684 229.168C587.688 245.314 604.106 274.376 598.829 298.154C593.552 321.932 579.773 336.61 584.757 348.646C589.74 360.682 630.785 368.021 641.632 378.882C652.48 389.744 643.391 412.054 630.199 420.861C607.331 436.126 558.664 451.684 531.106 448.455C503.547 445.226 515.861 436.126 509.411 430.842C496.218 419.98 478.921 403.247 463.382 398.257C447.844 393.266 391.555 380.644 371.033 382.405C350.51 384.166 340.249 393.266 342.008 416.751C344.647 453.445 387.157 484.562 386.864 522.431C386.571 555.897 330.281 588.775 307.707 607.562C285.132 626.35 267.542 650.715 255.815 669.796C244.088 688.878 217.116 752.286 197.18 767.551C177.244 782.816 170.208 774.596 157.015 762.854C134.148 742.011 143.529 728.801 140.598 701.794C135.614 652.477 90.4647 569.107 39.7456 554.722C-10.9736 540.338 -23.2869 565.584 -47.9135 535.348C-72.5402 505.111 -52.6043 522.138 -63.7449 518.908C-74.8856 515.679 -77.231 520.376 -84.5603 523.312C-84.8535 523.018 -82.2149 515.092 -81.9217 514.505C-78.6968 509.515 -62.8654 511.276 -57.2951 513.624C-44.9818 518.908 -43.8091 530.357 -33.8412 538.283C-16.5439 551.787 0.460219 542.393 18.9302 542.98C72.8743 545.035 101.019 587.601 124.766 629.873C137.373 652.477 147.047 685.355 149.1 711.188C151.152 737.021 143.822 743.479 166.104 760.505C188.385 777.532 191.61 763.441 202.164 749.057C229.429 711.775 241.743 669.209 274.285 631.047C298.325 602.572 323.245 589.362 349.631 565.584C376.016 541.806 381.294 534.761 378.069 515.973C371.326 477.811 333.506 452.271 333.213 411.467C333.213 388.863 344.647 378.002 366.635 375.653C390.675 373.011 448.43 385.047 472.471 393.56C483.905 397.67 504.427 416.751 514.981 425.558C525.535 434.364 527.294 440.529 534.037 441.703C556.025 445.226 616.712 425.264 632.544 409.412C659.809 381.524 607.038 373.598 590.62 364.204C554.56 343.362 597.363 309.603 592.379 279.367C587.395 249.13 574.495 244.433 567.166 237.095C544.885 214.491 499.15 210.674 470.125 218.894C441.101 227.114 428.495 247.075 401.816 249.13C375.137 251.185 370.446 249.424 367.808 240.617C365.169 231.811 384.225 222.123 391.262 215.958C398.298 209.794 408.559 199.226 409.732 190.713C410.904 182.2 408.266 179.558 408.266 173.686C408.266 140.808 440.808 140.515 458.398 122.314C475.989 104.114 468.073 82.0968 472.178 64.4835C475.989 48.925 495.045 20.1565 513.808 22.2114V22.5049Z" fill="white"/>
<path d="M315.916 346.885C303.602 359.214 316.795 390.918 317.968 406.477C319.14 422.035 309.173 446.107 311.225 464.014C313.277 481.921 323.538 490.727 325.297 503.644C332.333 556.19 277.217 586.427 249.365 621.947C221.513 657.467 221.807 673.026 207.441 705.317C193.076 737.608 185.746 754.047 171.381 735.26C155.256 714.417 180.469 644.844 177.537 616.37C175.485 595.821 161.12 592.885 155.256 578.207C149.393 563.529 154.67 530.651 140.597 525.367C126.525 520.083 128.284 524.486 122.127 521.551C115.971 518.615 114.505 515.973 113.918 515.68C100.432 503.644 102.778 489.26 84.0147 480.747C65.2515 472.233 5.73715 456.675 -15.3714 456.381C-36.4799 456.088 -39.4117 460.785 -52.0182 459.317C-54.3636 450.217 -44.6888 453.152 -39.4117 452.272C-4.23078 446.694 54.1109 458.436 86.9464 473.701C119.782 488.966 106.003 501.589 121.834 512.157C137.666 522.725 151.445 512.157 157.895 537.99C164.344 563.823 157.895 563.529 162.292 574.685C166.69 585.84 174.899 588.775 179.003 596.114C196.594 626.057 170.794 685.062 175.485 722.343C180.176 759.625 189.264 725.572 194.248 716.179C213.891 680.952 216.529 651.89 244.088 616.957C271.646 582.023 327.936 549.145 317.088 501.589C306.241 454.033 308 482.801 305.654 473.701C299.791 451.391 312.397 427.613 310.052 402.954C308 380.35 290.703 346.004 322.952 336.61C355.201 327.217 354.908 348.353 378.655 352.756C402.402 357.159 403.281 355.692 427.029 366.26C450.776 376.828 468.073 363.03 492.406 365.672C516.74 368.314 505.599 371.837 512.635 373.599C519.672 375.36 524.949 374.479 530.226 375.653C535.503 376.828 563.061 389.451 560.716 375.066C558.371 360.682 540.194 358.04 539.901 345.124C539.314 324.575 566.58 302.264 562.182 280.835C561.596 277.606 558.371 273.496 556.612 270.854C541.367 247.956 513.515 241.205 487.716 249.131C461.916 257.057 451.362 290.229 419.113 281.715C386.864 273.202 415.595 278.78 412.663 278.193C389.209 273.789 381.587 298.742 357.253 282.89C329.988 265.276 328.522 235.04 343.474 208.62C354.908 188.071 369.566 171.045 374.844 146.973C380.121 122.901 369.86 106.169 354.028 95.8943C338.197 85.6198 336.731 90.0232 334.679 88.5554C332.626 87.0876 332.333 82.9778 334.679 81.51C337.024 80.0423 348.165 84.1521 350.803 85.3263C371.619 93.8394 387.157 122.314 383.639 144.625C380.121 166.935 359.305 193.942 347.285 218.014C335.265 242.085 342.008 261.754 361.651 275.844C381.293 289.935 381.293 275.257 396.538 271.734C411.784 268.212 406.213 269.973 408.559 269.973C415.595 269.973 424.097 276.431 429.374 276.431C444.912 276.431 460.744 253.828 475.402 246.489C504.133 231.811 542.539 236.801 561.889 264.102C581.238 291.403 571.564 291.99 563.061 311.365C554.559 330.739 553.387 326.336 550.748 333.088C542.539 353.637 557.491 350.114 564.527 363.03C571.564 375.947 571.564 385.634 561.596 388.863C551.628 392.093 539.901 384.754 529.64 382.699C519.378 380.644 517.913 382.699 510.583 380.644C503.254 378.589 496.804 373.011 491.82 372.424C478.627 371.25 463.969 380.937 448.43 379.47C432.892 378.002 427.322 373.011 414.422 367.14C396.245 358.921 378.655 363.618 361.651 355.104C344.647 346.591 346.112 343.069 339.663 341.894C333.213 340.72 320.606 344.536 317.381 347.766L315.916 346.885Z" fill="white"/>
<path d="M843.043 19.5693C843.043 19.5693 843.043 24.2662 843.923 26.6147C845.682 31.018 855.356 41.2925 858.875 46.8701C870.308 65.3641 876.172 87.6744 887.899 105.288C899.626 122.901 922.2 144.918 937.445 164.293C958.261 190.419 977.024 218.894 998.132 244.433C1013.67 263.515 1046.21 289.935 1041.23 317.529C1037.12 341.013 1000.48 365.085 977.61 363.617C929.53 360.388 906.662 306.374 864.445 291.696C867.083 316.648 891.71 333.087 906.662 351.581C921.614 370.076 930.995 392.973 944.188 402.66C957.381 412.348 981.421 414.109 998.425 424.383C1015.43 434.658 1027.74 456.968 1044.45 469.885C1061.16 482.801 1077 490.727 1084.33 481.92C1091.65 473.114 1095.47 431.722 1098.4 419.98C1104.55 393.854 1112.76 357.159 1128.01 335.729C1143.25 314.3 1211.86 277.605 1243.23 304.612C1274.6 331.62 1261.99 334.555 1272.54 338.665C1296.88 348.059 1321.8 333.675 1342.91 349.82C1352.58 357.159 1357.86 372.424 1365.77 381.818C1373.69 391.212 1388.64 395.908 1400.95 404.422C1413.27 412.935 1411.8 414.99 1417.96 418.219C1424.11 421.448 1432.91 421.154 1431.15 427.613C1429.39 434.071 1408.58 420.861 1405.06 418.512C1401.54 416.164 1397.44 410.293 1394.8 408.825C1386.59 403.834 1376.33 402.073 1367.82 395.321C1359.32 388.57 1351.41 371.837 1342.91 360.975C1329.42 343.655 1307.14 350.994 1288.08 349.527C1269.03 348.059 1267.85 346.591 1259.94 339.546C1241.76 311.658 1227.69 293.751 1191.33 303.438C1107.78 325.749 1114.52 405.596 1095.17 473.407C1075.82 541.219 1086.67 494.543 1068.79 491.314C1036.24 485.737 1018.95 446.694 995.787 432.016C972.626 417.338 955.036 421.448 939.204 409.706C924.252 398.844 912.819 372.717 900.212 357.159C887.606 341.601 855.65 316.355 855.65 292.283C855.65 287.586 857.115 284.944 861.806 284.651C884.674 282.596 922.493 327.803 941.55 341.307C960.606 354.811 982.008 361.856 1006.93 346.885C1031.85 331.913 1033.02 325.161 1033.61 311.951C1034.49 290.815 999.598 259.698 986.405 242.966C967.642 219.188 950.638 193.355 931.582 169.87C912.525 146.386 898.746 134.35 885.553 116.149C871.188 96.7746 865.324 73.2901 853.304 52.7412C841.284 32.1923 830.73 23.9727 834.834 19.8629C836.593 19.8629 842.75 19.2758 843.336 19.8629L843.043 19.5693Z" fill="white"/>
<path d="M118.902 424.677C85.1874 401.78 43.5566 388.57 3.39178 380.644C0.166863 380.057 -3.35123 380.35 -6.86932 380.35C-7.74884 379.763 -5.40345 374.773 -3.93758 373.892C0.166863 371.25 28.6048 379.469 35.0546 381.231C98.9666 396.789 151.445 427.319 185.453 485.443C196.594 504.524 201.284 525.661 220.341 539.458C239.397 553.255 240.863 553.255 253.176 545.622C281.614 528.596 273.992 496.892 275.751 469.591C277.51 442.291 289.53 404.715 275.751 376.24C266.369 356.279 237.638 342.481 247.02 318.41C254.056 300.503 285.719 303.438 296.273 282.009C304.775 264.689 296.273 259.111 292.755 242.379C289.237 225.646 289.823 227.407 289.53 223.004C289.237 196.29 325.883 174.861 332.333 144.918C338.783 114.975 327.056 130.827 319.727 127.892C282.787 111.159 261.971 148.441 238.517 168.403C215.064 188.364 202.457 192.768 175.778 190.126C149.099 187.484 166.69 189.245 168.156 186.603C171.674 179.851 188.092 183.667 195.421 182.787C241.742 177.209 263.144 101.178 317.675 118.498C352.562 129.653 338.783 157.835 323.538 179.851C307.12 203.629 292.755 203.336 299.498 237.975C303.309 257.057 313.277 265.276 303.016 286.119C292.755 306.961 278.682 303.145 262.558 313.126C236.465 329.271 269.301 350.701 278.976 366.847C297.739 397.67 286.012 430.548 283.373 463.72C281.028 492.195 288.357 525.367 263.437 546.797C245.847 561.768 232.068 557.952 214.477 545.329C196.887 532.706 191.903 514.505 180.762 494.544C169.622 474.582 142.65 441.41 117.73 424.384L118.902 424.677Z" fill="white"/>
<path d="M1339.39 296.98C1320.62 299.915 1302.74 297.567 1286.91 286.999C1271.08 276.431 1248.8 251.478 1226.22 252.065C1183.13 252.946 1154.39 312.244 1101.04 306.96C1047.68 301.676 1054.71 259.698 1039.76 231.517C1030.67 214.197 1016.6 200.106 1005.75 183.96C979.662 144.917 957.381 104.994 927.477 67.7121C897.573 30.4305 904.023 43.9341 895.228 32.4854C889.658 24.8529 895.814 24.2658 902.264 29.5498C949.465 67.7121 983.473 140.221 1018.65 189.244C1053.84 238.268 1030.97 203.335 1036.54 210.968C1062.92 248.543 1065.86 319.877 1131.82 294.631C1167.88 280.834 1190.16 241.204 1233.26 245.314C1276.35 249.423 1285.15 286.705 1313.59 290.228C1342.03 293.75 1337.04 286.118 1339.39 297.273V296.98Z" fill="white"/>
<path d="M182.228 441.41C166.983 431.429 147.34 427.613 131.509 417.044C115.677 406.476 84.8942 373.892 78.4444 354.811C71.9945 335.729 73.7536 314.3 62.3198 300.503C50.886 286.705 52.645 295.806 57.9222 291.989C67.3037 285.238 76.9785 312.245 78.7375 317.822C86.0669 343.362 83.7215 356.278 102.191 378.589C129.457 411.76 144.115 412.054 178.71 430.255C213.305 448.455 206.855 461.371 232.361 446.987C257.867 432.603 244.674 421.154 243.501 407.357C239.397 361.269 181.935 340.426 210.373 291.402C238.811 242.378 234.706 259.698 234.706 246.782C234.706 233.865 224.152 225.352 214.477 223.591C200.112 220.949 173.726 227.994 161.706 222.71C149.686 217.426 144.115 207.152 147.047 203.629C153.497 196.29 159.654 214.197 166.983 215.958C186.919 220.949 219.754 205.39 236.172 228.581C258.453 260.285 213.598 285.825 210.959 309.896C207.734 338.958 225.031 346.297 237.345 368.021C253.469 395.908 265.783 453.739 220.048 458.729C174.312 463.72 196.594 450.803 181.935 441.116L182.228 441.41Z" fill="white"/>
<path d="M1256.42 211.262C1254.95 219.775 1249.09 213.904 1243.23 213.904C1213.91 214.784 1193.39 229.168 1161.43 226.82C1129.47 224.472 1073.77 200.693 1044.75 168.989C1015.72 137.285 994.028 90.9035 963.831 58.3187C933.634 25.734 950.052 48.0442 951.224 44.228C952.397 40.4118 953.863 41.8796 955.915 42.1731C959.433 42.7602 973.506 57.438 976.437 60.9607C1032.73 125.837 1045.04 195.409 1143.84 215.958C1242.64 236.507 1201.01 208.326 1240.29 206.858C1279.58 205.39 1249.97 206.858 1256.42 210.968V211.262Z" fill="white"/>
<path d="M519.085 263.514C530.519 262.047 540.78 271.44 538.435 282.889C536.089 294.338 525.242 303.144 518.792 312.538C506.772 329.858 502.081 346.004 480.386 354.223C458.691 362.443 452.828 358.039 439.342 346.884C425.856 335.729 417.354 325.455 416.181 322.226C415.009 318.997 414.715 311.07 415.595 307.841C417.354 301.677 440.515 296.393 446.965 295.512C453.414 294.631 456.346 295.806 460.744 295.512C483.904 292.576 493.579 266.744 519.085 263.514ZM422.631 311.364C418.527 317.822 437.876 335.142 442.86 339.252C458.398 351.875 467.487 353.93 485.37 343.655C503.254 333.381 502.961 322.813 511.463 310.483C519.965 298.154 534.33 287.88 530.519 275.257C526.708 262.634 518.499 271.44 514.101 272.321C500.322 275.844 490.061 292.576 476.868 298.448C463.675 304.319 453.414 301.97 440.222 304.025C427.029 306.08 422.924 310.19 422.631 311.07V311.364Z" fill="white"/>
<path d="M707.597 118.497C720.789 116.736 733.982 120.552 736.914 134.937C739.553 148.147 730.171 179.264 718.151 186.896C706.131 194.529 690.299 190.712 679.159 178.97C668.018 167.228 661.275 158.421 668.311 142.863C675.347 127.304 678.279 133.175 688.247 129.066C698.215 124.956 697.922 120.259 707.597 119.085V118.497ZM717.271 178.089C724.894 170.75 734.569 139.34 726.946 130.533C715.512 117.323 701.44 130.24 690.886 135.524C680.331 140.808 676.52 137.872 673.295 148.734C670.07 159.595 673.588 158.128 677.106 163.412C685.315 176.328 702.319 191.593 717.271 178.089Z" fill="white"/>
</g>
<defs>
<clipPath id="clip0_1_2237">
<rect width="1438" height="491" fill="white"/>
</clipPath>
</defs>
</svg>
