<svg width="123" height="49" viewBox="0 0 123 49" fill="none" xmlns="http://www.w3.org/2000/svg">
<path d="M2.96675 1.08817C2.96675 0.751636 2.69393 0.478821 2.3574 0.478821C2.02086 0.478821 1.74805 0.751636 1.74805 1.08817V33.5869C1.74805 33.9234 2.02086 34.1962 2.3574 34.1962C2.69393 34.1962 2.96675 33.9234 2.96675 33.5869V1.08817Z" fill="white"/>
<path d="M5.6479 1.08817C5.6479 0.751636 5.37508 0.478821 5.03855 0.478821C4.70201 0.478821 4.4292 0.751636 4.4292 1.08817V33.5869C4.4292 33.9234 4.70201 34.1962 5.03855 34.1962C5.37508 34.1962 5.6479 33.9234 5.6479 33.5869V1.08817Z" fill="white"/>
<path d="M8.32905 1.08817C8.32905 0.751636 8.05624 0.478821 7.7197 0.478821C7.38317 0.478821 7.11035 0.751636 7.11035 1.08817V33.5869C7.11035 33.9234 7.38317 34.1962 7.7197 34.1962C8.05624 34.1962 8.32905 33.9234 8.32905 33.5869V1.08817Z" fill="white"/>
<path d="M11.0102 1.08817C11.0102 0.751636 10.7374 0.478821 10.4009 0.478821C10.0643 0.478821 9.7915 0.751636 9.7915 1.08817V33.5869C9.7915 33.9234 10.0643 34.1962 10.4009 34.1962C10.7374 34.1962 11.0102 33.9234 11.0102 33.5869V1.08817Z" fill="white"/>
<path d="M25.5534 1.08817C25.5534 0.751636 25.2806 0.478821 24.9441 0.478821C24.6075 0.478821 24.3347 0.751636 24.3347 1.08817V33.5869C24.3347 33.9234 24.6075 34.1962 24.9441 34.1962C25.2806 34.1962 25.5534 33.9234 25.5534 33.5869V1.08817Z" fill="white"/>
<path d="M28.2346 1.08817C28.2346 0.751636 27.9618 0.478821 27.6252 0.478821C27.2887 0.478821 27.0159 0.751636 27.0159 1.08817V33.5869C27.0159 33.9234 27.2887 34.1962 27.6252 34.1962C27.9618 34.1962 28.2346 33.9234 28.2346 33.5869V1.08817Z" fill="white"/>
<path d="M30.9157 1.08817C30.9157 0.751636 30.6429 0.478821 30.3064 0.478821C29.9698 0.478821 29.697 0.751636 29.697 1.08817V33.5869C29.697 33.9234 29.9698 34.1962 30.3064 34.1962C30.6429 34.1962 30.9157 33.9234 30.9157 33.5869V1.08817Z" fill="white"/>
<path d="M33.5969 1.08817C33.5969 0.751636 33.3241 0.478821 32.9875 0.478821C32.651 0.478821 32.3782 0.751636 32.3782 1.08817V33.5869C32.3782 33.9234 32.651 34.1962 32.9875 34.1962C33.3241 34.1962 33.5969 33.9234 33.5969 33.5869V1.08817Z" fill="white"/>
<path d="M22.5001 22.9412V33.4181C22.5001 33.6106 22.4343 33.7831 22.326 33.9195C22.2796 33.9757 22.1713 34.096 21.9856 34.1602C21.9507 34.1722 21.8269 34.2123 21.6645 34.1963C21.6258 34.1963 21.2621 34.1521 21.1538 33.9035C21.1538 33.9035 21.1538 33.8994 21.1538 33.8954L20.999 33.5144L12.6775 12.9175C12.6272 12.7892 12.6001 12.6528 12.6001 12.5164V1.67446C12.6001 1.60226 12.6117 1.53007 12.631 1.46188C12.7007 1.22522 12.8748 1.10088 12.9289 1.06077C13.0527 0.976537 13.1649 0.948459 13.223 0.932415C13.339 0.904338 13.4589 0.87626 13.5905 0.932415C13.7491 1.0006 13.8265 1.145 13.8497 1.20116L13.9077 1.34957L13.9464 1.44583L22.3802 22.3235C22.4575 22.52 22.5001 22.7286 22.5001 22.9412Z" fill="white"/>
<path d="M49.4 9.04V0.499999H52.16V14.5H50.06L44.06 5.94V14.5H41.3V0.499999H43.4L49.4 9.04ZM67.357 14.5H64.357L63.517 11.98H57.937L57.097 14.5H54.117L59.017 0.499999H62.437L67.357 14.5ZM60.737 3.68L58.817 9.4H62.657L60.737 3.68ZM77.6764 0.499999V3.14H72.0764V6.46H77.5164V9.1H72.0764V14.5H69.3164V0.499999H77.6764ZM79.2475 0.499999H89.5475V3.14H85.7675V14.5H83.0075V3.14H79.2475V0.499999ZM102.673 14.5H99.6727L98.8327 11.98H93.2527L92.4127 14.5H89.4327L94.3327 0.499999H97.7527L102.673 14.5ZM96.0527 3.68L94.1327 9.4H97.9727L96.0527 3.68Z" fill="white"/>
<path d="M41.3 35.5V21.5H44.06V35.5H41.3ZM55.3516 30.04V21.5H58.1116V35.5H56.0116L50.0116 26.94V35.5H47.2516V21.5H49.3516L55.3516 30.04ZM68.1886 35.5H64.7686L60.0686 21.5H63.0686L66.4886 32.26L69.8886 21.5H72.9086L68.1886 35.5ZM77.6178 29.72V32.86H83.5178V35.5H74.8578V21.5H83.4178V24.14H77.6178V27.12H82.9178V29.72H77.6178ZM90.8433 35.78C89.4699 35.78 88.3099 35.4733 87.3633 34.86C86.4166 34.2467 85.7433 33.4 85.3433 32.32L87.7033 30.94C88.2499 32.3667 89.3233 33.08 90.9233 33.08C91.6699 33.08 92.2299 32.9467 92.6033 32.68C92.9766 32.4133 93.1633 32.0533 93.1633 31.6C93.1633 31.1067 92.9433 30.7267 92.5033 30.46C92.0633 30.18 91.2766 29.88 90.1433 29.56C88.9166 29.1867 87.9499 28.7533 87.2433 28.26C86.3633 27.6067 85.9233 26.6467 85.9233 25.38C85.9233 24.1 86.3699 23.0933 87.2633 22.36C88.1566 21.6 89.2433 21.22 90.5233 21.22C91.6433 21.22 92.6366 21.4933 93.5033 22.04C94.3699 22.5867 95.0433 23.36 95.5233 24.36L93.2033 25.7C92.6433 24.5 91.7499 23.9 90.5233 23.9C89.9633 23.9 89.5166 24.0333 89.1833 24.3C88.8499 24.5533 88.6833 24.8867 88.6833 25.3C88.6833 25.74 88.8633 26.1 89.2233 26.38C89.6233 26.66 90.3299 26.9533 91.3433 27.26L92.3033 27.58C92.4766 27.6333 92.7766 27.7467 93.2033 27.92C93.6033 28.0667 93.8966 28.2067 94.0833 28.34C94.7366 28.74 95.1766 29.1533 95.4033 29.58C95.7499 30.14 95.9233 30.8 95.9233 31.56C95.9233 32.8533 95.4499 33.88 94.5033 34.64C93.5566 35.4 92.3366 35.78 90.8433 35.78ZM96.7756 21.5H107.076V24.14H103.296V35.5H100.536V24.14H96.7756V21.5Z" fill="white"/>
<path d="M2.16 42.3H1.2L2.4 39.6H3.12L2.16 42.3ZM3.84 42.3H2.88L4.08 39.6H4.8L3.84 42.3ZM10.7614 48H9.89738L9.48938 45.936H5.50538L4.35338 48H3.44137L8.14538 39.6H9.00938L10.7614 48ZM8.44538 40.644L5.93738 45.144H9.33338L8.44538 40.644ZM15.5461 48.144C14.2901 48.144 13.3181 47.704 12.6301 46.824C11.9501 45.952 11.7181 44.904 11.9341 43.68C12.1501 42.472 12.7301 41.468 13.6741 40.668C14.6261 39.86 15.6941 39.456 16.8781 39.456C17.6861 39.456 18.3861 39.64 18.9781 40.008C19.5781 40.376 20.0261 40.888 20.3221 41.544L19.5781 41.94C19.0741 40.828 18.1701 40.272 16.8661 40.272C15.8421 40.272 14.9421 40.612 14.1661 41.292C13.3901 41.972 12.9181 42.808 12.7501 43.8C12.5821 44.8 12.7701 45.64 13.3141 46.32C13.8501 46.992 14.6261 47.328 15.6421 47.328C16.2901 47.328 16.8941 47.176 17.4541 46.872C18.0221 46.568 18.4861 46.148 18.8461 45.612L19.5541 46.056C19.1061 46.696 18.5261 47.204 17.8141 47.58C17.1021 47.956 16.3461 48.144 15.5461 48.144ZM21.4783 39.6H27.4783L27.3463 40.392H24.7543L23.4223 48H22.5823L23.9143 40.392H21.3463L21.4783 39.6ZM33.3251 48H32.4611L32.0531 45.936H28.0691L26.9171 48H26.0051L30.7091 39.6H31.5731L33.3251 48ZM31.0091 40.644L28.5011 45.144H31.8971L31.0091 40.644ZM38.7237 48H37.8837L39.3597 39.6H40.0077L43.5717 46.428L44.7597 39.6H45.5997L44.1237 48H43.4757L39.9237 41.172L38.7237 48ZM50.168 48.144C48.96 48.144 48 47.704 47.288 46.824C46.584 45.944 46.34 44.896 46.556 43.68C46.756 42.488 47.336 41.484 48.296 40.668C49.264 39.86 50.368 39.456 51.608 39.456C52.384 39.44 53.08 39.648 53.696 40.08C54.32 40.504 54.772 41.068 55.052 41.772C55.332 42.476 55.396 43.212 55.244 43.98C55.028 45.188 54.444 46.184 53.492 46.968C52.54 47.752 51.432 48.144 50.168 48.144ZM50.312 47.328C51.344 47.328 52.236 47 52.988 46.344C53.748 45.688 54.22 44.86 54.404 43.86C54.572 42.86 54.376 42.016 53.816 41.328C53.264 40.624 52.48 40.272 51.464 40.272C50.448 40.272 49.56 40.612 48.8 41.292C48.032 41.98 47.564 42.816 47.396 43.8C47.22 44.784 47.408 45.62 47.96 46.308C48.52 46.988 49.304 47.328 50.312 47.328ZM57.0514 48H56.2114L57.6874 39.6H58.3354L61.8994 46.428L63.0874 39.6H63.9274L62.4514 48H61.8034L58.2514 41.172L57.0514 48ZM70.9676 48H70.1036L68.4836 39.6H69.3236L70.6676 46.932L74.6036 39.6H75.5396L70.9676 48ZM81.7244 39.6L81.5924 40.392H77.5604L77.0444 43.368H80.7644L80.6204 44.16H76.9004L76.3724 47.208H80.4524L80.3084 48H75.3884L76.8644 39.6H81.7244ZM83.4677 39.6H86.8277C87.4997 39.6 88.0437 39.868 88.4597 40.404C88.8837 40.94 89.0317 41.552 88.9037 42.24C88.8077 42.8 88.5557 43.292 88.1477 43.716C87.7397 44.132 87.2517 44.408 86.6837 44.544L88.1117 48H87.2357L85.8557 44.64H83.4197L82.8317 48H81.9917L83.4677 39.6ZM88.0877 42.12C88.1677 41.64 88.0717 41.232 87.7997 40.896C87.5197 40.56 87.1517 40.392 86.6957 40.392H84.1637L83.5637 43.848H86.0837C86.5557 43.848 86.9837 43.68 87.3677 43.344C87.7677 42.992 88.0077 42.584 88.0877 42.12ZM96.2639 41.916C96.1439 42.684 95.7159 43.268 94.9799 43.668C95.3479 43.86 95.6199 44.14 95.7959 44.508C95.9719 44.868 96.0239 45.272 95.9519 45.72C95.8559 46.36 95.5519 46.9 95.0399 47.34C94.5279 47.78 93.9199 48 93.2159 48H89.5559L91.0319 39.6H94.2359C94.8919 39.6 95.4159 39.828 95.8079 40.284C96.2079 40.74 96.3599 41.284 96.2639 41.916ZM94.2119 40.392H91.7279L91.2239 43.32H93.7559C94.1479 43.32 94.5079 43.18 94.8359 42.9C95.1639 42.604 95.3639 42.256 95.4359 41.856C95.5079 41.448 95.4239 41.104 95.1839 40.824C94.9519 40.536 94.6279 40.392 94.2119 40.392ZM93.8999 44.112H91.0799L90.5399 47.208H93.2879C93.7359 47.208 94.1359 47.056 94.4879 46.752C94.8399 46.448 95.0519 46.084 95.1239 45.66C95.1959 45.236 95.1119 44.872 94.8719 44.568C94.6399 44.264 94.3159 44.112 93.8999 44.112ZM103.717 48H102.853L102.445 45.936H98.4613L97.3093 48H96.3973L101.101 39.6H101.965L103.717 48ZM101.401 40.644L98.8933 45.144H102.289L101.401 40.644ZM105.803 39.6H106.763L105.563 42.3H104.843L105.803 39.6ZM107.483 39.6H108.443L107.243 42.3H106.523L107.483 39.6Z" fill="white"/>
</svg>
